<svg xmlns="http://www.w3.org/2000/svg" xmlns:xlink="http://www.w3.org/1999/xlink" width="255" height="150"><path fill="#D8D5CA" d="M0 135c0 8.284 6.716 15 15 15h225c8.284 0 15-6.716 15-15h-255z"/><path fill="#ACABA3" d="M142.5 135h-37.5c0 4.142 3.358 7.5 7.5 7.5h30c4.142 0 7.5-3.358 7.5-7.5h-7.5z"/><path fill="#EDE9DD" d="M225 0h-195c-8.284 0-15 6.716-15 15v120h225v-120c0-8.284-6.716-15-15-15z"/><path fill="#161B20" d="M225 7.5h-195c-4.143 0-7.5 3.358-7.5 7.5v120h210v-120c0-4.142-3.357-7.5-7.5-7.5z"/><rect x="30" y="22.5" fill="#585A5B" width="195" height="112.5"/><circle fill="#585A5B" cx="127.5" cy="15" r="1.875"/><g fill="#31A480"><rect x="37.5" y="37.5" width="52.5" height="7.5"/><rect x="52.5" y="50.625" width="75" height="3.75"/><rect x="75" y="65.625" width="105" height="3.75"/><rect x="75" y="73.125" width="52.5" height="3.75"/><rect x="75" y="80.625" width="90" height="3.75"/><rect x="52.5" y="58.125" width="60" height="3.75"/><rect x="75" y="95.625" width="52.5" height="3.75"/><rect x="52.5" y="88.125" width="37.5" height="3.75"/></g><rect x="30" y="108.75" fill="#3F4142" width="195" height="26.25"/><path fill="#4DADC1" d="M217.5 125.5c0 1.1-.9 2-2 2h-48.5c-1.1 0-2-.9-2-2v-7.25c0-1.1.9-2 2-2h48.5c1.1 0 2 .9 2 2v7.25z"/><circle fill="#fff" cx="195" cy="90" r="60"/><circle fill="#585A5B" cx="195" cy="90" r="52.5"/><path fill="#3F4142" d="M150 97.5c0-28.995 23.505-52.5 52.5-52.5 12.587 0 24.136 4.434 33.18 11.82-9.627-11.789-24.272-19.32-40.68-19.32-28.995 0-52.5 23.505-52.5 52.5 0 16.408 7.531 31.053 19.32 40.68-7.386-9.044-11.82-20.593-11.82-33.18z"/><path fill="#3F4142" d="M142.5 90c0 28.995 23.505 52.5 52.5 52.5s52.5-23.505 52.5-52.5c0-11.158-3.491-21.495-9.426-30h-86.147c-5.936 8.505-9.427 18.842-9.427 30z"/><path fill="#161B20" d="M142.577 92.821c.041.778.102 1.552.177 2.321l.044.436c.08.759.175 1.514.287 2.264l.063.399c.121.768.255 1.533.409 2.29l.044.202c.151.724.318 1.443.498 2.156l.084.339c.185.712.387 1.416.601 2.115l.149.485c.214.676.44 1.345.68 2.009l.188.507c.247.662.504 1.32.777 1.97l.182.418c.25.581.511 1.157.781 1.728l.194.415c.296.61.607 1.21.925 1.807l.309.575c.312.567.635 1.127.967 1.681l.373.611c.335.543.678 1.081 1.033 1.61l.397.578c.302.438.61.871.924 1.299l.54.723c.318.418.643.831.974 1.239l.504.618c.383.459.776.911 1.175 1.356l.58.638c.401.434.807.862 1.222 1.282l.61.603c.341.334.686.663 1.036.988.276.256.555.509.837.759.339.302.682.599 1.029.892l.649.545c-7.385-9.043-11.819-20.592-11.819-33.179 0-14.694 6.044-27.971 15.772-37.5h-13.846c-.352.504-.694 1.016-1.028 1.533l-.123.193c-1.021 1.594-1.961 3.245-2.808 4.95l-.02.038c-.242.487-.472.981-.699 1.476l-.25.552c-.206.463-.406.929-.599 1.399l-.256.65c-.315.798-.609 1.606-.885 2.423l-.288.852c-.121.379-.23.762-.342 1.145-.109.37-.216.741-.317 1.115-.097.36-.19.721-.279 1.084-.108.437-.208.878-.305 1.32l-.203.931c-.146.733-.28 1.471-.396 2.215l-.089.648c-.083.581-.159 1.164-.223 1.751l-.082.835c-.052.56-.094 1.124-.129 1.689l-.045.76c-.037.81-.062 1.622-.062 2.441 0 .832.025 1.657.063 2.48l.016.341z"/><defs><circle id="a" cx="195" cy="90" r="52.5"/></defs><clipPath id="b"><use xlink:href="#a" overflow="visible"/></clipPath><path clip-path="url(#b)" fill="#161B20" d="M228.75 123.75c0 4.125-3.375 7.5-7.5 7.5h-82.5c-4.125 0-7.5-3.375-7.5-7.5v-45c0-4.125 3.375-7.5 7.5-7.5h82.5c4.125 0 7.5 3.375 7.5 7.5v45z"/><path clip-path="url(#b)" fill="#258998" d="M225 120c0 4.125-3.375 7.5-7.5 7.5h-82.5c-4.125 0-7.5-3.375-7.5-7.5v-45c0-4.125 3.375-7.5 7.5-7.5h82.5c4.125 0 7.5 3.375 7.5 7.5v45z"/><path clip-path="url(#b)" fill="#186A75" d="M217.5 67.5h-45v60h45c4.125 0 7.5-3.375 7.5-7.5v-45c0-4.125-3.375-7.5-7.5-7.5z"/><path clip-path="url(#b)" fill="#186A75" d="M150 97.5c0-11.159 3.492-21.496 9.43-30h-13.357l-.326.689-.25.552c-.206.463-.406.929-.599 1.399l-.256.65c-.315.798-.609 1.606-.885 2.423l-.288.852c-.121.379-.23.762-.342 1.145-.109.37-.216.741-.317 1.115-.097.36-.19.721-.279 1.084-.108.437-.208.878-.305 1.32l-.203.931c-.146.733-.28 1.471-.396 2.215l-.089.648c-.083.581-.159 1.164-.223 1.751l-.082.835c-.052.56-.094 1.124-.129 1.689l-.045.76c-.034.81-.059 1.623-.059 2.442 0 .832.025 1.657.063 2.48l.015.341c.041.778.102 1.552.177 2.321l.044.436c.08.759.175 1.514.287 2.264l.063.399c.121.768.255 1.533.409 2.29l.044.202c.151.724.318 1.443.498 2.156l.084.339c.185.712.387 1.416.601 2.115l.149.485c.214.676.44 1.345.68 2.009l.188.507c.247.662.504 1.32.777 1.97l.182.418c.25.581.511 1.157.781 1.728l.194.415c.296.61.607 1.21.925 1.807l.309.575c.312.567.635 1.127.967 1.681l.373.611c.335.543.678 1.081 1.033 1.61l.397.578c.302.438.61.871.924 1.299l.54.723c.318.418.643.831.974 1.239l.504.618c.383.459.776.911 1.175 1.356l.58.638c.401.434.807.862 1.222 1.282l.61.603.004.004h2.653c-5.936-8.504-9.426-18.841-9.426-29.999z"/><polygon clip-path="url(#b)" fill="#31A480" points="192.75,113.303 178.849,99.401 184.151,94.099 192.75,102.697 212.599,82.849 217.901,88.151"/><circle opacity=".35" fill="#EDE9DD" cx="176.25" cy="71.25" r="11.25"/><circle opacity=".35" fill="#EDE9DD" cx="191.25" cy="86.25" r="3.75"/></svg>