<svg xmlns="http://www.w3.org/2000/svg" width="255" height="158"><path fill="#EDE9DD" d="M255 154c0 2.062-1.688 3.75-3.75 3.75h-157.5c-2.063 0-3.75-1.688-3.75-3.75v-120c0-2.062 1.687-3.75 3.75-3.75h157.5c2.062 0 3.75 1.688 3.75 3.75v120z"/><path fill="#D8D5CA" d="M93.75 30.25c-2.063 0-3.75 1.688-3.75 3.75v116.25h123.75c2.062 0 3.75-1.688 3.75-3.75v-116.25h-123.75z"/><rect x="97.5" y="52.75" fill="#01684B" width="150" height="97.5"/><rect x="97.5" y="37.75" fill="#fff" width="120" height="7.5"/><rect x="225" y="37.75" fill="#D8D5CA" width="22.5" height="7.5"/><rect x="172.5" y="52.75" fill="#3F4142" width="75" height="97.5"/><rect x="105" y="60.25" fill="#B24526" width="30" height="7.5"/><rect x="105" y="73.375" fill="#B24526" width="60" height="3.75"/><rect x="105" y="80.875" fill="#B24526" width="45" height="3.75"/><path fill="#EA7349" d="M165 115c0 .825-.675 1.5-1.5 1.5h-57c-.825 0-1.5-.675-1.5-1.5v-19.5c0-.825.675-1.5 1.5-1.5h57c.825 0 1.5.675 1.5 1.5v19.5z"/><path fill="#161B20" d="M217.5 146.5v-93.75h-45v97.5h41.25c2.062 0 3.75-1.688 3.75-3.75z"/><path fill="#EA7349" d="M165 141.25c0 .825-.675 1.5-1.5 1.5h-57c-.825 0-1.5-.675-1.5-1.5v-19.5c0-.825.675-1.5 1.5-1.5h57c.825 0 1.5.675 1.5 1.5v19.5z"/><rect x="180" y="58.375" fill="#585A5B" width="30" height="3.75"/><rect x="180" y="65.875" fill="#585A5B" width="60" height="3.75"/><rect x="180" y="95.875" fill="#585A5B" width="45" height="3.75"/><rect x="180" y="133.375" fill="#585A5B" width="22.5" height="3.75"/><rect x="180" y="125.875" fill="#585A5B" width="45" height="3.75"/><rect x="195" y="73.375" fill="#585A5B" width="30" height="3.75"/><rect x="195" y="103.375" fill="#585A5B" width="22.5" height="3.75"/><rect x="195" y="88.375" fill="#585A5B" width="30" height="3.75"/><rect x="210" y="110.875" fill="#585A5B" width="30" height="3.75"/><rect x="210" y="118.375" fill="#585A5B" width="22.5" height="3.75"/><rect x="195" y="80.875" fill="#585A5B" width="22.5" height="3.75"/><rect x="97.5" y="37.75" fill="#EDE9DD" width="120" height="7.5"/><rect x="180" y="58.375" fill="#3F4142" width="30" height="3.75"/><rect x="180" y="65.875" fill="#3F4142" width="37.5" height="3.75"/><rect x="195" y="73.375" fill="#3F4142" width="22.5" height="3.75"/><rect x="195" y="80.875" fill="#3F4142" width="22.5" height="3.75"/><rect x="195" y="88.375" fill="#3F4142" width="22.5" height="3.75"/><rect x="195" y="103.375" fill="#3F4142" width="22.5" height="3.75"/><rect x="210" y="110.875" fill="#3F4142" width="7.5" height="3.75"/><rect x="210" y="118.375" fill="#3F4142" width="7.5" height="3.75"/><rect x="180" y="125.875" fill="#3F4142" width="37.5" height="3.75"/><rect x="180" y="133.375" fill="#3F4142" width="22.5" height="3.75"/><rect x="180" y="95.875" fill="#3F4142" width="37.5" height="3.75"/><path fill="#D8D5CA" d="M188.787 150.25c.989 2.794 2.51 5.336 4.447 7.5h33.532c1.937-2.164 3.458-4.706 4.447-7.5h-42.426z"/><path fill="#161B20" d="M231.213 150.25c.83-2.346 1.287-4.869 1.287-7.5 0-12.426-10.074-22.5-22.5-22.5s-22.5 10.074-22.5 22.5c0 2.631.457 5.154 1.287 7.5h42.426z"/><path fill="#EDE9DD" d="M210 139c0 2.062-1.688 3.75-3.75 3.75h-157.5c-2.063 0-3.75-1.688-3.75-3.75v-120c0-2.062 1.687-3.75 3.75-3.75h157.5c2.062 0 3.75 1.688 3.75 3.75v120z"/><path fill="#D8D5CA" d="M48.75 15.25c-2.063 0-3.75 1.688-3.75 3.75v116.25h123.75c2.062 0 3.75-1.688 3.75-3.75v-116.25h-123.75z"/><rect x="52.5" y="37.75" fill="#41456E" width="150" height="97.5"/><rect x="52.5" y="22.75" fill="#fff" width="120" height="7.5"/><rect x="180" y="22.75" fill="#D8D5CA" width="22.5" height="7.5"/><rect x="127.5" y="37.75" fill="#3F4142" width="75" height="97.5"/><rect x="60" y="45.25" fill="#B24526" width="30" height="7.5"/><rect x="60" y="58.375" fill="#B24526" width="60" height="3.75"/><rect x="60" y="65.875" fill="#B24526" width="45" height="3.75"/><path fill="#EA7349" d="M120 100c0 .825-.675 1.5-1.5 1.5h-57c-.825 0-1.5-.675-1.5-1.5v-19.5c0-.825.675-1.5 1.5-1.5h57c.825 0 1.5.675 1.5 1.5v19.5z"/><path fill="#161B20" d="M172.5 131.5v-93.75h-45v97.5h41.25c2.062 0 3.75-1.688 3.75-3.75z"/><path fill="#EA7349" d="M120 126.25c0 .825-.675 1.5-1.5 1.5h-57c-.825 0-1.5-.675-1.5-1.5v-19.5c0-.825.675-1.5 1.5-1.5h57c.825 0 1.5.675 1.5 1.5v19.5z"/><rect x="135" y="43.375" fill="#585A5B" width="30" height="3.75"/><rect x="135" y="50.875" fill="#585A5B" width="60" height="3.75"/><rect x="135" y="80.875" fill="#585A5B" width="45" height="3.75"/><rect x="135" y="118.375" fill="#585A5B" width="22.5" height="3.75"/><rect x="135" y="110.875" fill="#585A5B" width="45" height="3.75"/><rect x="150" y="58.375" fill="#585A5B" width="30" height="3.75"/><rect x="150" y="73.375" fill="#585A5B" width="30" height="3.75"/><rect x="165" y="95.875" fill="#585A5B" width="30" height="3.75"/><rect x="165" y="103.375" fill="#585A5B" width="22.5" height="3.75"/><rect x="150" y="65.875" fill="#585A5B" width="22.5" height="3.75"/><rect x="52.5" y="22.75" fill="#EDE9DD" width="120" height="7.5"/><rect x="135" y="43.375" fill="#3F4142" width="30" height="3.75"/><rect x="135" y="50.875" fill="#3F4142" width="37.5" height="3.75"/><rect x="150" y="58.375" fill="#3F4142" width="22.5" height="3.75"/><rect x="150" y="65.875" fill="#3F4142" width="22.5" height="3.75"/><rect x="150" y="73.375" fill="#3F4142" width="22.5" height="3.75"/><rect x="165" y="95.875" fill="#3F4142" width="7.5" height="3.75"/><rect x="165" y="103.375" fill="#3F4142" width="7.5" height="3.75"/><rect x="135" y="110.875" fill="#3F4142" width="37.5" height="3.75"/><rect x="135" y="118.375" fill="#3F4142" width="22.5" height="3.75"/><rect x="135" y="80.875" fill="#3F4142" width="37.5" height="3.75"/><path fill="#EDE9DD" d="M165 124c0 2.062-1.688 3.75-3.75 3.75h-157.5c-2.063 0-3.75-1.688-3.75-3.75v-120c0-2.062 1.687-3.75 3.75-3.75h157.5c2.062 0 3.75 1.688 3.75 3.75v120z"/><rect x="7.5" y="22.75" fill="#DA613A" width="150" height="97.5"/><rect x="7.5" y="7.75" fill="#fff" width="120" height="7.5"/><rect x="135" y="7.75" fill="#D8D5CA" width="22.5" height="7.5"/><rect x="82.5" y="22.75" fill="#3F4142" width="75" height="97.5"/><rect x="15" y="30.25" fill="#B24526" width="30" height="7.5"/><rect x="15" y="43.375" fill="#B24526" width="60" height="3.75"/><rect x="15" y="50.875" fill="#B24526" width="45" height="3.75"/><path fill="#EA7349" d="M75 85c0 .825-.675 1.5-1.5 1.5h-57c-.825 0-1.5-.675-1.5-1.5v-19.5c0-.825.675-1.5 1.5-1.5h57c.825 0 1.5.675 1.5 1.5v19.5z"/><path fill="#EA7349" d="M75 111.25c0 .825-.675 1.5-1.5 1.5h-57c-.825 0-1.5-.675-1.5-1.5v-19.5c0-.825.675-1.5 1.5-1.5h57c.825 0 1.5.675 1.5 1.5v19.5z"/><rect x="90" y="28.375" fill="#585A5B" width="30" height="3.75"/><rect x="90" y="35.875" fill="#585A5B" width="60" height="3.75"/><rect x="90" y="65.875" fill="#585A5B" width="45" height="3.75"/><rect x="90" y="103.375" fill="#585A5B" width="22.5" height="3.75"/><rect x="90" y="95.875" fill="#585A5B" width="45" height="3.75"/><rect x="105" y="43.375" fill="#585A5B" width="30" height="3.75"/><rect x="105" y="73.375" fill="#585A5B" width="22.5" height="3.75"/><rect x="105" y="58.375" fill="#585A5B" width="30" height="3.75"/><rect x="120" y="80.875" fill="#585A5B" width="30" height="3.75"/><rect x="120" y="88.375" fill="#585A5B" width="22.5" height="3.75"/><rect x="105" y="50.875" fill="#585A5B" width="22.5" height="3.75"/><rect x="195" y="97.75" fill="#161B20" width="7.5" height="22.5"/><rect x="202.5" y="97.75" fill="#D8D5CA" width="7.5" height="30"/><rect x="157.5" y="92.25" fill="#D7A628" width="22.5" height="65.5"/><rect x="165" y="92.25" fill="#F2C444" width="7.5" height="65.5"/><rect x="180" y="92.25" fill="#C2902A" width="22.5" height="65.5"/><rect x="157.5" y="124.125" fill="#C2902A" width="7.5" height="3.75"/><rect x="165" y="124.125" fill="#D7A628" width="7.5" height="3.75"/><rect x="172.5" y="124.125" fill="#C2902A" width="7.5" height="3.75"/><rect x="180" y="124.125" fill="#AA7825" width="22.5" height="3.75"/><rect x="157.5" y="112.875" fill="#C2902A" width="7.5" height="3.75"/><rect x="165" y="112.875" fill="#D7A628" width="7.5" height="3.75"/><rect x="172.5" y="112.875" fill="#C2902A" width="7.5" height="3.75"/><rect x="180" y="112.875" fill="#AA7825" width="22.5" height="3.75"/><rect x="157.5" y="101.625" fill="#C2902A" width="7.5" height="3.75"/><rect x="165" y="101.625" fill="#D7A628" width="7.5" height="3.75"/><rect x="172.5" y="101.625" fill="#C2902A" width="7.5" height="3.75"/><rect x="180" y="101.625" fill="#AA7825" width="22.5" height="3.75"/><rect x="180" y="135.375" fill="#AA7825" width="22.5" height="3.75"/><rect x="157.5" y="135.375" fill="#C2902A" width="7.5" height="3.75"/><rect x="165" y="135.375" fill="#D7A628" width="7.5" height="3.75"/><rect x="172.5" y="135.375" fill="#C2902A" width="7.5" height="3.75"/><rect x="180" y="146.625" fill="#AA7825" width="22.5" height="3.75"/><rect x="157.5" y="146.625" fill="#C2902A" width="7.5" height="3.75"/><rect x="165" y="146.625" fill="#D7A628" width="7.5" height="3.75"/><rect x="172.5" y="146.625" fill="#C2902A" width="7.5" height="3.75"/><circle fill="#D7A628" cx="202.5" cy="135.25" r="22.5"/><circle fill="#C2902A" cx="202.5" cy="135.25" r="15"/><path fill="#C2902A" d="M187.5 152.016c2.164 1.937 4.705 3.46 7.5 4.448v-42.429c-2.795.988-5.336 2.511-7.5 4.448v33.533z"/><path fill="#AA7825" d="M195 148.227v-25.954c-4.479 2.595-7.5 7.428-7.5 12.977s3.021 10.382 7.5 12.977z"/><rect x="142.5" y="112.75" fill="#D7A628" width="22.5" height="45"/><rect x="150" y="112.75" fill="#F2C444" width="7.5" height="45"/><rect x="165" y="112.75" fill="#C2902A" width="22.5" height="45"/><rect x="142.5" y="122.125" fill="#C2902A" width="7.5" height="3.75"/><rect x="150" y="122.125" fill="#D7A628" width="7.5" height="3.75"/><rect x="157.5" y="122.125" fill="#C2902A" width="7.5" height="3.75"/><rect x="165" y="122.125" fill="#AA7825" width="22.5" height="3.75"/><rect x="165" y="133.375" fill="#AA7825" width="22.5" height="3.75"/><rect x="142.5" y="133.375" fill="#C2902A" width="7.5" height="3.75"/><rect x="150" y="133.375" fill="#D7A628" width="7.5" height="3.75"/><rect x="157.5" y="133.375" fill="#C2902A" width="7.5" height="3.75"/><rect x="165" y="144.625" fill="#AA7825" width="22.5" height="3.75"/><rect x="142.5" y="144.625" fill="#C2902A" width="7.5" height="3.75"/><rect x="150" y="144.625" fill="#D7A628" width="7.5" height="3.75"/><rect x="157.5" y="144.625" fill="#C2902A" width="7.5" height="3.75"/><path fill="#fff" d="M202.5 120.25c-4.142 0-7.5-3.358-7.5-7.5 0 4.142-3.358 7.5-7.5 7.5 4.142 0 7.5 3.358 7.5 7.5 0-4.142 3.358-7.5 7.5-7.5z"/><path fill="#fff" d="M183.75 112.75c-2.071 0-3.75-1.679-3.75-3.75 0 2.071-1.679 3.75-3.75 3.75 2.071 0 3.75 1.679 3.75 3.75 0-2.071 1.679-3.75 3.75-3.75z"/></svg>