<svg xmlns="http://www.w3.org/2000/svg" width="240" height="150"><circle fill="#F2C444" cx="60" cy="75" r="60"/><circle fill="#C2902A" cx="60" cy="75" r="52.5"/><path fill="#D7A628" d="M37.5 60v30h-27.814c-1.415-4.754-2.186-9.786-2.186-15s.771-10.246 2.186-15h27.814z"/><circle fill="#F2C444" cx="60" cy="75" r="37.5"/><circle fill="#D7A628" cx="60" cy="75" r="30"/><circle fill="#F2C444" cx="15" cy="75" r="3.75"/><circle fill="#DA613A" cx="180" cy="75" r="60"/><path fill="#B24526" d="M173.044 15.414c-29.858 3.449-53.044 28.803-53.044 59.586s23.186 56.137 53.044 59.586c17.905-13.706 29.456-35.296 29.456-59.586s-11.551-45.88-29.456-59.586z"/><circle fill="#85331D" cx="180" cy="75" r="52.5"/><path fill="#712613" d="M127.5 75c0 28.995 23.505 52.5 52.5 52.5.361 0 .718-.02 1.077-.027 13.25-13.526 21.423-32.043 21.423-52.473s-8.173-38.947-21.423-52.473c-.36-.007-.716-.027-1.077-.027-28.995 0-52.5 23.505-52.5 52.5z"/><path fill="#B24526" d="M202.5 60v30h27.814c1.415-4.754 2.186-9.786 2.186-15s-.771-10.246-2.186-15h-27.814z"/><circle fill="#DA613A" cx="180" cy="75" r="37.5"/><circle fill="#B24526" cx="180" cy="75" r="30"/><path fill="#B24526" d="M142.5 75c0 20.711 16.789 37.5 37.5 37.5 4.927 0 9.627-.96 13.936-2.687 5.465-10.404 8.564-22.245 8.564-34.813s-3.099-24.409-8.564-34.813c-4.31-1.727-9.01-2.687-13.936-2.687-20.711 0-37.5 16.789-37.5 37.5z"/><path fill="#85331D" d="M198.773 98.393c2.415-7.361 3.727-15.223 3.727-23.393s-1.312-16.032-3.727-23.393c-5.141-4.13-11.666-6.607-18.773-6.607-16.568 0-30 13.432-30 30s13.432 30 30 30c7.107 0 13.632-2.477 18.773-6.607z"/><circle fill="#70C196" cx="120" cy="75" r="75"/><circle fill="#228063" cx="120" cy="75" r="67.5"/><path fill="#31A480" d="M90 97.5v-45h-33.654c-2.488 7.038-3.846 14.61-3.846 22.5s1.358 15.462 3.846 22.5h33.654z"/><path fill="#31A480" d="M150 97.5v-45h33.654c2.488 7.038 3.846 14.61 3.846 22.5s-1.358 15.462-3.846 22.5h-33.654z"/><circle fill="#70C196" cx="120" cy="75" r="45"/><circle fill="#31A480" cx="120" cy="75" r="37.5"/><polygon fill="#70C196" points="120,45 126.735,65.729 148.532,65.729 130.898,78.541 137.634,99.271 120,86.459 102.366,99.271 109.102,78.541 91.468,65.729 113.265,65.729"/><g fill="#31A480"><path d="M153.852 128.838s-5.413-6.557-9.769-1.517c2.622 6.123 9.769 1.517 9.769 1.517z"/><path d="M144.923 119.076s-5.636 6.365.019 9.885c5.642-3.54-.019-9.885-.019-9.885z"/><path d="M160.136 123.989s-6.228-5.789-9.883-.221c3.403 5.726 9.883.221 9.883.221z"/><path d="M150.778 114.638s-6.343 5.662-1.138 9.819c6.018-2.856 1.138-9.819 1.138-9.819z"/><path d="M166.123 117.204s-7.354-4.268-9.687 1.971c4.585 4.831 9.687-1.971 9.687-1.971z"/><path d="M156.736 109.87s-6.513 5.466-1.438 9.78c6.102-2.671 1.438-9.78 1.438-9.78z"/><path d="M163.43 104.554s-7.274 4.404-2.92 9.445c6.44-1.705 2.92-9.445 2.92-9.445z"/><path d="M172.496 99.987s-8.393 1.359-6.245 7.664c6.61.831 6.245-7.664 6.245-7.664z"/><path d="M170.41 110.399s-7.804-3.375-9.389 3.094c5.122 4.261 9.389-3.094 9.389-3.094z"/><path d="M170.41 110.399s-3.918 7.042-9.9 3.6l3.831-4.238 6.069.638z"/><path d="M166.123 117.204s-4.914 6.884-10.825 2.447l.91-2.02 3.299.388 6.616-.815z"/><path d="M160.136 123.989s-6.208 5.316-10.496.469l.335-1.344 6.699.983 3.462-.108z"/><path d="M86.072 128.838s5.413-6.557 9.769-1.517c-2.623 6.123-9.769 1.517-9.769 1.517z"/><path d="M95.001 119.076s5.636 6.365-.019 9.885c-5.643-3.54.019-9.885.019-9.885z"/><path d="M79.787 123.989s6.228-5.789 9.883-.22c-3.402 5.725-9.883.22-9.883.22z"/><path d="M89.145 114.638s6.343 5.662 1.138 9.819c-6.018-2.856-1.138-9.819-1.138-9.819z"/><path d="M73.8 117.204s7.355-4.269 9.688 1.971c-4.586 4.831-9.688-1.971-9.688-1.971z"/><path d="M83.188 109.87s6.513 5.466 1.438 9.78c-6.103-2.671-1.438-9.78-1.438-9.78z"/><path d="M76.494 104.554s7.274 4.404 2.92 9.445c-6.44-1.705-2.92-9.445-2.92-9.445z"/><path d="M67.427 99.987s8.394 1.359 6.245 7.664c-6.61.831-6.245-7.664-6.245-7.664z"/><path d="M69.514 110.399s7.803-3.375 9.389 3.094c-5.123 4.261-9.389-3.094-9.389-3.094z"/><path d="M69.514 110.399s3.918 7.042 9.9 3.6l-3.831-4.238-6.069.638z"/><path d="M73.8 117.204s4.914 6.884 10.825 2.447l-.91-2.02-3.299.388-6.616-.815z"/><path d="M79.787 123.989s6.208 5.316 10.496.469l-.335-1.344-6.699.983-3.462-.108z"/></g><g fill="#31A480"><path d="M86.072 20.412s5.413 6.557 9.769 1.517c-2.623-6.123-9.769-1.517-9.769-1.517z"/><path d="M95.001 30.174s5.636-6.365-.019-9.885c-5.643 3.54.019 9.885.019 9.885z"/><path d="M79.787 25.261s6.228 5.789 9.883.221c-3.403-5.726-9.883-.221-9.883-.221z"/><path d="M89.145 34.612s6.343-5.662 1.138-9.819c-6.017 2.856-1.138 9.819-1.138 9.819z"/><path d="M73.8 32.046s7.354 4.268 9.687-1.971c-4.585-4.831-9.687 1.971-9.687 1.971z"/><path d="M83.188 39.38s6.513-5.466 1.438-9.78c-6.103 2.671-1.438 9.78-1.438 9.78z"/><path d="M76.494 44.696s7.274-4.404 2.92-9.445c-6.44 1.705-2.92 9.445-2.92 9.445z"/><path d="M67.427 49.263s8.393-1.359 6.245-7.664c-6.61-.831-6.245 7.664-6.245 7.664z"/><path d="M69.513 38.851s7.804 3.375 9.389-3.094c-5.122-4.261-9.389 3.094-9.389 3.094z"/><path d="M69.513 38.851s3.918-7.042 9.9-3.6l-3.831 4.238-6.069-.638z"/><path d="M73.8 32.046s4.914-6.884 10.825-2.447l-.91 2.02-3.299-.388-6.616.815z"/><path d="M79.787 25.261s6.208-5.316 10.496-.469l-.335 1.344-6.699-.983-3.462.108z"/><path d="M153.852 20.412s-5.413 6.557-9.769 1.517c2.622-6.123 9.769-1.517 9.769-1.517z"/><path d="M144.923 30.174s-5.636-6.365.019-9.885c5.642 3.54-.019 9.885-.019 9.885z"/><path d="M160.136 25.261s-6.228 5.789-9.883.22c3.403-5.725 9.883-.22 9.883-.22z"/><path d="M150.778 34.612s-6.343-5.662-1.138-9.819c6.018 2.856 1.138 9.819 1.138 9.819z"/><path d="M166.123 32.046s-7.355 4.269-9.688-1.971c4.586-4.831 9.688 1.971 9.688 1.971z"/><path d="M156.736 39.38s-6.513-5.466-1.438-9.78c6.103 2.671 1.438 9.78 1.438 9.78z"/><path d="M163.43 44.696s-7.274-4.404-2.92-9.445c6.44 1.705 2.92 9.445 2.92 9.445z"/><path d="M172.496 49.263s-8.394-1.359-6.245-7.664c6.61-.831 6.245 7.664 6.245 7.664z"/><path d="M170.41 38.851s-7.803 3.375-9.389-3.094c5.122-4.261 9.389 3.094 9.389 3.094z"/><path d="M170.41 38.851s-3.918-7.042-9.9-3.6l3.831 4.238 6.069-.638z"/><path d="M166.123 32.046s-4.914-6.884-10.825-2.447l.91 2.02 3.299-.388 6.616.815z"/><path d="M160.136 25.261s-6.208-5.316-10.496-.469l.335 1.344 6.699-.983 3.462.108z"/></g><circle fill="#31A480" cx="120" cy="131.25" r="3.75"/><circle fill="#31A480" cx="120" cy="18.75" r="3.75"/><circle fill="#70C196" cx="176.25" cy="75" r="3.75"/><circle fill="#DA613A" cx="225" cy="75" r="3.75"/><circle fill="#70C196" cx="63.75" cy="75" r="3.75"/></svg>