<svg xmlns="http://www.w3.org/2000/svg" width="165" height="270"><path fill="#6E6F71" d="M10 70c-5.523 0-10 4.477-10 10 10 0 10 20 10 20h5v-20h5v-10h-10z"/><rect x="10" y="60" fill="#6E6F71" width="120" height="10"/><path fill="#6E6F71" d="M95 30h-50c-16.568 0-30 13.431-30 30h110c0-16.569-13.432-30-30-30z"/><path fill="#3E4142" d="M16.714 50c-1.106 3.128-1.714 6.493-1.714 10h110c0-3.507-.608-6.872-1.714-10h-106.572z"/><circle fill="#6E6F71" cx="70" cy="15" r="15"/><path fill="#3E4142" d="M55 15c0 8.284 6.716 15 15 15s15-6.716 15-15h-30z"/><rect x="53" y="10" fill="#6E6F71" width="34" height="10"/><rect x="15" y="70" fill="#3E4142" width="110" height="20"/><rect x="15" y="70" fill="#161B20" width="110" height="10"/><rect x="30" y="70" fill="#3E4142" width="20" height="10"/><rect x="30" y="80" fill="#6E6F71" width="20" height="10"/><rect x="10" y="90" fill="#6E6F71" width="120" height="30"/><rect x="20" y="90" fill="#87888B" width="20" height="30"/><g fill="#6E6F71"><circle cx="20" cy="265" r="5"/><circle cx="120" cy="265" r="5"/><rect x="20" y="120" width="100" height="150"/><rect x="15" y="120" width="110" height="145"/></g><rect x="15" y="120" fill="#3E4142" width="110" height="10"/><rect x="20" y="120" fill="#161B20" width="100" height="140"/><rect x="30" y="130" fill="#3E4142" width="20" height="130"/><circle stroke="#3E4142" stroke-width="2" stroke-miterlimit="10" cx="75" cy="175" r="5" fill="none"/><circle stroke="#3E4142" stroke-width="2" stroke-miterlimit="10" cx="105" cy="205" r="5" fill="none"/><circle stroke="#3E4142" stroke-width="2" stroke-miterlimit="10" cx="62.5" cy="142.5" r="2.5" fill="none"/><circle stroke="#6E6F71" stroke-width="2" stroke-miterlimit="10" cx="37.5" cy="192.5" r="2.5" fill="none"/><rect x="10" y="220" fill="#6E6F71" width="120" height="30"/><rect x="20" y="220" fill="#87888B" width="20" height="30"/><path fill="#3E4142" d="M135 90v20c5.523 0 10 4.477 10 10v100c0 5.523-4.477 10-10 10v20c16.568 0 30-13.432 30-30v-100c0-16.569-13.432-30-30-30z"/><rect x="130" y="90" fill="#87888B" width="5" height="25"/><rect x="130" y="225" fill="#87888B" width="5" height="25"/></svg>