<svg xmlns="http://www.w3.org/2000/svg" width="190" height="210"><path fill="#3E4142" d="M190 200c0 5.5-4.5 10-10 10h-170c-5.5 0-10-4.5-10-10v-170c0-5.5 4.5-10 10-10h170c5.5 0 10 4.5 10 10v170z"/><rect x="15" fill="#6E6F71" width="160" height="40"/><rect x="15" y="40" fill="#87888B" width="160" height="110"/><rect x="15" y="150" fill="#6E6F71" width="160" height="60"/><line stroke="#3E4142" stroke-width="2" stroke-miterlimit="10" x1="15" y1="160" x2="175" y2="160" fill="none"/><line stroke="#3E4142" stroke-width="2" stroke-miterlimit="10" x1="15" y1="170" x2="175" y2="170" fill="none"/><line stroke="#3E4142" stroke-width="2" stroke-miterlimit="10" x1="15" y1="180" x2="175" y2="180" fill="none"/><line stroke="#3E4142" stroke-width="2" stroke-miterlimit="10" x1="15" y1="190" x2="175" y2="190" fill="none"/><line stroke="#3E4142" stroke-width="2" stroke-miterlimit="10" x1="15" y1="200" x2="175" y2="200" fill="none"/><path fill="#6E6F71" d="M153 57v76h-116v-76h116m2-2h-120v80h120v-80z"/><line stroke="#6E6F71" stroke-width="2" stroke-miterlimit="10" x1="55" y1="55" x2="55" y2="135" fill="none"/><line stroke="#6E6F71" stroke-width="2" stroke-miterlimit="10" x1="75" y1="55" x2="75" y2="135" fill="none"/><line stroke="#6E6F71" stroke-width="2" stroke-miterlimit="10" x1="95" y1="55" x2="95" y2="135" fill="none"/><line stroke="#6E6F71" stroke-width="2" stroke-miterlimit="10" x1="115" y1="55" x2="115" y2="135" fill="none"/><line stroke="#6E6F71" stroke-width="2" stroke-miterlimit="10" x1="135" y1="55" x2="135" y2="135" fill="none"/><line stroke="#6E6F71" stroke-width="2" stroke-miterlimit="10" x1="35" y1="75" x2="155" y2="75" fill="none"/><line stroke="#6E6F71" stroke-width="2" stroke-miterlimit="10" x1="35" y1="95" x2="155" y2="95" fill="none"/><line stroke="#6E6F71" stroke-width="2" stroke-miterlimit="10" x1="35" y1="115" x2="155" y2="115" fill="none"/><g fill="#3E4142"><path d="M35 12.5c-.66 0-1.3-.27-1.77-.73-.46-.47-.73-1.11-.73-1.77 0-.66.27-1.3.73-1.77.93-.93 2.61-.93 3.54 0 .46.47.73 1.11.73 1.77 0 .66-.27 1.3-.73 1.77-.47.46-1.11.73-1.77.73z"/><path d="M128.5 10c0-1.38 1.12-2.5 2.5-2.5s2.5 1.12 2.5 2.5-1.12 2.5-2.5 2.5-2.5-1.12-2.5-2.5zm-24 0c0-1.38 1.12-2.5 2.5-2.5s2.5 1.12 2.5 2.5-1.12 2.5-2.5 2.5-2.5-1.12-2.5-2.5zm-24 0c0-1.38 1.12-2.5 2.5-2.5s2.5 1.12 2.5 2.5-1.12 2.5-2.5 2.5-2.5-1.12-2.5-2.5zm-24 0c0-1.38 1.12-2.5 2.5-2.5s2.5 1.12 2.5 2.5-1.12 2.5-2.5 2.5-2.5-1.12-2.5-2.5z"/><path d="M155 12.5c-.66 0-1.3-.27-1.77-.73-.46-.47-.73-1.11-.73-1.77 0-.66.27-1.3.73-1.77.93-.93 2.61-.93 3.54 0 .46.47.73 1.11.73 1.77 0 .66-.27 1.3-.73 1.77-.47.46-1.11.73-1.77.73z"/></g><rect x="175" fill="#161B20" width="5" height="200"/></svg>