<svg xmlns="http://www.w3.org/2000/svg" width="280" height="370"><rect x="122.218" y="152.929" transform="matrix(-.707 .707 -.707 -.707 454.558 131.716)" fill="#6E6F71" width="155.563" height="14.142"/><rect x="132.218" y="162.929" transform="matrix(-.707 .707 -.707 -.707 478.701 141.716)" fill="#3E4142" width="155.563" height="14.142"/><rect x="2.218" y="152.929" transform="matrix(.707 .707 -.707 .707 136.569 -9.706)" fill="#6E6F71" width="155.563" height="14.142"/><rect x="-7.782" y="162.929" transform="matrix(.707 .707 -.707 .707 140.711 .294)" fill="#3E4142" width="155.563" height="14.142"/><path fill="#87888B" d="M140 90c-22.091 0-40-17.909-40-40s17.909-40 40-40v-10c-27.614 0-50 22.386-50 50s22.386 50 50 50v-10z"/><path fill="#6E6F71" d="M140 90c22.091 0 40-17.909 40-40s-17.909-40-40-40v-10c27.614 0 50 22.386 50 50s-22.386 50-50 50v-10z"/><rect x="130" y="65" fill="#6E6F71" width="10" height="35"/><rect x="140" y="65" fill="#3E4142" width="10" height="35"/><circle fill="#87888B" cx="140" cy="230" r="140"/><path fill="#6E6F71" d="M140 90v280c77.32 0 140-62.68 140-140s-62.68-140-140-140z"/><circle fill="#3E4142" cx="140" cy="230" r="100"/><path fill="#6E6F71" d="M40 230c0 55.229 44.771 100 100 100v-200c-55.229 0-100 44.771-100 100z"/><path fill="#3E4142" d="M140 140c53.552 0 97.27 42.095 99.875 95 .082-1.656.125-3.323.125-5 0-55.229-44.771-100-100-100s-100 44.771-100 100c0 1.677.043 3.344.125 5 2.605-52.905 46.323-95 99.875-95z"/><path stroke="#6E6F71" stroke-width="2" stroke-miterlimit="10" d="M140 340c-60.751 0-110-49.249-110-110s49.249-110 110-110" fill="none"/><path stroke="#3E4142" stroke-width="2" stroke-miterlimit="10" d="M140 340c60.751 0 110-49.249 110-110s-49.249-110-110-110" fill="none"/><circle fill="#161B20" cx="140" cy="230" r="10"/><path fill="#161B20" d="M140 130v10c53.552 0 97.27 42.095 99.875 95 .082-1.656.125-3.323.125-5 0-55.229-44.771-100-100-100z"/><line stroke="#161B20" stroke-width="10" stroke-miterlimit="10" x1="140" y1="230" x2="85" y2="175" fill="none"/><polygon fill="#161B20" points="92.292,171.009 76.881,166.881 81.009,182.292"/><path fill="#161B20" d="M180.692 304.644l-4.796-8.775c.547-.299 1.089-.604 1.628-.916l5.009 8.655c-.609.353-1.222.698-1.841 1.036zm-83.14-.986c-.614-.354-1.222-.716-1.826-1.085l5.216-8.532c.532.325 1.069.644 1.609.956l-4.999 8.661zm114.993-29.339l-8.529-5.222c.326-.532.645-1.068.958-1.609l8.657 5.006c-.354.613-.716 1.221-1.086 1.825zm-146.126-1.739c-.354-.609-.7-1.224-1.039-1.843l8.773-4.799c.299.546.604 1.087.915 1.625l-8.649 5.017zm158.555-40.462l-9.997-.247c.015-.622.023-1.245.023-1.871v-.176l10-.038v.214c0 .708-.009 1.414-.026 2.118zm-169.974-2.02v-.098c0-.673.008-1.345.024-2.015l9.997.236c-.014.591-.021 1.185-.021 1.779l-10 .098zm150.802-36.115c-.3-.546-.605-1.088-.918-1.625l8.645-5.026c.354.609.7 1.222 1.04 1.84l-8.767 4.811zm-130.822-1.392l-8.663-4.995c.354-.614.715-1.223 1.084-1.827l8.534 5.213c-.325.532-.643 1.069-.955 1.609zm103.999-26.68c-.532-.325-1.069-.643-1.61-.954l4.991-8.666c.614.354 1.223.714 1.827 1.083l-5.208 8.537zm-76.581-.819l-5.023-8.646c.61-.354 1.224-.701 1.843-1.041l4.803 8.771c-.545.299-1.086.604-1.623.916z"/><rect x="120" y="35" fill="#87888B" width="20" height="40"/><rect x="140" y="35" fill="#6E6F71" width="20" height="40"/><rect x="130" y="75" fill="#3E4142" width="10" height="10"/><rect x="140" y="75" fill="#161B20" width="10" height="10"/><line stroke="#6E6F71" stroke-width="2" stroke-miterlimit="10" x1="130" y1="35" x2="130" y2="75" fill="none"/><line stroke="#6E6F71" stroke-width="2" stroke-miterlimit="10" x1="125" y1="35" x2="125" y2="75" fill="none"/><line stroke="#6E6F71" stroke-width="2" stroke-miterlimit="10" x1="135" y1="35" x2="135" y2="75" fill="none"/><line stroke="#3E4142" stroke-width="2" stroke-miterlimit="10" x1="145" y1="35" x2="145" y2="75" fill="none"/><line stroke="#3E4142" stroke-width="2" stroke-miterlimit="10" x1="150" y1="35" x2="150" y2="75" fill="none"/><line stroke="#3E4142" stroke-width="2" stroke-miterlimit="10" x1="155" y1="35" x2="155" y2="75" fill="none"/></svg>