<svg xmlns="http://www.w3.org/2000/svg" xmlns:xlink="http://www.w3.org/1999/xlink" width="680" height="318" viewBox="121 57 680 318" enable-background="new 121 57 680 318"><path fill="#DDDACE" d="M411.675 331.063c4.888 0 8.849 3.962 8.849 8.849v26.548c0 4.888-3.962 8.849-8.849 8.849h-110.619v-44.247h110.619z"/><rect x="239.11" y="335.488" fill="#E6E3D6" width="66.371" height="35.398"/><path fill="#E1DED3" d="M301.056 335.488h-66.371v-4.425h66.371c4.888 0 8.849 3.962 8.849 8.849v26.548c0 4.888-3.962 8.849-8.849 8.849h-66.371v-4.425h66.371c2.444 0 4.425-1.981 4.425-4.425v-26.548c0-2.442-1.981-4.423-4.425-4.423z"/><path fill="#E1DED3" d="M402.825 366.461v-26.548c0-4.888-3.962-8.849-8.849-8.849h8.849c4.888 0 8.849 3.962 8.849 8.849v26.548c0 4.888-3.962 8.849-8.849 8.849h-8.849c4.887.001 8.849-3.961 8.849-8.849z"/><path fill="#E1DED3" d="M318.755 366.461v-26.548c0-4.888-3.962-8.849-8.849-8.849h8.849c4.888 0 8.849 3.962 8.849 8.849v26.548c0 4.888-3.962 8.849-8.849 8.849h-8.849c4.887.001 8.849-3.961 8.849-8.849z"/><rect x="336.454" y="346.55" fill="#E1DED3" width="57.522" height="13.274"/><path fill="#DDDACE" d="M402.825 251.418c4.888 0 8.849 3.962 8.849 8.849v22.124c0 4.888-3.962 8.849-8.849 8.849h-101.769v-39.823h101.769z"/><rect x="252.384" y="255.843" fill="#E6E3D6" width="53.097" height="30.973"/><path fill="#E1DED3" d="M301.056 255.843h-53.097v-4.425h53.097c4.888 0 8.849 3.962 8.849 8.849v22.124c0 4.888-3.962 8.849-8.849 8.849h-53.097v-4.425h53.097c2.444 0 4.425-1.981 4.425-4.425v-22.124c0-2.443-1.981-4.423-4.425-4.423z"/><path fill="#E1DED3" d="M393.976 282.391v-22.124c0-4.888-3.962-8.849-8.849-8.849h8.849c4.888 0 8.849 3.962 8.849 8.849v22.124c0 4.888-3.962 8.849-8.849 8.849h-8.849c4.887.001 8.849-3.961 8.849-8.849z"/><path fill="#E1DED3" d="M318.755 282.391v-22.124c0-4.888-3.962-8.849-8.849-8.849h8.849c4.888 0 8.849 3.962 8.849 8.849v22.124c0 4.888-3.962 8.849-8.849 8.849h-8.849c4.887.001 8.849-3.961 8.849-8.849z"/><path fill="#E1DED3" d="M256.809 291.241c-4.888 0-8.849 3.962-8.849 8.85v22.124c0 4.888 3.962 8.849 8.849 8.849h97.344v-39.823h-97.344z"/><rect x="349.729" y="295.665" fill="#E1DED3" width="53.097" height="30.973"/><path fill="#DDDACE" d="M354.153 295.665h53.097v-4.425h-53.097c-4.888 0-8.85 3.962-8.85 8.85v22.124c0 4.888 3.962 8.849 8.85 8.849h53.097v-4.425h-53.097c-2.444 0-4.425-1.981-4.425-4.425v-22.123c0-2.444 1.981-4.425 4.425-4.425z"/><path fill="#E6E3D6" d="M261.234 322.214v-22.124c0-4.888 3.962-8.85 8.849-8.85h-4.425c-4.888 0-8.849 3.962-8.849 8.85v22.124c0 4.888 3.962 8.849 8.849 8.849h4.425c-4.888 0-8.849-3.961-8.849-8.849z"/><path fill="#E6E3D6" d="M270.083 322.214v-22.124c0-4.888 3.962-8.85 8.85-8.85h-4.425c-4.888 0-8.849 3.962-8.849 8.85v22.124c0 4.888 3.962 8.849 8.849 8.849h4.425c-4.888 0-8.85-3.961-8.85-8.849z"/><path fill="#E6E3D6" d="M336.454 322.214v-22.124c0-4.888 3.962-8.85 8.849-8.85h-4.425c-4.888 0-8.849 3.962-8.849 8.85v22.124c0 4.888 3.962 8.849 8.849 8.849h4.425c-4.887 0-8.849-3.961-8.849-8.849z"/><path fill="#E6E3D6" d="M327.605 322.214v-22.124c0-4.888 3.962-8.85 8.849-8.85h-4.425c-4.888 0-8.849 3.962-8.849 8.85v22.124c0 4.888 3.962 8.849 8.849 8.849h4.425c-4.888 0-8.849-3.961-8.849-8.849z"/><rect x="171.263" y="249.081" transform="matrix(-.581 -.814 .814 -.581 38.378 659.524)" fill="#E1DED3" width="35.401" height="141.603"/><rect x="218.107" y="282.039" transform="matrix(-.581 -.814 .814 -.581 139.638 644.819)" fill="#E6E3D6" width="35.401" height="8.85"/><rect x="207.297" y="289.75" transform="matrix(-.581 -.814 .814 -.581 116.27 648.211)" fill="#E6E3D6" width="35.401" height="8.85"/><rect x="135.229" y="341.164" transform="matrix(-.581 -.814 .814 -.581 -39.513 670.836)" fill="#E6E3D6" width="35.401" height="8.85"/><rect x="124.418" y="348.876" transform="matrix(-.581 -.814 .814 -.581 -62.882 674.229)" fill="#E6E3D6" width="35.401" height="8.85"/><rect x="743.531" y="233.719" fill="#E1DED3" width="35.398" height="141.592"/><rect x="743.531" y="242.568" fill="#E6E3D6" width="35.398" height="8.849"/><rect x="743.531" y="255.843" fill="#E6E3D6" width="35.398" height="8.849"/><rect x="743.531" y="344.337" fill="#E6E3D6" width="35.398" height="8.849"/><rect x="743.531" y="357.612" fill="#E6E3D6" width="35.398" height="8.849"/><rect x="778.929" y="251.418" fill="#E6E3D6" width="22.124" height="123.893"/><rect x="787.778" y="282.391" fill="#E1DED3" width="4.425" height="61.946"/><path fill="#DDDACE" d="M743.531 335.488c4.888 0 8.849 3.962 8.849 8.849v22.124c0 4.888-3.962 8.849-8.849 8.849h-101.769v-39.823h101.769z"/><rect x="593.089" y="339.913" fill="#E6E3D6" width="53.097" height="30.973"/><path fill="#E1DED3" d="M641.762 339.913h-53.097v-4.425h53.097c4.888 0 8.849 3.962 8.849 8.849v22.124c0 4.888-3.962 8.849-8.849 8.849h-53.097v-4.425h53.097c2.444 0 4.425-1.981 4.425-4.425v-22.124c-.001-2.442-1.981-4.423-4.425-4.423z"/><path fill="#E1DED3" d="M734.681 366.461v-22.124c0-4.888-3.962-8.849-8.849-8.849h8.849c4.888 0 8.849 3.962 8.849 8.849v22.124c0 4.888-3.962 8.849-8.849 8.849h-8.849c4.887.001 8.849-3.961 8.849-8.849z"/><path fill="#E1DED3" d="M659.461 366.461v-22.124c0-4.888-3.962-8.849-8.849-8.849h8.849c4.888 0 8.849 3.962 8.849 8.849v22.124c0 4.888-3.962 8.849-8.849 8.849h-8.849c4.886.001 8.849-3.961 8.849-8.849z"/><path fill="#E1DED3" d="M601.939 291.241c-4.888 0-8.849 3.962-8.849 8.85v26.548c0 4.888 3.962 8.849 8.849 8.849h97.344v-44.247h-97.344z"/><rect x="694.859" y="295.665" fill="#E1DED3" width="53.097" height="35.398"/><path fill="#DDDACE" d="M699.283 295.665h53.097v-4.425h-53.097c-4.888 0-8.849 3.962-8.849 8.85v26.548c0 4.888 3.962 8.849 8.849 8.849h53.097v-4.425h-53.097c-2.444 0-4.425-1.981-4.425-4.425v-26.547c.001-2.444 1.981-4.425 4.425-4.425z"/><path fill="#E6E3D6" d="M610.788 326.638v-26.548c0-4.888 3.962-8.85 8.849-8.85h-8.849c-4.888 0-8.849 3.962-8.849 8.85v26.548c0 4.888 3.962 8.849 8.849 8.849h8.849c-4.887.001-8.849-3.961-8.849-8.849z"/><path fill="#E6E3D6" d="M681.584 326.638v-26.548c0-4.888 3.962-8.85 8.849-8.85h-8.849c-4.888 0-8.849 3.962-8.849 8.85v26.548c0 4.888 3.962 8.849 8.849 8.849h8.849c-4.887.001-8.849-3.961-8.849-8.849z"/><defs><circle id="a" cx="539.993" cy="193.896" r="8.849"/></defs><clipPath id="b"><use xlink:href="#a" overflow="visible"/></clipPath><g clip-path="url(#b)"><rect x="531.143" y="185.047" fill="#D7A628" width="8.849" height="17.699"/><rect x="539.992" y="185.047" fill="#3F4142" width="8.849" height="17.699"/></g><path opacity=".25" fill="#161B20" enable-background="new" d="M545.042 186.634c.999 1.433 1.588 3.171 1.588 5.049 0 4.887-3.962 8.849-8.849 8.849-1.878 0-3.617-.589-5.049-1.588 1.599 2.295 4.253 3.8 7.262 3.8 4.887 0 8.849-3.962 8.849-8.849-.001-3.008-1.506-5.662-3.801-7.261z"/><circle opacity=".25" fill="#EDE9DD" enable-background="new" cx="536.453" cy="190.356" r="1.106"/><defs><circle id="c" cx="455.922" cy="65.579" r="8.849"/></defs><clipPath id="d"><use xlink:href="#c" overflow="visible"/></clipPath><g clip-path="url(#d)"><rect x="447.073" y="56.729" fill="#D7A628" width="8.849" height="17.699"/><rect x="455.922" y="56.729" fill="#3F4142" width="8.849" height="17.699"/></g><path opacity=".25" fill="#161B20" enable-background="new" d="M460.972 58.317c.999 1.433 1.588 3.171 1.588 5.049 0 4.887-3.962 8.849-8.849 8.849-1.878 0-3.617-.589-5.049-1.588 1.599 2.295 4.253 3.8 7.262 3.8 4.887 0 8.849-3.962 8.849-8.849-.001-3.008-1.506-5.662-3.801-7.261z"/><circle opacity=".25" fill="#EDE9DD" enable-background="new" cx="452.383" cy="62.039" r="1.106"/><defs><circle id="e" cx="637.337" cy="300.09" r="8.849"/></defs><clipPath id="f"><use xlink:href="#e" overflow="visible"/></clipPath><g clip-path="url(#f)"><rect x="628.487" y="291.241" fill="#B24526" width="8.849" height="17.699"/><rect x="637.337" y="291.241" fill="#3F4142" width="8.849" height="17.699"/></g><path opacity=".25" fill="#161B20" enable-background="new" d="M642.386 292.828c.998 1.433 1.588 3.171 1.588 5.049 0 4.887-3.962 8.849-8.849 8.849-1.878 0-3.617-.589-5.049-1.588 1.599 2.295 4.253 3.8 7.262 3.8 4.887 0 8.849-3.962 8.849-8.849-.001-3.008-1.506-5.662-3.801-7.261z"/><circle opacity=".25" fill="#EDE9DD" enable-background="new" cx="633.797" cy="296.55" r="1.106"/><path fill="#ACABA3" d="M336.454 357.612c0 9.775 7.924 17.699 17.699 17.699h265.485c9.775 0 17.699-7.924 17.699-17.699h-300.883z"/><path fill="#97968F" d="M504.595 357.612h-44.247c0 4.887 3.962 8.849 8.849 8.849h35.398c4.887 0 8.849-3.962 8.849-8.849h-8.849z"/><path fill="#F6F5ED" d="M601.939 198.321h-230.087c-9.775 0-17.699 7.925-17.699 17.699v141.592h265.485v-141.592c0-9.774-7.924-17.699-17.699-17.699z"/><path fill="#161B20" d="M601.939 207.17h-230.087c-4.888 0-8.849 3.962-8.849 8.849v141.592h247.786v-141.591c-.001-4.887-3.962-8.85-8.85-8.85z"/><rect x="371.852" y="224.869" fill="#585A5B" width="230.087" height="132.742"/><circle fill="#585A5B" cx="486.896" cy="216.02" r="2.212"/><rect x="371.852" y="224.869" fill="#D7A628" width="115.043" height="132.742"/><path fill="#F2C444" d="M473.621 296.403c0 2.028-1.659 3.687-3.687 3.687h-85.545c-2.028 0-3.687-1.659-3.687-3.687v-19.174c0-2.028 1.659-3.687 3.687-3.687h85.545c2.028 0 3.687 1.659 3.687 3.687v19.174z"/><path fill="#F2C444" d="M473.621 327.376c0 2.028-1.659 3.687-3.687 3.687h-85.545c-2.028 0-3.687-1.659-3.687-3.687v-19.174c0-2.028 1.659-3.687 3.687-3.687h85.545c2.028 0 3.687 1.659 3.687 3.687v19.174z"/><path fill="#F2C444" d="M473.621 357.612v-19.912c0-1.217-.996-2.212-2.212-2.212h-88.495c-1.217 0-2.212.996-2.212 2.212v19.911h92.919z"/><rect x="380.702" y="233.719" fill="#C2902A" width="35.398" height="8.849"/><rect x="380.702" y="249.205" fill="#C2902A" width="92.92" height="4.425"/><rect x="380.702" y="258.055" fill="#C2902A" width="61.946" height="4.425"/><path fill="#3F4142" d="M597.514 331.801c0 2.028-1.659 3.687-3.687 3.687h-98.819c-2.028 0-3.687-1.659-3.687-3.687v-98.819c0-2.028 1.659-3.687 3.687-3.687h98.819c2.028 0 3.687 1.659 3.687 3.687v98.819z"/><path fill="#D7A628" d="M544.417 349.5c0 2.028 1.659 3.687 3.687 3.687h45.722c2.028 0 3.687-1.659 3.687-3.687v-5.9c0-2.028-1.659-3.687-3.687-3.687h-45.722c-2.028 0-3.687 1.659-3.687 3.687v5.9z"/><g fill="#228063"><rect x="500.17" y="240.356" width="17.699" height="4.425"/><rect x="500.17" y="249.205" width="44.247" height="4.425"/><rect x="509.019" y="258.055" width="57.522" height="4.425"/><rect x="509.019" y="266.904" width="44.247" height="4.425"/><rect x="509.019" y="275.754" width="35.398" height="4.425"/><rect x="509.019" y="284.603" width="57.522" height="4.425"/><rect x="509.019" y="311.152" width="48.672" height="4.425"/><rect x="500.17" y="293.453" width="30.973" height="4.425"/><rect x="500.17" y="302.302" width="88.495" height="4.425"/></g><path fill="#D8D5CA" d="M610.788 279.696c2.848 1.388 5.803 2.589 8.849 3.59v-27.443h-8.849v23.853z"/><path fill="#161B20" d="M597.514 271.282v-15.439h-14.291c3.974 5.831 8.797 11.035 14.291 15.439z"/><path fill="#3F4142" d="M597.514 271.282c1.431 1.147 2.906 2.241 4.425 3.277v-23.141h-4.425v19.864z"/><path fill="#D8D5CA" d="M423.599 207.17h73.496c3.169-2.635 6.054-5.6 8.594-8.85h-90.683c2.539 3.25 5.424 6.215 8.593 8.85z"/><defs><circle id="g" cx="632.912" cy="207.17" r="70.796"/></defs><clipPath id="h"><use xlink:href="#g" overflow="visible"/></clipPath><g clip-path="url(#h)"><rect x="553.267" y="136.374" fill="#585A5B" width="190.264" height="146.017"/><rect x="553.267" y="136.374" fill="#31A480" width="79.645" height="146.017"/><path fill="#70C196" d="M619.638 203.483c0 2.028-1.659 3.687-3.687 3.687h-50.147c-2.028 0-3.687-1.659-3.687-3.687v-14.749c0-2.028 1.659-3.687 3.687-3.687h50.147c2.028 0 3.687 1.659 3.687 3.687v14.749z"/><path fill="#70C196" d="M619.638 230.032c0 2.028-1.659 3.687-3.687 3.687h-50.147c-2.028 0-3.687-1.659-3.687-3.687v-14.749c0-2.028 1.659-3.687 3.687-3.687h50.147c2.028 0 3.687 1.659 3.687 3.687v14.749z"/><path fill="#70C196" d="M619.638 256.58c0 2.028-1.659 3.687-3.687 3.687h-50.147c-2.028 0-3.687-1.659-3.687-3.687v-14.749c0-2.028 1.659-3.687 3.687-3.687h50.147c2.028 0 3.687 1.659 3.687 3.687v14.749z"/><rect x="562.116" y="145.224" fill="#228063" width="35.398" height="8.849"/><rect x="562.116" y="160.711" fill="#228063" width="57.522" height="4.425"/><rect x="562.116" y="169.56" fill="#228063" width="39.823" height="4.425"/><path fill="#3F4142" d="M739.106 243.306c0 2.028-1.659 3.687-3.687 3.687h-94.395c-2.028 0-3.687-1.659-3.687-3.687v-98.819c0-2.028 1.659-3.687 3.687-3.687h94.395c2.028 0 3.687 1.659 3.687 3.687v98.819z"/><path fill="#31A480" d="M655.036 261.005c0 2.028 1.659 3.687 3.687 3.687h41.298c2.028 0 3.687-1.659 3.687-3.687v-5.9c0-2.028-1.659-3.687-3.687-3.687h-41.298c-2.028 0-3.687 1.659-3.687 3.687v5.9z"/><g fill="#228063"><rect x="646.186" y="151.861" width="17.699" height="4.425"/><rect x="646.186" y="160.711" width="44.247" height="4.425"/><rect x="655.036" y="169.56" width="70.796" height="4.425"/><rect x="655.036" y="178.41" width="44.247" height="4.425"/><rect x="655.036" y="187.259" width="35.398" height="4.425"/><rect x="655.036" y="196.109" width="57.522" height="4.425"/><rect x="655.036" y="222.657" width="48.672" height="4.425"/><rect x="646.186" y="204.958" width="30.973" height="4.425"/><rect x="646.186" y="213.807" width="84.07" height="4.425"/></g></g><g opacity=".25" fill="#EDE9DD"><circle cx="601.939" cy="180.622" r="17.699"/><circle cx="624.799" cy="203.483" r="8.112"/></g><path opacity=".25" fill="#231F20" enable-background="new" d="M678.35 152.883c10.302 12.296 16.509 28.141 16.509 45.438 0 39.099-31.697 70.796-70.796 70.796-17.296 0-33.141-6.206-45.438-16.509 12.987 15.499 32.484 25.358 54.287 25.358 39.099 0 70.796-31.697 70.796-70.796 0-21.803-9.859-41.3-25.358-54.287z"/><defs><circle id="i" cx="451.498" cy="154.073" r="57.522"/></defs><clipPath id="j"><use xlink:href="#i" overflow="visible"/></clipPath><g clip-path="url(#j)"><rect x="371.852" y="83.278" fill="#3F4142" width="190.264" height="146.017"/><rect x="371.852" y="83.278" fill="#545889" width="79.645" height="146.017"/><path fill="#6D77B0" d="M438.223 150.386c0 2.028-1.659 3.687-3.687 3.687h-50.147c-2.028 0-3.687-1.659-3.687-3.687v-14.749c0-2.028 1.659-3.687 3.687-3.687h50.147c2.028 0 3.687 1.659 3.687 3.687v14.749z"/><path fill="#6D77B0" d="M438.223 176.935c0 2.028-1.659 3.687-3.687 3.687h-50.147c-2.028 0-3.687-1.659-3.687-3.687v-14.749c0-2.028 1.659-3.687 3.687-3.687h50.147c2.028 0 3.687 1.659 3.687 3.687v14.749z"/><path fill="#6D77B0" d="M438.223 203.483c0 2.028-1.659 3.687-3.687 3.687h-50.147c-2.028 0-3.687-1.659-3.687-3.687v-14.749c0-2.028 1.659-3.687 3.687-3.687h50.147c2.028 0 3.687 1.659 3.687 3.687v14.749z"/><rect x="380.702" y="92.127" fill="#228063" width="35.398" height="8.849"/><rect x="380.702" y="107.614" fill="#41456E" width="57.522" height="4.425"/><rect x="380.702" y="116.463" fill="#41456E" width="39.823" height="4.425"/><path fill="#585A5B" d="M557.692 190.209c0 2.028-1.659 3.687-3.687 3.687h-94.395c-2.028 0-3.687-1.659-3.687-3.687v-98.819c0-2.028 1.659-3.687 3.687-3.687h94.395c2.028 0 3.687 1.659 3.687 3.687v98.819z"/><path fill="#6D77B0" d="M473.621 207.908c0 2.028 1.659 3.687 3.687 3.687h41.298c2.028 0 3.687-1.659 3.687-3.687v-5.9c0-2.028-1.659-3.687-3.687-3.687h-41.298c-2.028 0-3.687 1.659-3.687 3.687v5.9z"/><g fill="#228063"><rect x="464.772" y="98.764" width="17.699" height="4.425"/><rect x="464.772" y="107.614" width="44.247" height="4.425"/><rect x="473.621" y="116.463" width="70.796" height="4.425"/><rect x="473.621" y="125.313" width="44.247" height="4.425"/><rect x="473.621" y="134.162" width="35.398" height="4.425"/><rect x="473.621" y="143.012" width="57.522" height="4.425"/><rect x="473.621" y="169.56" width="48.672" height="4.425"/><rect x="464.772" y="151.861" width="30.973" height="4.425"/><rect x="464.772" y="160.711" width="84.07" height="4.425"/></g></g><g opacity=".25" fill="#EDE9DD"><circle cx="429.374" cy="131.95" r="13.274"/><circle cx="447.073" cy="149.649" r="4.425"/></g><path opacity=".25" fill="#231F20" enable-background="new" d="M487.504 109.218c7.923 9.857 12.666 22.377 12.666 36.006 0 31.768-25.754 57.522-57.522 57.522-13.63 0-26.149-4.743-36.006-12.666 10.543 13.117 26.717 21.515 44.856 21.515 31.768 0 57.522-25.753 57.522-57.522-.001-18.138-8.399-34.313-21.516-44.855z"/><path fill="#C2902A" d="M371.852 299.285c22.655-4.162 39.823-24.009 39.823-47.867 0-9.796-2.896-18.913-7.875-26.548h-31.947v74.415z"/><path fill="#D8D5CA" d="M354.153 269.117v30.168c2.87.527 5.827.805 8.849.805v-30.973h-8.849z"/><path fill="#D7A628" d="M406.364 273.542h-23.45c-1.217 0-2.212.996-2.212 2.212v21.013c11.129-4.347 20.265-12.671 25.662-23.225z"/><defs><circle id="k" cx="354.153" cy="242.568" r="48.672"/></defs><clipPath id="l"><use xlink:href="#k" overflow="visible"/></clipPath><g clip-path="url(#l)"><rect x="274.508" y="189.471" fill="#585A5B" width="190.264" height="146.017"/><rect x="274.508" y="189.471" fill="#D67427" width="79.645" height="146.017"/><path fill="#F49830" d="M340.879 256.58c0 2.028-1.659 3.687-3.687 3.687h-50.147c-2.028 0-3.687-1.659-3.687-3.687v-14.749c0-2.028 1.659-3.687 3.687-3.687h50.147c2.028 0 3.687 1.659 3.687 3.687v14.749z"/><path fill="#F49830" d="M340.879 283.128c0 2.028-1.659 3.687-3.687 3.687h-50.147c-2.028 0-3.687-1.659-3.687-3.687v-14.749c0-2.028 1.659-3.687 3.687-3.687h50.147c2.028 0 3.687 1.659 3.687 3.687v14.749z"/><path fill="#70C196" d="M340.879 309.677c0 2.028-1.659 3.687-3.687 3.687h-50.147c-2.028 0-3.687-1.659-3.687-3.687v-14.749c0-2.028 1.659-3.687 3.687-3.687h50.147c2.028 0 3.687 1.659 3.687 3.687v14.749z"/><rect x="283.357" y="198.321" fill="#228063" width="35.398" height="8.849"/><rect x="283.357" y="213.807" fill="#BA5F24" width="57.522" height="4.425"/><rect x="283.357" y="222.657" fill="#BA5F24" width="39.823" height="4.425"/><path fill="#3F4142" d="M460.347 296.403c0 2.028-1.659 3.687-3.687 3.687h-94.395c-2.028 0-3.687-1.659-3.687-3.687v-98.819c0-2.028 1.659-3.687 3.687-3.687h94.395c2.028 0 3.687 1.659 3.687 3.687v98.819z"/><path fill="#D67427" d="M376.277 314.102c0 2.028 1.659 3.687 3.687 3.687h41.298c2.028 0 3.687-1.659 3.687-3.687v-5.9c0-2.028-1.659-3.687-3.687-3.687h-41.298c-2.028 0-3.687 1.659-3.687 3.687v5.9z"/><g fill="#228063"><rect x="367.427" y="204.958" width="17.699" height="4.425"/><rect x="367.427" y="213.807" width="44.247" height="4.425"/><rect x="376.277" y="222.657" width="70.796" height="4.425"/><rect x="376.277" y="231.506" width="44.247" height="4.425"/><rect x="376.277" y="240.356" width="35.398" height="4.425"/><rect x="376.277" y="249.205" width="57.522" height="4.425"/><rect x="376.277" y="275.754" width="48.672" height="4.425"/><rect x="367.427" y="258.055" width="30.973" height="4.425"/><rect x="367.427" y="266.904" width="84.07" height="4.425"/></g></g><path opacity=".25" fill="#231F20" enable-background="new" d="M385.091 204.993c6.933 8.41 11.097 19.188 11.097 30.939 0 26.881-21.791 48.672-48.672 48.672-11.751 0-22.528-4.164-30.939-11.096 8.928 10.83 22.445 17.734 37.576 17.734 26.881 0 48.672-21.791 48.672-48.672 0-15.132-6.904-28.65-17.734-37.577z"/><g opacity=".25" fill="#EDE9DD"><circle cx="334.242" cy="222.657" r="11.062"/><circle cx="347.516" cy="235.931" r="3.319"/></g><defs><circle id="m" cx="354.153" cy="131.95" r="8.849"/></defs><clipPath id="n"><use xlink:href="#m" overflow="visible"/></clipPath><g clip-path="url(#n)"><rect x="345.304" y="123.1" fill="#31A480" width="8.849" height="17.699"/><rect x="354.153" y="123.1" fill="#3F4142" width="8.849" height="17.699"/></g><path opacity=".25" fill="#161B20" enable-background="new" d="M359.203 124.688c.999 1.433 1.588 3.171 1.588 5.049 0 4.887-3.962 8.849-8.849 8.849-1.878 0-3.617-.589-5.049-1.588 1.599 2.295 4.253 3.8 7.262 3.8 4.887 0 8.849-3.962 8.849-8.849-.001-3.008-1.506-5.662-3.801-7.261z"/><circle opacity=".25" fill="#EDE9DD" enable-background="new" cx="350.613" cy="128.41" r="1.106"/><defs><circle id="o" cx="553.267" cy="96.552" r="35.398"/></defs><clipPath id="p"><use xlink:href="#o" overflow="visible"/></clipPath><g clip-path="url(#p)"><rect x="473.621" y="21.331" fill="#585A5B" width="190.264" height="146.017"/><rect x="473.621" y="21.331" fill="#B24526" width="79.645" height="146.017"/><path fill="#DA613A" d="M539.993 88.44c0 2.028-1.659 3.687-3.687 3.687h-50.147c-2.028 0-3.687-1.659-3.687-3.687v-14.749c0-2.028 1.659-3.687 3.687-3.687h50.147c2.028 0 3.687 1.659 3.687 3.687v14.749z"/><path fill="#DA613A" d="M539.993 114.988c0 2.028-1.659 3.687-3.687 3.687h-50.147c-2.028 0-3.687-1.659-3.687-3.687v-14.749c0-2.028 1.659-3.687 3.687-3.687h50.147c2.028 0 3.687 1.659 3.687 3.687v14.749z"/><path fill="#DA613A" d="M539.993 141.537c0 2.028-1.659 3.687-3.687 3.687h-50.147c-2.028 0-3.687-1.659-3.687-3.687v-14.749c0-2.028 1.659-3.687 3.687-3.687h50.147c2.028 0 3.687 1.659 3.687 3.687v14.749z"/><rect x="482.471" y="30.181" fill="#228063" width="35.398" height="8.849"/><rect x="482.471" y="45.667" fill="#BA5F24" width="57.522" height="4.425"/><rect x="482.471" y="54.517" fill="#BA5F24" width="39.823" height="4.425"/><path fill="#3F4142" d="M659.461 128.262c0 2.028-1.659 3.687-3.687 3.687h-94.395c-2.028 0-3.687-1.659-3.687-3.687v-98.819c0-2.028 1.659-3.687 3.687-3.687h94.395c2.028 0 3.687 1.659 3.687 3.687v98.819z"/><path fill="#D67427" d="M575.391 145.961c0 2.028 1.659 3.687 3.687 3.687h41.298c2.028 0 3.687-1.659 3.687-3.687v-5.9c0-2.028-1.659-3.687-3.687-3.687h-41.298c-2.028 0-3.687 1.659-3.687 3.687v5.9z"/><g fill="#228063"><rect x="566.541" y="36.818" width="17.699" height="4.425"/><rect x="566.541" y="45.667" width="44.247" height="4.425"/><rect x="575.391" y="54.517" width="70.796" height="4.425"/><rect x="575.391" y="63.366" width="44.247" height="4.425"/><rect x="575.391" y="72.216" width="35.398" height="4.425"/><rect x="575.391" y="81.065" width="57.522" height="4.425"/><rect x="575.391" y="107.614" width="48.672" height="4.425"/><rect x="566.541" y="89.915" width="30.973" height="4.425"/><rect x="566.541" y="98.764" width="84.07" height="4.425"/></g></g><path opacity=".25" fill="#161B20" enable-background="new" d="M575.983 69.41c5.151 6.148 8.257 14.068 8.257 22.717 0 19.55-15.848 35.398-35.398 35.398-8.648 0-16.568-3.105-22.717-8.257 6.494 7.75 16.24 12.681 27.142 12.681 19.55 0 35.398-15.848 35.398-35.398 0-10.901-4.932-20.647-12.682-27.141z"/><g opacity=".25" fill="#EDE9DD"><circle cx="539.993" cy="83.278" r="8.849"/><circle cx="551.054" cy="94.339" r="2.212"/></g><path fill="#3F4142" d="M553.267 149.649v8.849c2.444 0 4.425-1.981 4.425-4.425 0-2.443-1.982-4.424-4.425-4.424z"/><path fill="#31A480" d="M548.842 154.073c0 2.444 1.981 4.425 4.425 4.425v-8.849c-2.444 0-4.425 1.981-4.425 4.424z"/><path fill="#3F4142" d="M336.454 295.665v8.849c2.444 0 4.425-1.981 4.425-4.425 0-2.443-1.982-4.424-4.425-4.424z"/><path fill="#6D77B0" d="M332.03 300.09c0 2.444 1.981 4.425 4.425 4.425v-8.849c-2.445-.001-4.425 1.98-4.425 4.424z"/><path fill="#3F4142" d="M380.702 149.649v8.849c2.444 0 4.425-1.981 4.425-4.425-.001-2.443-1.982-4.424-4.425-4.424z"/><path fill="#D7A628" d="M376.277 154.073c0 2.444 1.981 4.425 4.425 4.425v-8.849c-2.444 0-4.425 1.981-4.425 4.424z"/></svg>