<svg xmlns="http://www.w3.org/2000/svg" width="530" height="428"><path fill="#F3F4F5" d="M528 189l-2.334-4.704c.879-12.036.077-33.029-9.955-61.216-9.051-25.428-32.879-50.49-51.117-61.882l-.594-1.198c-69-52-175-58-175-58l-44 3c-100 1-162.782 74.556-162.782 74.556l-13.718-10.056 2.5 20.5-2.218 5.969-35.782 66.531c-23 110 37.236 148.888 96.236 174.388 61.798 26.71 177.677 18.283 177.677 18.283 17.913 26.171 69.587 53.829 108.587 64.829l31.5 3.5-44.05-91.395 8.55-6.105c23-10 72.408-45.103 72.408-45.103 44.408-40.103 44.092-91.897 44.092-91.897z"/><path fill="#DA613A" d="M299.341 202.957c-.549 0-1.101-.206-1.526-.62-.864-.842-.884-2.227-.042-3.093l.723-.74c-.979.765-1.812 1.301-2.49 1.58-1.519.627-2.668.057-3.24-.681-.796-1.034-1.614-2.094 4.155-10.598-1.782 1.954-3.359 3.279-4.714 3.799-1.733.669-3.921 1.268-5.432-.007-1.467-1.237-1.099-3.085-.898-4.078l.037-.179c-.483-1.356.537-2.59 9.006-12.494 3.579-4.187 8.484-9.921 9.053-11.071.322-1.088 2.595-5.525 5.33-10.576-1.072 1.237-2.148 2.487-3.206 3.719-1.042 1.605-10.508 16.147-12.576 18.628-2.336 2.805-11.465 9.108-14.58 10.066-1.404.428-2.507-.25-2.971-1.118-1.902-3.55 11.218-17.133 11.362-17.25.188-.157.549-.549 1.057-1.136-10.92 11.061-12.839 11.444-13.826 11.642-2.083.414-2.917-.878-3.123-1.282-.938-1.859-.317-3.527 9.761-12.69 1.05-.952 2.722-2.975 4.695-5.558-.63.657-1.174 1.19-1.589 1.545-.657.563-1.628 1.545-2.759 2.682-5.261 5.292-8.931 8.719-11.841 8.485-.977-.087-1.82-.575-2.373-1.375-2.825-4.078 3.403-9.312 7.952-13.132l.964-.814c.383-.328.986-1.057 1.736-2.061-.356.312-.713.607-1.074.88-1.975 1.5-3.662 2.843-5.12 4.006-3.179 2.532-5.277 4.204-7.235 5.02-1.442.601-2.545.046-3.096-.675-.68-.891-1.287-1.686 1.561-5.925-.69.515-1.274.957-1.691 1.29-2.019 1.611-3.419.16-3.571-.011-2.369-2.646 4.13-9.843 4.199-9.911 1.82-1.82 4.569-5.186 6.307-8.275 1.931-3.436 6.246-8.995 6.429-9.23.737-.953 2.117-1.127 3.069-.385.955.742 1.125 2.117.383 3.07-.042.055-4.297 5.536-6.067 8.688-.776 1.379-1.715 2.789-2.697 4.119 1.023-1.075 3.639-4.277 5.958-7.117 8.01-9.802 8.01-9.822 9.917-8.517.791.544 1.497 1.613.354 3.612-1.255 2.194-2.771 5.021-4.099 7.495-.642 1.195-1.221 2.273-1.711 3.174 3.24-4.503 5.667-9.326 5.706-9.399l.435-.594c5.681-5.5 7.107-5.364 8.374-4.63.781.45 1.479 1.471 1.101 2.983-.679 2.716-10.1 18.098-14.658 23.859.254-.24.488-.453.698-.634 2.271-1.947 10.2-11.44 13.064-14.934 9.817-11.638 10.278-11.3 12.009-10.117 1.172.802 1.292 2.081.354 3.801-1.289 2.363-6.262 9.979-11.377 17.256 3.601-3.716 6.719-6.897 7.795-7.855.698-.693 4.08-5.719 6.316-9.045 6.465-9.607 6.475-9.594 8.44-8.403 1.924 1.161.996 2.887-.544 5.746-2.324 4.315-6.658 10.737-11.218 17.074 13.777-16.012 14.045-15.786 15.903-14.395 1.738 1.305.483 3.22.01 3.94-3.413 5.21-11.187 19.501-13.489 24.275 1.384-2.04 2.327-3.352 2.976-4.048.95-1.017 3.208-3.735 5.601-6.614 10.029-12.068 10.027-12.065 11.995-10.752.515.345 1.602 1.37.525 3.417-2.134 4.05-17.114 28.005-21.86 34.263-2.344 3.091-4.36 5.862-6.018 8.231 2.966-3.049 5.94-6.317 7.432-7.957l1.489-1.627c1.008-1.084 4.629-6.548 7.825-11.37 10.117-15.262 10.659-15.79 12.461-15.278l.645-.54c1.687-1.432 3.425-2.916 5.168-1.576 1.782 1.377.867 3.654-.854 7.24-5.334 11.111-15.31 24.44-21.494 30.417-6.155 5.95-13.628 13.627-13.704 13.704-.427.44-.999.661-1.567.661zm-9.017-14.714l-.032.404.344-.127c2.585-.995 8.748-9.8 13.235-16.475-1.406 1.693-3.245 3.855-5.627 6.642-2.939 3.438-6.872 8.037-7.92 9.556zm40.806-30.361c-1.836 2.365-5.938 8.55-8.796 12.864-4.365 6.586-7.1 10.674-8.264 11.929l-1.46 1.597-1.345 1.472.305-.295c5.64-5.452 14.666-17.534 19.81-27.589l-.25.022zm-32.253 3.076c-4.27 5.576-7.788 9.862-8.777 10.671-1.023.837-3.677 3.982-6.011 7.003 2.625-1.82 5.183-3.821 6.072-4.888 1.147-1.378 5.325-7.635 8.716-12.786zm-21.187.16c-2.361 2.002-4.102 3.628-5.212 4.869 1.706-1.403 3.782-3.439 5.212-4.869z"/><path fill="#DA613A" d="M303.298 205.145c-.867 0-1.689-.52-2.031-1.375 0 0-.63-1.573-2.517-6.608-2.476-6.604 4.651-13.589 9.119-17.163 1.118-.895 2.793-2.792 4.702-5.225-2.659 2.239-5.693 4.395-9.136 6.338-5.798 3.273-9.297 5.842-10.615 6.809-.615.45-2.253 1.649-3.586.121-1.338-1.532.024-2.941.679-3.618 6.23-6.448 13.394-15.299 21.311-26.326l-2.156 2.256c-7.041 7.374-15.022 15.732-19.685 19.598-5.386 4.465-6.213 5.15-7.82 3.735-1.506-1.321-.498-2.925.312-4.214 1.377-2.188 2.061-3.621 2.036-4.265l-.542-.078c-2.18-.242-2.998-1.539-3.291-2.291-1.189-3.051 1.838-7.57 9.189-16.227-.64-1.37.547-3.035 1.882-4.912 1.858-2.611 4.895-6.46 7.712-9.785l.071-.732c.154-1.577.151-2.598.105-3.242-2.563 2.103-7.764 9.456-11.35 14.526-6.084 8.601-11.829 16.725-15.938 18.71-2.14 1.031-4.353 2.1-5.665.267-1.333-1.859-.007-3.21 3.932-7.224 3.083-3.145 7.307-7.449 9.871-11.497l1.484-2.336c2.764-4.347 4.048-6.368 5.002-8.593-2.417 2.38-5.417 5.538-7.903 8.152-4.331 4.558-8.807 9.272-11.592 11.571-1.417 1.173-5.186 4.287-7.664 1.942-3.292-3.114 2.299-10.92 2.947-11.801 4.351-5.905 15.217-19.493 15.676-20.068.754-.944 2.126-1.099 3.076-.342.942.754 1.096 2.131.342 3.074-.112.14-11.272 14.097-15.571 19.932-1.357 1.842-2.216 3.518-2.684 4.739.312-.225.675-.503 1.093-.848 2.579-2.131 6.965-6.747 11.206-11.211 11.362-11.957 13.572-13.961 15.923-12.623.671.383 1.699 1.364 1.055 3.622-.149.516-.291.999-.427 1.453 4.202-5.297 6.641-7.042 9.055-6.147 1.494.557 2.17 1.953 2.419 3.693 2.441-2.455 3.555-2.749 4.856-1.996 1.98 1.151.896 3.489.54 4.257-1.013 2.179-3.218 5.118-5.964 8.435-.125 1.592-.198 2.758-.254 3.597-.144 2.245-.225 3.481-1.838 3.918-.586.156-1.704.217-2.622-1.146-.068-.098-.176-.26-.239-.309l-.332.117-.718.825c-4.385 5.039-11.519 13.234-12.454 16.216 2.18.404 3.127 1.509 3.56 2.407.288.597.415 1.224.42 1.865 4.6-4.144 11.475-11.344 17.625-17.784 15.098-15.806 15.947-16.484 18.069-14.72 1.851 1.526 1.912 2.415-7.954 16.299-4.673 6.578-9.104 12.435-13.259 17.528 17.263-10.463 22.781-26.808 22.837-26.976l.176-.537.413-.385c2.397-2.222 4.001-1.91 4.924-1.255 1.978 1.4.996 4.154-.178 6.855-3.218 7.401-15.298 25.249-20.327 29.272-5.942 4.753-8.84 9.319-7.756 12.212 1.848 4.929 2.473 6.495 2.483 6.519.449 1.122-.098 2.394-1.218 2.843-.269.106-.545.156-.816.156z"/><path fill="#B24526" d="M305.366 199.476c-.752 0-1.499-.233-2.131-.706l-3.75-2.812c-.964-.725-1.162-2.096-.437-3.063.723-.967 2.092-1.162 3.064-.438l2.083 1.562c-.466-.725-.955-1.448-1.406-2.112-1.907-2.814-2.957-4.364-1.445-5.852 1.343-1.327 2.966-.386 3.899.25-.195-.581-.466-1.302-.837-2.195-.928-2.227-2.329-5.592.015-7.013 1.682-1.016 3.857.052 6.47 3.176-.364-.936-.754-1.838-1.084-2.598-1.13-2.61-1.877-4.333-.244-5.558 1.594-1.19 3.262.198 3.889.72l.527.448c-.437-.658-.867-1.285-1.245-1.838-2.158-3.152-3.24-4.734-1.733-6.259 1.458-1.471 3.335-.212 4.138.322.645.43 1.272.92 1.875 1.44l-.61-.784c-1.094-1.395-2.222-2.838-.83-4.282 1.06-1.096 2.28-.654 3.083-.177-1.558-2.26-2.278-3.94-1.055-5.416 1.501-1.813 4.155-.732 6.965.634.437.212.957.472 1.523.77-.034-.609.132-1.174.63-1.719 1.121-1.221 2.495-.768 4.087-.254.623.204 1.431.466 2.454.75 1.165.323 1.846 1.53 1.521 2.694-.322 1.162-1.523 1.848-2.693 1.522l-.31-.088.122.311c.146.38.291.696.42.958 1.096 1.064 1.777 2.162 1.597 3.175l-.293 1.631-1.68.189c-1.169.122-2.185-.651-3.13-2.264-.859-.717-2.373-1.794-4.91-3.113 2.351 3.17 3.77 5.251 3.77 7.092 0 2.036-1.069 2.793-1.707 3.063-.427.183-.85.249-1.267.21.105.48.161.952.161 1.415 0 1.772-.603 2.91-1.794 3.381-.83.327-1.57.239-2.317-.15.112.305.21.603.288.892.232.873.85 3.191-.972 4.298-1.375.839-2.703.28-4.417-1.085.454 1.433.774 2.891.774 4.226 0 .819 0 3.313-2.07 3.965-1.787.571-3.162-.732-4.565-2.599.601 2.261.488 3.928-.813 4.973-.337.272-.696.447-1.06.544l.042.067c1.958 3.077 1.25 5.476-.068 6.696-.715.664-1.623 1.001-2.524 1.001z"/><path fill="#F4955F" d="M264.013 155.151l-.385-.026c-3.666-.5-4.79-5.458-4.978-6.447-.211-1.11.455-2.183 1.514-2.502-.137-1.041.073-1.912.923-2.582 1.041-.819 2.346-.692 3.883.383.97.68 1.843 1.526 2.616 2.391-.21-.83-.443-1.625-.648-2.321-.681-2.319-1.219-4.152.532-5.161 1.78-1.023 3.289.571 4.29 1.626.479.503.95 1.094 1.411 1.733-.586-1.549-1.331-2.963-2.224-4.23-1.158-1.641-.356-2.74.044-3.137.881-.879 1.98-.856 3.262.06.525.375 1.619 1.156 3.506 2.288l.979.588c.669.403 1.289.775 1.829 1.095.107-.289.244-.588.417-.892.881-1.547 1.958-3.004 4.268-2.457.322.073.603.143 1.445-.173 1.133-.425 2.393.146 2.817 1.281.425 1.13-.149 2.391-1.279 2.816-1.433.537-2.463.581-3.311.464l-.142.239c-.227.397-.225.765-.222 1.193.002.568.01 1.896-1.248 2.612-1.284.73-1.992.461-5.481-1.619.42 1.376.742 2.817.964 4.325.52 3.505.93 6.272-1.313 7.048-2.083.717-3.125-1.007-4.937-4.176.015.261.022.522.022.782 0 1.19 0 3.405-1.912 4.044-1.714.566-2.845-.658-4.061-2.244.056.768-.095 1.439-.562 2.035-.483.618-1.219.964-2.019.964z"/><path opacity=".2" fill="#231F20" enable-background="new" d="M444.48 425.457c-95.625-16.875-137.567-70.286-137.567-70.286-70.067 3.464-96.808-2.214-96.808-2.214-185.625-17.5-183.125-143.75-183.125-143.75 3.374-48.465 22.705-86.362 41.518-112.421-13.908 14.793-17.855 26.142-17.855 26.142s-9.611-2.375-13.304-5.316l-4.922-2.412c-.762 5.424 1.329 18.398 1.329 18.398s-29.636 29.173-33.484 87.172 15.385 134.377 129.863 153.913c114.479 19.536 168.203-2.34 168.203-2.34 57.272 51.059 148.727 55.863 148.727 55.863-.564-.783-1.16-1.626-1.774-2.503l-.801-.246z"/><g fill="#575A5B"><path d="M228.437 154.52c-.398 0-.798-.126-1.139-.387-.823-.63-.978-1.807-.348-2.628.253-.33 6.218-8.112 8.839-11.046.688-.77 1.875-.839 2.648-.15.773.691.84 1.876.15 2.648-2.529 2.831-8.6 10.75-8.661 10.829-.368.481-.926.734-1.489.734z"/><path d="M217.394 334c-.898 0-1.693-.649-1.847-1.565-.358-2.131-8.772-52.273-9.189-59.79-.416-7.502-3.75-71.674-3.75-71.674l-.035-.679.408-.544c.055-.072 1.365-1.807 4.341-4.783 1.398-1.398 3.516-3.331 5.759-5.378 2.554-2.332 5.195-4.744 7.158-6.705.708-.708 1.682-1.653 2.809-2.745 4.286-4.156 12.263-11.892 13.469-14.607.752-1.691.652-1.798-1.023-3.605-.608-.656-1.315-1.42-2.076-2.4-2.222-2.856-7.037-6.71-12.135-10.791-1.255-1.005-2.537-2.03-3.817-3.071-6.665-5.415-19.597-18.333-20.144-18.879l-.549-.549v-.776c0-.054.005-1.384.422-7.218.328-4.595-1.632-20.234-2.93-30.585-.305-2.437-.586-4.674-.812-6.558-1.649-13.739-3.639-24.014-5.195-26.813l-.029-.054c-.844.729-2.363 2.72-3.84 4.656-1.382 1.813-3.057 4.009-5.128 6.515-7.686 9.303-18.818 31.906-18.929 32.133l-.767 1.56-1.614-.646c-.004-.001-1.88-.699-5.553-.699-4.302 0-20.422 1.403-28.17 2.076-9.265.807-21.959 4.875-22.086 4.917l-1.768.57-.587-1.761c-1.024-3.07-2.605-4.498-4.792-6.476-1.747-1.578-3.921-3.542-6.211-6.786-2.653-3.759-6.699-7.29-10.269-10.405-2.767-2.415-5.393-4.706-7.181-6.91.013.63.023 1.321.023 2.068 0 5.653.919 14.033 2.893 26.37l.172 1.077c1.565 9.772 2.351 14.677 2.351 20.054 0 2.319.155 6.493.334 11.324.234 6.307.499 13.457.499 18.676 0 9.395 1.304 36.866 2.081 52.406.303 6.057.494 14.844.697 24.146.345 15.852.737 33.818 1.777 39.792 1.661 9.551 4.484 40.908 4.603 42.236.093 1.033-.669 1.943-1.7 2.036-1.019.073-1.942-.669-2.035-1.699-.029-.325-2.928-32.532-4.562-41.929-1.089-6.255-1.467-23.591-1.832-40.356-.203-9.275-.393-18.033-.693-24.038-.779-15.575-2.086-43.119-2.086-52.594 0-5.149-.264-12.261-.497-18.536-.181-4.869-.337-9.075-.337-11.464 0-5.078-.77-9.885-2.303-19.46l-.173-1.077c-2.006-12.538-2.939-21.106-2.939-26.963 0-1.165-.026-2.186-.048-3.053-.076-2.992-.117-4.64 1.564-5.225 1.761-.618 2.961.984 4.775 3.402 1.544 2.061 4.235 4.408 7.083 6.892 3.728 3.254 7.954 6.942 10.867 11.068 2.05 2.904 3.969 4.637 5.66 6.167 1.959 1.769 3.826 3.456 5.162 6.36 3.848-1.161 13.5-3.89 21.233-4.563 11.882-1.034 24.561-2.091 28.495-2.091 2.349 0 4.099.248 5.258.493 2.592-5.166 11.79-23.097 18.715-31.478 2.034-2.463 3.679-4.62 5.038-6.401 3.416-4.478 4.99-6.499 7.22-6.356 1.163.085 2.142.828 2.909 2.207 2.599 4.677 4.81 21.271 5.64 28.187.226 1.879.505 4.109.809 6.538 1.472 11.742 3.303 26.356 2.949 31.318-.249 3.485-.348 5.305-.387 6.198 2.621 2.603 13.546 13.387 19.282 18.048 1.273 1.035 2.548 2.054 3.796 3.054 5.504 4.406 10.258 8.21 12.751 11.416.684.88 1.321 1.565 1.866 2.153 1.854 2 3.455 3.727 1.7 7.677-1.387 3.12-7.549 9.242-14.287 15.775-1.11 1.077-2.069 2.007-2.767 2.705-2.023 2.023-4.696 4.463-7.281 6.824-2.211 2.017-4.299 3.923-5.636 5.26-1.858 1.858-3.019 3.193-3.583 3.873.366 7.04 3.323 63.914 3.713 70.945.405 7.312 9.055 58.86 9.143 59.38.171 1.021-.518 1.987-1.539 2.158l-.313.025z"/><path d="M221.562 358.165c-.856 0-1.628-.588-1.827-1.458-.393-1.729-9.63-42.358-9.63-48.333 0-2.93-.806-9.47-1.658-16.394-.79-6.411-1.686-13.682-2.087-19.307-.807-11.289-2.505-43.965-2.505-50.967 0-6.509-1.23-20.529-1.243-20.669l-.063-.715.431-.575c.106-.142 2.679-3.539 9.799-10.239 2.31-2.174 5.15-4.79 8.016-7.43 5.85-5.388 11.897-10.958 13.512-12.842 3.019-3.521 3.362-5.262 3.243-5.594-.664-.88-4.496-4.469-7.295-7.089-2-1.873-3.901-3.655-5.017-4.771-1.045-1.044-2.412-2.179-3.861-3.38-2.433-2.018-5.19-4.305-7.128-6.794-2.278-2.93-12.877-11.592-16.769-14.683l-.709-.563v-17.572c0-1.681-.496-6.132-.974-10.436-.447-4.012-.908-8.163-1.105-11.107-.409-6.127-4.58-28.547-5.325-30.781-.588-1.765-1.007-2.266-1.165-2.401l-.439.332c-1.051.876-2.911 3.734-4.88 6.76-2.172 3.337-4.634 7.122-7.365 10.482-5.232 6.438-15.104 25.726-15.203 25.92l-.522 1.022h-1.147c-.057 0-5.774.005-9.376.405-2.635.293-5.25.195-7.776.103-1.227-.045-2.454-.092-3.68-.092-3.66 0-6.55 0-16.434 1.235-9.677 1.21-19.105 4.462-19.2 4.495l-1.439.5-3.284-5.474c-1.476-2.46-5.135-5.989-8.364-9.102-1.945-1.876-3.782-3.649-5.172-5.192-3.076-3.418-8.593-9.269-12.069-12.859.076.638.161 1.31.244 1.954.343 2.688.771 6.034.925 9.568.231 5.3 1.68 14.28 2.844 21.495.973 6.027 1.741 10.787 1.741 12.753 0 2.185-.221 6.666-.436 11-.195 3.96-.398 8.054-.398 9.834 0 1.548.231 3.982.498 6.799.353 3.713.752 7.924.752 11.534 0 3.882.488 16.388.959 28.481.28 7.167.552 14.136.707 18.958.112 3.477.255 9.396.419 16.234.383 15.947 1.025 42.642 1.573 44.924.547 1.345.847 6.787 1.34 19.236.148 3.735.281 7.122.415 9.126.093 1.399.615 6.56 1.136 10.913 1.077 1.687 1.354 5.728 1.354 5.774l-.018.596c.076.405.015.803-.15 1.147-.209.84-.693 1.565-1.835 1.592-1.399-.01-2.914.071-4.23-19.773-.135-2.026-.271-5.449-.42-9.229-.247-6.248-.66-16.707-1.127-18.145-.566-1.414-.953-11.323-1.788-46.072-.164-6.826-.306-12.733-.417-16.204-.156-4.814-.427-11.775-.707-18.932-.472-12.13-.962-24.673-.962-28.628 0-3.433-.391-7.549-.735-11.18-.277-2.913-.515-5.427-.515-7.153 0-1.871.195-5.829.403-10.02.211-4.287.431-8.722.431-10.814 0-1.664-.823-6.76-1.693-12.156-1.241-7.692-2.649-16.41-2.889-21.929-.146-3.378-.563-6.637-.897-9.255-.649-5.081-.919-7.183.887-8.07 1.018-.503 2.101-.19 3.209.918 2.854 2.853 10.414 10.825 14.236 15.071 1.3 1.447 3.092 3.173 4.988 5.001 3.562 3.435 7.245 6.987 8.976 9.873l1.729 2.881c3.085-.984 10.616-3.207 18.513-4.194 10.116-1.265 13.11-1.265 16.901-1.265 1.273 0 2.546.046 3.82.094 2.5.092 4.862.182 7.223-.083 2.832-.314 6.729-.397 8.643-.419 2.152-4.158 10.284-19.628 15.11-25.566 2.605-3.207 5.01-6.902 7.131-10.162 2.312-3.551 4.138-6.357 5.624-7.595 1.61-1.342 2.983-1.331 3.857-1.08 2.035.579 3.014 2.773 3.704 4.845.973 2.916 5.094 25.502 5.51 31.718.19 2.861.647 6.969 1.089 10.941.535 4.81.997 8.961.997 10.851v15.764c2.955 2.368 14.022 11.322 16.689 14.751 1.685 2.167 4.163 4.222 6.56 6.211 1.517 1.259 2.95 2.446 4.119 3.615 1.096 1.096 2.965 2.845 4.929 4.685 4.15 3.885 6.931 6.514 7.745 7.6 1.692 2.255.576 5.61-3.411 10.261-1.758 2.051-7.616 7.446-13.817 13.158-2.856 2.631-5.686 5.237-7.987 7.402-5.262 4.954-7.961 8.047-8.937 9.222.261 3.049 1.193 14.38 1.193 20.247 0 6.35 1.636 38.677 2.495 50.698.396 5.532 1.284 12.749 2.069 19.116.905 7.349 1.686 13.694 1.686 16.853 0 4.612 6.885 35.85 9.537 47.498.229 1.011-.403 2.017-1.412 2.246-.142.036-.281.051-.419.051z"/><path d="M179.167 179.52s-4.688-1.042-16.667-.521c-11.979.521-13.542 1.25-17.604 1.771-4.062.521-12.083 4.896-10.833 6.979s11.042 14.896 23.542 17.292 13.646.833 10.208-5.729-5.208-13.125-5-14.896c.208-1.771 1.667-3.542 4.583-3.542 2.917 0 4.583 2.812 7.396 1.354s7.188-.729 4.375-2.708z"/><path d="M165.808 207.351c-1.904 0-4.585-.344-8.439-1.082-14.277-2.738-24.288-17.728-24.377-17.877-.233-.389-.547-1.202-.022-2.285 1.394-2.877 8.32-6.134 11.768-6.577.972-.125 1.798-.261 2.662-.404 2.769-.459 5.907-.978 15.046-1.376 12.073-.524 16.833.515 16.992.549l.448.199c.538.378 1.658 1.166 1.403 2.334-.255 1.162-1.464 1.384-2.864 1.641-.959.177-2.153.397-3.058.865-.726.376-1.442.559-2.186.559-1.215 0-2.212-.485-3.176-.953-.867-.422-1.687-.82-2.609-.82-2.252 0-3.203 1.26-3.341 2.438-.16 1.353 1.414 7.579 4.866 14.17 1.548 2.955 2.375 5.26 1.382 6.902-.932 1.538-3.012 1.717-4.495 1.717zm-1.183-27.181c-.664.021-1.354.046-2.07.077-8.989.391-12.048.897-14.747 1.344-.892.148-1.747.289-2.753.419-3.734.479-9.657 4.06-9.873 5.284 1.332 2.107 10.819 14.249 22.659 16.519 3.694.708 6.226 1.038 7.968 1.038 1.947 0 2.305-.426 2.356-.511.175-.289.217-1.25-1.458-4.448-3.356-6.406-5.399-13.374-5.134-15.621.191-1.632 1.195-3.275 3.052-4.101zm5.171-.063c.463.181.894.389 1.302.588 1.178.574 2.063.973 3.119.424.634-.33 1.311-.557 1.971-.729-1.47-.133-3.572-.259-6.392-.283z"/><path d="M129.717 148.658c-.378-.377-3.718-3.782-4.686-6.949-1.046-3.423-.908-6.582.408-9.391.697-1.486 3.217-6.354 6.384-6.591.714-.068 2.078.092 3.124 1.659 1.93 2.894 2.581 4.734 2.581 7.29l.005.574c.027 1.927-.052 3.239-1.936 5.778-1.276 1.72-2.786 3.633-3.572 4.622l.345.359-2.653 2.649zm2.187-19.075c-.698.472-2.046 2.14-3.07 4.326-.911 1.941-.983 4.197-.217 6.703.192.629.566 1.329 1.014 2.018.812-1.027 1.954-2.493 2.952-3.837 1.224-1.65 1.218-2.114 1.2-3.491l-.006-.626c0-1.554-.274-2.671-1.873-5.093z"/><path d="M130.032 149.281c-.487-.432-4.764-4.348-5.304-8.751-.258-2.108-.83-9.229 2.644-12.33.614-.548 1.01-1.022 1.316-1.387.769-.911 1.93-2.285 4.43-1.2 2.562 1.115 5.317 5.746 5.031 10.048-.229 3.434-4.651 7.648-6.866 9.553.491.555.94.997 1.24 1.265l-2.491 2.802zm1.647-20.202l-.123.149c-.375.444-.887 1.055-1.687 1.769-1.322 1.179-1.919 4.998-1.418 9.076.082.673.331 1.37.671 2.05 2.653-2.335 5.188-5.272 5.283-6.711.189-2.834-1.772-5.834-2.726-6.333z"/><path d="M160.176 144.318c-1.575 0-2.87-.56-3.646-1.578-2.517-3.304-1.044-9.072-.293-11.399 1.178-3.65 5.24-7.061 5.701-7.438l.206-.146c.804-.496 1.571-.737 2.341-.737 2.194 0 3.331 1.838 4.336 3.459.356.577.736 1.198 1.191 1.774 2.729 3.447 1.908 5.261-.074 9.644-1.794 3.967-6.464 6.421-9.762 6.421zm4.035-17.428c-1.089.919-3.717 3.467-4.406 5.602-1.133 3.512-1.251 6.718-.293 7.975.022.011.234.101.663.101 1.853 0 5.164-1.604 6.345-4.218 1.862-4.115 1.862-4.115.552-5.771-.548-.691-1.011-1.432-1.44-2.126-.367-.592-.912-1.472-1.21-1.68l-.211.117z"/><path d="M160.635 143.645h-.001c-1.155 0-2.153-.255-2.97-.757-2.913-1.793-3.069-6.332-.468-13.488 1.497-4.113 6.177-6.376 6.376-6.47l.433-.206.479.028c1.81.103 3.48 1.01 4.701 2.551 1.88 2.377 2.603 6.061 1.934 9.855-.897 5.076-6.145 8.487-10.484 8.487zm4.082-17.081c-1.179.675-3.301 2.205-3.995 4.117-2.112 5.806-1.81 8.571-1.093 9.012.098.06.392.2 1.005.2 2.382 0 6.211-2.098 6.791-5.388.48-2.715.027-5.349-1.18-6.875-.449-.565-.961-.922-1.528-1.066z"/><path d="M160.885 243.809c-1.793 0-2.944-1.572-3.965-2.969-.49-.667-.995-1.357-1.481-1.78-2.356-2.041-5.656-5.027-5.656-5.027l2.517-2.778c.002.002 3.264 2.952 5.594 4.973.806.698 1.467 1.602 2.051 2.397.262.359.616.842.902 1.167.111-.156.249-.378.415-.686 1.971-3.699 2.634-5.378 2.792-5.808.143-.798.641-1.743 1.67-2.144 1.859-.723 3.666.972 4.259 1.531 2.087 1.965 4.075 3.32 4.679 3.716 1.316-2.236 3.076-6.328 3.093-6.372.408-.952 1.51-1.392 2.462-.984s1.393 1.511.985 2.463c-.079.183-1.942 4.519-3.397 6.943-.868 1.445-1.973 2.1-3.11 2.144-.944-.02-1.689-.537-2.157-1.101-.789-.522-2.899-1.982-5.126-4.08l-.12-.11c-.408.977-1.206 2.725-2.722 5.564-.638 1.199-1.692 2.805-3.463 2.932l-.222.009z"/><path d="M160.718 243.177c-1.445 0-2.511-1.062-3.635-2.18-.281-.281-.582-.581-.909-.884-2.183-2.026-7.17-6.548-7.17-6.548l2.517-2.778s5.012 4.541 7.205 6.577c.361.334.693.667 1.005.977.269.266.598.596.865.83l.082-.132c.574-.977 1.08-1.995 1.539-2.917.95-1.904 1.636-3.279 2.631-3.943l.306-.237c1.632-1.36 2.908-.591 4.072.317.36.281.831.662 1.355 1.084 1.233.996 3.28 2.651 4.07 3.071.71-1.323 2.849-5.667 3.927-7.874.453-.93 1.577-1.316 2.507-.862s1.316 1.577.862 2.507c-.134.276-3.312 6.78-4.108 8.213-1.525 2.747-3.217 2.195-4.822 1.392-1.036-.518-2.711-1.848-4.794-3.533-.476-.383-.906-.73-1.244-.996l-.052.037c-.227.234-.879 1.543-1.355 2.498-.494.994-1.044 2.09-1.663 3.142-.292.496-1.179 2.004-2.799 2.214l-.392.025z"/><path d="M229.062 154.52c-.387 0-.778-.12-1.113-.367-.833-.615-1.008-1.79-.393-2.622l7.083-9.584c.615-.833 1.788-1.008 2.622-.393.833.615 1.008 1.79.393 2.622l-7.083 9.584c-.367.496-.935.76-1.509.76z"/><path d="M218.02 145.041c-.365 0-.732-.106-1.056-.326-.856-.585-1.075-1.75-.492-2.606l4.48-6.562c.587-.857 1.753-1.073 2.606-.492.856.585 1.075 1.75.492 2.606l-4.48 6.562c-.364.532-.952.818-1.55.818z"/><path d="M219.166 145.041c-.275 0-.552-.06-.815-.187-.933-.452-1.322-1.572-.872-2.505l3.125-6.459c.454-.933 1.572-1.321 2.505-.872.933.452 1.322 1.572.872 2.505l-3.125 6.459c-.325.67-.994 1.059-1.69 1.059z"/><path d="M120.862 298.809c-1.082 0-2.161-.105-3.192-.244-5.626-.75-26.122-19.773-32.731-35.508-6.593-15.698-8.196-30.229-8.26-30.84-.11-1.028.636-1.953 1.665-2.063 1.001-.107 1.952.637 2.063 1.667.016.144 1.619 14.617 7.99 29.785 6.561 15.62 26.128 32.756 29.769 33.242 2.445.327 4.933.447 6.543-.872 1.31-1.072 2.075-3.14 2.275-6.145.391-5.852-2.356-8.562-4.564-10.737-1.055-1.04-1.965-1.941-2.466-3.064-1.405-3.162-.029-4.368 1.632-5.417.565-.356 1.206-.762 1.962-1.433 2.496-2.219 2.408-2.922 2.197-4.617-.04-.322-.145-.4-.215-.454-.223-.168-1.208-.669-4.491-.115-4.839.801-6.956-.811-9.637-4.497-2.731-3.755-9.388-20.71-10.658-31.509-1.19-10.112-5.983-18.915-6.03-19.003-.499-.907-.17-2.047.737-2.546.906-.497 2.046-.17 2.546.736.211.383 5.192 9.509 6.47 20.374 1.254 10.649 7.792 26.75 9.967 29.741 2.208 3.037 3.107 3.489 5.988 3.003 3.495-.583 5.826-.325 7.35.811.952.71 1.538 1.746 1.694 2.996.422 3.376-.347 5.144-3.428 7.883-.984.874-1.83 1.409-2.448 1.799l-.399.256.19.469c.211.476.92 1.177 1.672 1.917 2.46 2.427 6.177 6.094 5.673 13.657-.276 4.141-1.467 7.019-3.643 8.799-1.824 1.492-4.027 1.929-6.221 1.929z"/><path d="M120.943 299.124c-1.202 0-2.438-.215-3.657-.652-4.844-1.729-22.349-15.781-29.745-28.643-7.267-12.639-11.187-34.924-11.187-41.248 0-1.035.84-1.875 1.875-1.875s1.875.84 1.875 1.875c0 6.033 3.745 27.305 10.688 39.377 7.086 12.327 24.146 25.693 27.755 26.982 1.924.684 3.938.527 5.391-.42 1.761-1.15 2.815-3.467 3.046-6.699.417-5.842-1.924-8.223-4.403-10.742-.824-.835-1.676-1.702-2.415-2.686-.947-1.262-.991-2.456-.861-3.232.397-2.385 2.82-4.031 4.958-5.483.723-.491 1.787-1.213 2.124-1.602.012-.496-.226-.881-.454-1.069-.187-.156-.374-.21-.549-.146-2.537.842-7.781-.007-10.082-.994-3.49-1.497-9.359-14.912-10.708-18.574-2.396-6.504-3.296-14.006-3.859-20.486-.577-6.633-5.27-13.74-5.317-13.811-.575-.862-.342-2.025.52-2.6.858-.577 2.024-.343 2.6.52.215.322 5.273 7.986 5.933 15.564.542 6.235 1.399 13.428 3.641 19.514 2.357 6.399 7.17 15.471 8.729 16.458 1.83.779 6.056 1.279 7.356.85 1.412-.466 2.957-.159 4.138.825 1.331 1.111 2.001 2.896 1.749 4.658-.233 1.631-1.847 2.727-3.715 3.997-1.13.767-3.234 2.197-3.367 2.996-.013.081.04.205.162.366.587.784 1.316 1.523 2.086 2.307 2.677 2.72 6.01 6.106 5.471 13.64-.402 5.615-2.797 8.303-4.736 9.57-1.482.97-3.223 1.463-5.042 1.463z"/><path d="M248.807 281.165c-3.038 0-6.466-1.199-9.951-3.523-7.235-4.824-29.099-21.729-33.5-26.787-.68-.781-.597-1.965.184-2.644.781-.684 1.967-.601 2.645.183 3.912 4.497 25.066 21.006 32.75 26.128 3.744 2.495 7.349 3.428 9.902 2.583 1.331-.449 2.241-1.35 2.704-2.681 1.324-3.806-1.672-7.913-4.432-11.064-3.226-3.691-2.404-6.201-1.942-7.061.222-.522 1.127-2.517 2.723-4.514.201-.251.676-.845-1.631-2.822l-.439-.354c-.233.095-.607.283-.947.454l-.306.154c-1.974.989-5.839 3.425-5.878 3.45l-1.128.713-1.042-.833c-.022-.017-1.082-.862-5.385-4.141-4.462-3.398-13.276-11.143-18.025-16.973-4.581-5.623-11.245-13.745-11.245-13.745l2.898-2.378s6.669 8.127 11.255 13.755c4.359 5.349 12.9 12.937 17.39 16.357 2.224 1.697 3.593 2.749 4.402 3.374 1.354-.833 3.623-2.205 5.082-2.935l.3-.151c2.089-1.045 3.279-1.509 5.508.405 4.183 3.584 3.462 6.335 2.119 8.013-1.456 1.821-2.217 3.677-2.224 3.696l-.24.425c.046.037.157 1.016 1.578 2.639 2.013 2.3 7.363 8.411 5.153 14.766-.84 2.415-2.634 4.192-5.053 5.005-1.009.338-2.09.506-3.225.506z"/><path d="M247.755 282.618c-4.081 0-8.597-2.134-13.464-6.372l-28.959-25.208 2.463-2.827 28.956 25.208c4.791 4.17 9.114 5.996 12.52 5.298 2.826-.588 4.128-2.747 4.557-3.647 1.456-3.059-1.981-7.864-4.255-11.045l-.583-.818c-2.408-3.413-1.725-5.046-.41-7.427.364-.659.807-1.458 1.261-2.52 1.073-2.502.826-2.668-.785-3.743l-.651-.442c-.387-.151-1.523.117-4.756 2.271-.468.312-.864.574-1.155.74-2.058 1.172-4.009.862-5.798-.928-.265-.266-1.506-1.379-3.308-3.003-5.32-4.79-15.22-13.704-20.045-18.687-6.63-6.841-9.835-14.429-9.968-14.749-.398-.955.054-2.051 1.008-2.45.959-.394 2.054.052 2.452 1.007.031.073 3.085 7.273 9.2 13.584 4.736 4.89 14.575 13.748 19.861 18.508 1.882 1.694 3.175 2.861 3.452 3.137.67.669.812.593 1.287.322.236-.134.555-.352.935-.603 2.33-1.553 6.229-4.15 8.984-2.222l.582.393c2.346 1.567 4.276 3.381 2.151 8.342-.515 1.199-1.013 2.107-1.426 2.854-.985 1.782-.985 1.782.192 3.45l.57.801c2.787 3.894 6.998 9.783 4.591 14.836-1.415 2.971-4.031 5.051-7.179 5.706-.743.158-1.504.234-2.28.234z"/></g><g fill="#575A5B"><path d="M297.522 208.187l-1.404-1.404c-.103-.103-10.347-10.358-16.956-17.986-6.619-7.633-24.873-32.289-25.647-33.334l-.852-1.152 16.785-21.26h.908c8.577 0 46.106-.505 46.484-.51l.522-.007.452.266c8.911 5.242 22.466 23.237 23.037 24l.896 1.193-.962 1.14c-8.098 9.62-41.606 47.194-41.943 47.572l-1.32 1.482zm-40.138-53.804c3.761 5.062 18.89 25.359 24.611 31.958 5.078 5.861 12.354 13.315 15.376 16.379 6.072-6.815 31.226-35.071 39.575-44.855-3.118-4.023-13.569-17.15-20.593-21.567-4.502.06-35.718.474-45.085.502l-13.884 17.583z"/><path d="M297.593 208.28l-1.484-1.506c-.432-.437-10.579-10.751-13.325-14.343-1.057-1.383-3.171-3.981-5.598-6.963-3.708-4.561-8.324-10.236-10.878-13.685-4.097-5.529-12.657-16.15-12.744-16.257l-.82-1.017.671-1.122c.082-.137.894-1.443 4.248-5.216 3.239-3.644 11.108-14.253 11.188-14.36l.566-.764.952.006c.004 0 2.114.015 5.09.015 4.858 0 13.557-.04 17.214-.312 5.63-.416 22.749-.421 23.474-.421h.813l23.127 24.698-1.023 1.27c-.708.879-17.393 21.572-21.77 26.161-4.27 4.47-18.245 21.989-18.384 22.166l-1.317 1.65zm-40.208-53.986c2.329 2.903 8.589 10.74 11.935 15.256 2.504 3.38 7.091 9.02 10.775 13.55 2.456 3.021 4.595 5.651 5.667 7.052 2.007 2.623 8.574 9.434 11.541 12.479 3.638-4.537 13.645-16.953 17.28-20.76 3.66-3.835 16.763-19.988 20.54-24.657l-19.788-21.13c-3.53.006-17.573.054-22.383.41-3.589.266-11.494.322-17.493.322-1.787 0-3.264-.005-4.165-.01-1.896 2.543-7.963 10.63-10.829 13.855-1.552 1.746-2.509 2.907-3.08 3.633z"/><path d="M339.355 159.801l-.31-.026c-.122-.021-12.341-2.023-22.407-1.61-6.494.259-15.41-.115-23.284-.446-4.734-.199-9.204-.387-12.207-.387-7.871 0-25.741-.828-25.92-.836-1.035-.048-1.835-.925-1.786-1.959.048-1.034.931-1.815 1.959-1.786.179.007 17.964.831 25.747.831 3.081 0 7.59.189 12.366.389 7.8.327 16.648.698 22.974.446 10.518-.421 22.661 1.575 23.174 1.659 1.021.168 1.711 1.134 1.543 2.156-.154.918-.948 1.569-1.849 1.569z"/><path d="M297.795 207.688l-2.139-3.813c-3.064-5.463-18.396-32.891-19.246-36.296-.811-3.24-3.276-11.061-3.301-11.14l-.291-.918.579-.771c1.809-2.415 7.893-10.397 10.117-11.732 1.372-.824 5.874-5.12 8.389-7.634l1.182-1.182 1.309 1.039s12.087 9.587 14.172 11.254c2.119 1.694 8.989 8.159 9.28 8.434.754.709.791 1.896.081 2.65-.491.52-1.201.702-1.853.525-1.643 4.453-6.396 17.212-9.453 24.344-3.669 8.56-7.498 20.94-7.537 21.064l-1.289 4.176zm-20.82-51.456c.688 2.202 2.397 7.732 3.074 10.437.522 2.062 9.827 19.137 16.772 31.604 1.455-4.436 3.909-11.603 6.353-17.305 3.408-7.952 8.975-23.047 9.846-25.422-2.241-2.086-5.522-5.109-6.794-6.125-1.66-1.327-9.68-7.69-12.859-10.212-2.085 2.042-6.201 5.99-7.922 7.023-1.031.618-5.072 5.522-8.47 10z"/><path d="M304.809 158.27c-.144-.005-27.659-1.88-31.724-2.194-3.967-.305-16.649-.616-16.776-.619-1.036-.026-1.854-.885-1.83-1.92.026-1.036.98-1.815 1.92-1.83.526.013 12.909.317 16.974.631 4.06.311 31.545 2.186 31.545 2.186l32.981-.317c1.016-.089 1.882.823 1.892 1.858s-.823 1.882-1.858 1.892l-33.124.313z"/><path d="M297.075 208.253l-23.879-51.592c-.435-.94-.027-2.054.913-2.489.142-.066.288-.112.435-.14.071-.259.198-.508.383-.726 1.101-1.294 10.833-12.711 13.713-14.952.356-.277.664-.543.942-.785 3.096-2.683 4.946-2.283 9.893 2.113 5.527 4.912 18.135 15.046 18.262 15.149l1.096.88-21.758 52.542zm-19.946-52.024l19.756 42.683 17.41-42.042c-3.215-2.595-12.686-10.275-17.31-14.386-2.891-2.57-3.73-2.848-3.96-2.848-.154.044-.635.463-.989.768-.322.28-.679.587-1.091.908-2.183 1.698-10.242 10.986-13.162 14.423-.186.218-.41.383-.654.494z"/><path d="M293.227 120.041c-.635 0-1.179-.483-1.243-1.129-.051-.532-1.255-13.088-.833-18.551.405-5.292-.413-40.767-.422-41.124-.015-.691.53-1.263 1.221-1.279.684.078 1.262.532 1.279 1.221.034 1.466.828 35.958.415 41.375-.405 5.248.818 17.99.83 18.118.066.687-.437 1.299-1.125 1.365l-.122.004z"/><path d="M291.357 112.399s-.21-3.911-.21-4.546v-12.083c.005-.631.105-15.271.21-17.053.051-.88-.107-4.912-.234-8.152-.171-4.369-.232-6.062-.176-6.51.054-.435-.122-2.566-.315-4.293-.076-.686.417-1.304 1.104-1.381.713-.072 1.306.417 1.382 1.105.103.914.425 3.967.31 4.878-.029.414.093 3.568.193 6.102.144 3.636.291 7.395.232 8.4-.103 1.716-.205 16.761-.205 16.913v12.075c0 .615.205 4.409.205 4.412l-2.496.133z"/><path d="M296.667 272.645c-.671 0-1.226-.53-1.25-1.206-.002-.085-.312-8.735-.618-11.467-.317-2.854-.02-39.827-.007-41.399.005-.688.557-1.306 1.26-1.24.691.005 1.245.569 1.24 1.26-.088 10.671-.256 38.855-.007 41.101.315 2.827.618 11.299.632 11.658.024.688-.515 1.27-1.206 1.294l-.044-.001z"/><path d="M296.355 272.332c-.691 0-1.25-.559-1.25-1.25v-8.75c0-2.1-.62-13.01-.93-15.798-.317-2.866.281-25.762.305-26.733.017-.691.623-1.167 1.282-1.218.691.02 1.235.593 1.218 1.282-.173 6.582-.569 24.155-.32 26.392.325 2.925.945 13.877.945 16.077v8.75c0 .689-.559 1.248-1.25 1.248z"/><path d="M378.528 160.959c-1.66 0-3.076-.026-4.121-.088-6.965-.409-23.923-.414-24.094-.414-.691 0-1.25-.559-1.25-1.25s.559-1.25 1.25-1.25c.171 0 17.202.005 24.241.419 6.929.406 31.699-.82 31.946-.834.754-.061 1.279.498 1.311 1.187.034.69-.496 1.276-1.184 1.311-.875.043-18.527.919-28.099.919z"/><path d="M385.574 161.247c-4.241 0-8.374-.095-11.218-.38-8.174-.817-21.821-.826-21.958-.826-.691 0-1.25-.559-1.25-1.25s.559-1.25 1.25-1.25c.139 0 13.909.01 22.207.839 8.145.814 27.954.001 28.157-.005.664-.076 1.272.508 1.301 1.196.027.69-.508 1.273-1.199 1.301-.54.024-9.117.375-17.29.375z"/><path d="M337.397 130.874c-.305 0-.61-.111-.852-.334-.505-.471-.532-1.262-.063-1.768 1.143-1.226 28.018-30.099 34.229-35.895.5-.47 1.294-.442 1.765.061.471.505.444 1.296-.061 1.768-6.145 5.736-33.823 35.47-34.102 35.77-.247.263-.581.398-.916.398z"/><path d="M338.23 129.207c-.337 0-.671-.135-.918-.402-.469-.508-.437-1.299.071-1.766 1.482-1.37 5.547-5.206 6.514-6.498.417-.558 1.76-1.913 4.292-4.462 4.492-4.518 12.007-12.079 13.066-14.464 1.812-4.077 7.771-7.516 8.022-7.66.596-.348 1.365-.135 1.704.465.344.599.134 1.362-.464 1.705-.054.032-5.5 3.177-6.978 6.505-1.152 2.592-7.08 8.673-13.577 15.21-1.919 1.931-3.733 3.756-4.065 4.199-1.282 1.709-6.257 6.316-6.821 6.835-.238.223-.543.333-.846.333z"/><path d="M352.917 222.02c-.32 0-.64-.122-.884-.366-1.663-1.663-23.774-25.173-24.714-26.173-.474-.503-.449-1.295.054-1.768.5-.474 1.292-.448 1.768.054.229.245 23.025 24.484 24.661 26.119.488.488.488 1.279 0 1.768-.245.244-.565.366-.885.366z"/><path d="M353.23 222.54c-.327 0-.652-.127-.898-.381-.125-.129-12.48-12.892-14.902-14.907-2.571-2.144-8.672-9.858-8.931-10.186-.427-.542-.334-1.328.208-1.757s1.328-.337 1.755.206c.061.078 6.196 7.838 8.569 9.814 2.522 2.102 14.585 14.561 15.098 15.09.481.496.466 1.287-.029 1.768-.243.236-.558.353-.87.353z"/><path d="M243.23 156.707h-11.875c-.691 0-1.25-.559-1.25-1.25s.559-1.25 1.25-1.25h11.875c.691 0 1.25.559 1.25 1.25s-.559 1.25-1.25 1.25z"/><path d="M241.563 156.707h-10.97c-.691 0-1.25-.559-1.25-1.25s.559-1.25 1.25-1.25h10.97c.691 0 1.25.559 1.25 1.25s-.559 1.25-1.25 1.25z"/><path d="M261.98 124.207c-.332 0-.663-.132-.909-.392-.208-.22-20.815-22.026-28.508-26.885-8.075-5.1-10.712-9.399-10.82-9.58-.355-.592-.164-1.36.428-1.715s1.36-.162 1.715.428c.022.035 2.505 4.011 10.012 8.752 7.958 5.027 28.136 26.377 28.992 27.283.474.503.45 1.294-.051 1.768-.243.228-.552.341-.859.341z"/><path d="M255.73 118.374c-.32 0-.64-.122-.884-.366-.129-.128-12.925-12.915-17.407-16.582-4.545-3.718-13.684-11.609-13.776-11.688-.522-.452-.581-1.24-.129-1.763.453-.525 1.241-.579 1.763-.129.092.079 9.207 7.948 13.724 11.644 4.58 3.746 17.064 16.221 17.593 16.75.488.488.488 1.279 0 1.768-.245.243-.564.366-.884.366z"/><path d="M237.812 225.457c-.278 0-.558-.093-.791-.283-.533-.437-.613-1.223-.175-1.758l3.75-4.583c3.718-4.548 25.635-29.775 25.856-30.031.453-.521 1.245-.575 1.764-.123.521.453.576 1.243.123 1.764-.221.254-22.113 25.453-25.808 29.972l-3.751 4.583c-.246.303-.605.459-.968.459z"/><path d="M239.063 222.957c-.33 0-.658-.129-.905-.386-.476-.5-.458-1.292.042-1.768 4.409-4.209 9.244-9.249 9.702-10.394.903-2.26 7.252-10.743 11.163-14.22 3.624-3.221 5.684-5.675 5.704-5.699.441-.53 1.227-.602 1.76-.159.53.442.602 1.229.16 1.76-.088.105-2.188 2.61-5.964 5.966-3.756 3.34-9.792 11.505-10.502 13.28-.89 2.223-8.734 9.781-10.298 11.273-.24.233-.551.347-.862.347z"/><path d="M313.855 124.416c-.144 0-.291-.024-.435-.078-.647-.239-.977-.958-.737-1.605l13.958-37.709c.239-.648.957-.978 1.606-.739.647.239.977.958.737 1.605l-13.958 37.709c-.185.506-.663.817-1.171.817z"/><path d="M314.272 122.957c-.117 0-.237-.016-.354-.051-.662-.195-1.04-.891-.845-1.553.112-.378 2.764-9.323 5.278-14.562 2.441-5.083 7.808-20.747 7.864-20.906.222-.653.933-.999 1.587-.778.652.223 1.001.934.776 1.588-.222.648-5.469 15.962-7.971 21.177-2.429 5.057-5.11 14.098-5.137 14.188-.16.546-.658.897-1.198.897z"/><path d="M352.812 185.041c-.269 0-.54-.085-.767-.264-1.833-1.425-11.731-8.439-11.831-8.508-.564-.399-.696-1.179-.298-1.743.4-.565 1.182-.691 1.743-.298.41.291 10.044 7.117 11.919 8.577.547.424.645 1.208.22 1.754-.246.316-.615.482-.986.482z"/><path d="M353.542 186.395c-.21 0-.42-.051-.613-.161-3.13-1.76-4.795-3.453-6.011-4.69l-.405-.411c-1.184-1.184-5.061-4.247-5.1-4.277-.542-.428-.635-1.213-.208-1.755.43-.541 1.216-.632 1.755-.208.164.129 4.033 3.186 5.32 4.473l.422.426c1.172 1.193 2.629 2.677 5.452 4.265.603.338.815 1.1.476 1.702-.228.406-.653.636-1.088.636z"/><path d="M346.433 145.563l-.991-2.295c.002-.001 10.613-4.579 14.775-6.451 4.136-1.86 15.129-6.427 15.242-6.473.635-.261 1.367.037 1.633.675.264.638-.039 1.37-.676 1.635-.11.045-11.069 4.598-15.173 6.444-4.173 1.877-14.81 6.465-14.81 6.465z"/><path d="M347.605 144.832c-.464 0-.911-.26-1.125-.708-.3-.621-.039-1.368.583-1.669.232-.111 5.698-2.742 8.828-3.993 3.071-1.228 18.142-7.833 18.293-7.9.632-.271 1.372.01 1.648.643.276.632-.01 1.37-.642 1.647-.623.272-15.264 6.688-18.372 7.932-3.049 1.219-8.616 3.898-8.672 3.925-.173.084-.358.123-.541.123z"/><path d="M277.81 123.582c-.579 0-1.099-.406-1.221-.997-.042-.19-3.958-19.136-5.171-22.773-1.251-3.756-3.755-11.687-3.755-11.687l2.383-.752c.001.001 2.498 7.904 3.745 11.648 1.257 3.777 5.083 22.273 5.244 23.059.142.676-.295 1.337-.969 1.477l-.256.025z"/><path d="M277.395 122.332c-.593 0-1.121-.425-1.228-1.03-.01-.057-1.052-5.853-2.48-11.365-1.438-5.546-5.576-20.032-5.618-20.178-.189-.663.195-1.355.859-1.545.663-.183 1.355.194 1.545.859.042.145 4.187 14.662 5.635 20.237 1.453 5.607 2.51 11.494 2.52 11.553.122.68-.332 1.329-1.011 1.45l-.222.019z"/><path d="M251.562 141.499c-.198 0-.398-.046-.585-.146-.2-.106-20.059-10.653-26.223-13.735-4.447-2.224-5.266-2.92-4.869-4.139.184-.566.778-1.1 1.885-.919.592.099 1.017.599 1.042 1.177.538.33 1.467.85 3.06 1.646 6.193 3.096 26.077 13.658 26.277 13.765.61.323.842 1.08.518 1.689-.225.421-.657.662-1.105.662z"/><path d="M243.437 137.332c-.205 0-.413-.05-.604-.156-.098-.054-9.784-5.41-10.996-6.017l-9.583-4.792 1.118-2.236 9.583 4.792c1.259.63 10.687 5.844 11.089 6.066.603.334.823 1.095.488 1.699-.228.411-.654.644-1.095.644z"/><path d="M226.565 192.541c-.466 0-.914-.261-1.129-.71-.298-.623-.034-1.37.588-1.667.095-.045 9.575-4.583 12.419-6.207 2.867-1.639 15.054-9.075 15.177-9.149.588-.36 1.359-.173 1.718.416.36.588.173 1.359-.416 1.718-.502.306-12.339 7.528-15.238 9.186-2.924 1.67-12.188 6.105-12.581 6.293-.175.081-.358.12-.538.12z"/><path d="M228.797 191.571l-1.135-2.227s10.631-5.42 13.55-6.88c2.805-1.403 10.809-6.937 10.89-6.993.568-.396 1.346-.25 1.74.316.393.568.251 1.346-.316 1.74-.334.232-8.232 5.692-11.195 7.174-2.915 1.457-13.534 6.87-13.534 6.87z"/><path d="M268.02 233.165c-.211 0-.426-.054-.621-.166-.599-.344-.806-1.108-.461-1.707.048-.083 4.791-8.335 6.217-11.187 1.45-2.9 7.473-13.944 7.729-14.413.327-.607 1.091-.831 1.694-.499.605.331.83 1.09.498 1.696-.061.115-6.255 11.473-7.686 14.335-1.46 2.917-6.089 10.972-6.285 11.313-.232.403-.652.628-1.085.628z"/><path d="M327.187 228.375c-.422 0-.837-.217-1.072-.608-.024-.042-2.495-4.153-3.909-6.174-1.46-2.087-10.002-14.381-10.002-14.381l2.051-1.426s8.542 12.289 10 14.374c1.465 2.092 3.901 6.15 4.004 6.323.356.591.164 1.36-.43 1.714-.2.122-.422.178-.642.178z"/><path d="M326.562 227.54c-.432 0-.854-.227-1.086-.63-.032-.059-3.323-5.801-6.15-9.436-2.913-3.748-6.372-9.026-6.516-9.248-.378-.579-.217-1.353.361-1.731.574-.375 1.35-.219 1.729.361.037.055 3.55 5.419 6.399 9.084 2.939 3.777 6.211 9.487 6.35 9.729.342.601.134 1.362-.466 1.707-.196.11-.408.164-.621.164z"/><path d="M302.983 124.041c-.105 0-.21-.013-.317-.04-.667-.176-1.067-.859-.891-1.527.024-.095 2.524-9.64 3.533-14.077.969-4.269 1.084-5.348 1.089-5.392.071-.682.676-1.189 1.362-1.122.684.065 1.187.664 1.128 1.349-.01.115-.127 1.251-1.143 5.718-1.016 4.479-3.525 14.062-3.552 14.159-.147.561-.655.932-1.209.932z"/><path d="M325.105 130.666c-.188 0-.378-.043-.559-.132-.618-.309-.867-1.06-.559-1.677.032-.061 3.083-6.179 3.875-8.951.854-2.986 3.506-8.507 3.618-8.74.3-.623 1.045-.883 1.667-.585.623.3.884 1.047.583 1.669-.027.055-2.671 5.564-3.467 8.344-.854 2.993-3.911 9.122-4.041 9.382-.219.437-.661.69-1.117.69z"/><path d="M337.605 140.666c-.425 0-.84-.217-1.074-.61-.354-.593-.159-1.361.435-1.714.359-.214 8.796-5.236 11.084-6.482l4.583-2.5c.605-.332 1.365-.107 1.697.499.33.605.105 1.365-.5 1.696l-4.583 2.5c-2.246 1.224-10.913 6.383-11.001 6.436-.202.119-.422.175-.641.175z"/><path d="M346.22 154.174l-.566-2.434s8.97-2.086 10.847-2.504c1.963-.436 7.288-.645 7.512-.653l.049-.001c.669 0 1.223.529 1.25 1.202.027.69-.513 1.27-1.201 1.296-1.475.057-5.62.276-7.068.597-1.872.416-10.823 2.497-10.823 2.497z"/><path d="M359.162 175.759s-2.727-1.26-4.824-2.308l-9.585-4.791 1.118-2.236 9.585 4.791c2.065 1.033 4.751 2.273 4.756 2.274l-1.05 2.27z"/><path d="M347.397 197.124c-.378 0-.754-.172-.999-.499-.02-.023-1.787-2.356-4.07-3.877-2.544-1.696-8.232-6.768-8.474-6.982-.515-.46-.559-1.25-.1-1.765.459-.518 1.25-.558 1.765-.1.059.051 5.798 5.17 8.196 6.768 2.646 1.765 4.6 4.347 4.683 4.457.413.552.3 1.334-.251 1.748-.225.168-.489.25-.75.25z"/><path d="M329.062 212.541c-.444 0-.874-.238-1.101-.658-.015-.026-1.426-2.634-3.198-4.801-1.816-2.218-5.093-5.499-5.125-5.532-.488-.488-.488-1.279 0-1.768s1.279-.488 1.768 0c.139.138 3.398 3.403 5.291 5.718 1.929 2.357 3.406 5.084 3.467 5.199.327.608.1 1.365-.508 1.692-.188.102-.394.15-.594.15z"/><path d="M313.022 228.165c-.403 0-.798-.195-1.04-.557-.071-.105-1.724-2.588-2.788-4.717-1.001-2.007-5.107-8.582-5.149-8.647-.366-.583-.188-1.356.398-1.721.581-.365 1.355-.189 1.721.397.171.275 4.211 6.742 5.266 8.854.996 1.99 2.615 4.424 2.632 4.448.383.574.227 1.35-.347 1.733-.212.141-.453.21-.693.21z"/><path d="M282.275 228.702c-.232 0-.466-.063-.676-.2-.579-.371-.747-1.145-.376-1.726.015-.022 1.389-2.185 2.612-5.674 1.296-3.696 2.922-8.265 2.922-8.265l2.354.839s-1.621 4.563-2.917 8.254c-1.328 3.789-2.805 6.104-2.869 6.199-.237.37-.64.573-1.05.573z"/><path d="M264.27 216.082c-.227 0-.455-.061-.662-.19-.585-.366-.763-1.138-.397-1.721.044-.073 1.117-1.776 3.439-4.52 2.244-2.653 8.025-10.287 8.083-10.364.415-.553 1.206-.657 1.75-.242.549.416.659 1.2.242 1.75-.239.316-5.879 7.766-8.167 10.469-2.194 2.592-3.219 4.215-3.229 4.232-.236.379-.643.586-1.059.586z"/><path d="M246.98 196.291c-.496 0-.964-.297-1.16-.785-.258-.641.054-1.368.695-1.625-.004 0 1.016-.483 3.611-2.708 2.919-2.502 9.385-7.925 9.385-7.925l1.606 1.917c-.001 0-6.451 5.41-9.365 7.906-2.926 2.509-4.1 3.047-4.307 3.129-.153.063-.31.091-.465.091z"/><path d="M234.271 172.541c-.691 0-1.25-.559-1.25-1.25s.559-1.25 1.25-1.25c-.002-.001 1.071-.084 4.796-1.388 4.18-1.465 9.407-3.136 9.407-3.136l.762 2.38c-.005.001-5.193 1.661-9.343 3.114-4.052 1.42-5.328 1.53-5.622 1.53z"/><path d="M247.188 148.791c-.149 0-.302-.027-.449-.083-.081-.032-8.115-3.119-10.752-3.931-.66-.204-1.03-.903-.828-1.562.204-.657.903-1.03 1.562-.828 2.719.837 10.581 3.859 10.916 3.987.643.248.966.972.718 1.616-.191.497-.665.801-1.167.801z"/><path d="M257.395 131.707c-.172 0-.348-.035-.516-.112-.19-.087-4.677-2.13-6.394-3.202-1.615-1.01-6.55-3.685-6.6-3.712-.607-.328-.833-1.088-.503-1.694.328-.607 1.088-.83 1.694-.503.205.111 5.054 2.739 6.733 3.789 1.578.985 6.06 3.026 6.105 3.047.629.286.906 1.027.62 1.655-.209.46-.663.732-1.139.732z"/><path d="M270.73 121.291c-.508 0-.985-.311-1.172-.815-.021-.055-2.054-5.527-3.424-7.682-1.47-2.307-3.508-6.174-3.594-6.338-.322-.61-.087-1.367.524-1.688s1.368-.088 1.688.524c.021.039 2.078 3.94 3.491 6.161 1.511 2.378 3.571 7.92 3.658 8.154.239.648-.09 1.367-.737 1.606-.144.054-.29.078-.434.078z"/><path d="M286.352 121.291c-.586 0-1.111-.415-1.226-1.013-.042-.223-1.055-5.49-1.265-7.391-.208-1.868-1.245-9.127-1.245-9.127l2.476-.354s1.047 7.323 1.255 9.205c.2 1.804 1.226 7.141 1.235 7.194.129.679-.315 1.334-.991 1.465l-.239.021z"/></g><g fill="#575A5B"><path d="M402.534 332.154c-.854 0-1.628-.588-1.826-1.46-.884-3.892-5.305-23.403-5.425-25.33-.093-1.514-1.016-3.489-1.831-3.914-1.545-.801-4.077-1.877-7.524-3.196-1.194-.457-3.804-.908-6.567-1.387-4.993-.867-10.652-1.848-14.268-3.689-2.244-1.14-5.906-2.185-9.448-3.198-6.196-1.768-9.756-2.864-10.869-4.785-1.506-2.607-.286-4.685 3.337-10.857 1.492-2.537 3.533-6.011 6.079-10.662 6.248-11.399 6.86-16.426 7.188-19.126.105-.85.193-1.582.41-2.288.325-1.057.72-2.664 1.172-4.473.64-2.578 1.365-5.503 2.141-7.954.889-2.817.825-5.63.759-8.606-.024-1.04-.049-2.078-.032-3.12.042-2.729-1.992-15.403-3.208-22.975-.549-3.419-.996-6.206-1.165-7.474-.293-2.195-.251-3.748.859-4.707 1.125-.975 2.495-.579 3.496-.289.269.077.559.162.872.231 1.731.381 3.628 1.583 6.499 3.403 1.509.957 3.284 2.083 5.396 3.311 4.314 2.509 7.217 4.086 8.401 4.719.903-.212 2.732-.668 5.366-1.448.876-.26 2.319-.706 4.128-1.266 6.56-2.03 17.542-5.427 24.578-7.09 7.791-1.841 16.88-2.372 19.517-2.493 1.006-.969 3.237-3.025 5.227-4.177 1.677-1.016 7.031-11 8.264-14.305 1.184-3.173 2.825-5.048 2.893-5.126l.894-1.011 1.243.527c2.004.852 5.906 4.952 7.917 11.05 1.096 3.322 2.092 8.676 3.147 14.344.835 4.479 1.697 9.111 2.607 12.664 1.128 4.397 3.096 15.822 5.583 30.286 2.075 12.053 4.426 25.713 6.76 37.954 3.767 19.741 3.767 19.741 1.67 20.195-1.921.422-2.332-1.331-2.866-3.535-.117-.483-.037-.967.19-1.37-.405-2.427-1.187-6.785-2.676-14.587-2.341-12.275-4.695-25.952-6.772-38.022-2.378-13.811-4.431-25.737-5.522-29.988-.942-3.676-1.816-8.37-2.661-12.91-1.03-5.541-2.004-10.775-3.02-13.856-1.272-3.854-3.328-6.509-4.666-7.833-.383.647-.823 1.5-1.206 2.528-.847 2.264-6.648 14.357-9.9 16.24-1.804 1.045-4.199 3.308-4.968 4.092l-.527.535-.75.024c-.107.004-10.857.378-19.514 2.424-6.914 1.633-17.817 5.006-24.333 7.023-1.829.565-3.286 1.017-4.172 1.279-4.028 1.193-6.223 1.65-6.316 1.669l-.652.135-.591-.308c-.134-.07-3.342-1.741-9.158-5.122-2.161-1.257-3.975-2.407-5.52-3.386-2.351-1.49-4.209-2.668-5.295-2.908-.278-.061-.544-.132-.796-.201.02.221.049.488.09.809.168 1.252.61 4.001 1.15 7.375 1.741 10.84 3.298 20.803 3.257 23.628-.015.994.007 1.985.029 2.976.071 3.152.146 6.411-.933 9.819-.74 2.341-1.45 5.205-2.078 7.729-.469 1.89-.886 3.567-1.226 4.67-.117.386-.186.94-.271 1.641-.359 2.952-1.028 8.442-7.62 20.474-2.576 4.7-4.634 8.203-6.135 10.759-2.659 4.529-3.723 6.392-3.325 7.08.715.791 5.491 2.156 8.652 3.057 3.711 1.062 7.551 2.158 10.117 3.462 3.115 1.587 8.711 2.556 13.208 3.335 3.076.535 5.732.994 7.268 1.582 3.628 1.387 6.216 2.49 7.913 3.369 2.571 1.338 3.723 5.01 3.848 7.012.107 1.396 3.33 15.908 5.337 24.729.229 1.008-.403 2.014-1.414 2.244-.138.034-.277.049-.416.049z"/><path d="M399.944 333.76s-4.136-25.11-4.639-28.21c-.359-2.205-1.172-3.127-2.031-4.104l-.388-.444c-.576-.61-4.092-2.092-8.911-3.154-1.06-.234-2.371-.488-3.823-.769-4.836-.938-10.857-2.104-14.944-3.843-1.873-.796-4.971-1.758-7.969-2.688-7.402-2.295-11.028-3.547-12.295-5.11-2.292-2.827-.188-6.36 2.473-10.83l1.577-2.681c2.891-4.963 8.274-14.204 9.675-19.106.618-2.168 1.282-4.102 1.987-6.15 1.069-3.11 2.173-6.323 3.215-10.684 1.682-7.051 1.809-9.91 1.958-17.881.095-5.153-1.616-13.669-2.991-20.513-.654-3.256-1.272-6.331-1.616-8.635-.515-3.457-.54-5.413.752-6.512 1.218-1.041 2.681-.569 3.975-.159.552.176 1.194.385 1.921.52 2.402.447 5.117 2.776 8.259 5.472 2.581 2.216 5.508 4.727 7.742 5.546 4.255 1.556 6.282.909 12.424-2.321 4.351-2.288 8.367-3.185 14.443-4.545 2.834-.634 6.169-1.379 10.281-2.426 10.5-2.676 17.175-2.71 19.573-2.592.947-1.03 2.922-3.123 5.667-5.748 2.434-2.329 5.376-8.094 7.324-11.909.984-1.931 1.763-3.456 2.349-4.344.559-.85 1.47-1.986 2.91-2.056 1.604-.035 2.512 1.102 3.347 2.141.249.311.518.648.823.97 1.931 2.05 2.744 3.518 4.404 9.292 1.592 5.538 3.828 17.194 5.798 27.683.867 4.62 1.711 10.177 2.688 16.609 1.099 7.227 2.341 15.417 3.855 23.701.891 4.868 1.726 9.727 2.527 14.382 1.702 9.905 3.311 19.263 4.902 25.413.261 1.003-.342 2.026-1.343 2.285-1.011.261-2.029-.339-2.285-1.343-1.633-6.304-3.181-15.3-4.971-25.72-.798-4.641-1.631-9.487-2.52-14.343-1.523-8.337-2.771-16.558-3.872-23.811-.974-6.399-1.812-11.925-2.668-16.479-1.953-10.406-4.167-21.958-5.715-27.341-1.531-5.323-2.117-6.255-3.53-7.754-.374-.397-.708-.809-1.016-1.193l-.249-.306c-.474.741-1.228 2.217-2.095 3.918-2.185 4.282-5.178 10.146-8.071 12.915-3.735 3.574-6.055 6.189-6.079 6.216l-.649.735-.977-.116c-.063-.01-6.831-.725-19.199 2.428-4.155 1.058-7.527 1.813-10.388 2.452-5.994 1.34-9.609 2.148-13.521 4.205-6.028 3.169-9.453 4.72-15.457 2.521-2.874-1.052-5.935-3.679-8.896-6.221-2.385-2.047-5.09-4.369-6.499-4.631-.901-.167-1.697-.416-2.378-.634l-.161-.051c.022.525.098 1.339.286 2.595.33 2.213.938 5.243 1.582 8.451 1.484 7.388 3.167 15.76 3.064 21.32-.151 8.101-.293 11.277-2.061 18.682-1.084 4.539-2.219 7.839-3.318 11.033-.686 2-1.335 3.889-1.926 5.962-1.531 5.354-6.858 14.5-10.042 19.963l-1.594 2.712c-1.528 2.563-3.428 5.754-2.783 6.548.896.916 6.672 2.708 10.493 3.892 3.23 1.001 6.279 1.948 8.328 2.817 3.721 1.584 9.771 2.756 14.189 3.613 1.487.288 2.83.549 3.916.789.908.2 8.95 2.029 10.962 4.387l.342.396c1.008 1.143 2.39 2.71 2.92 5.981.503 3.101 4.639 28.201 4.639 28.201l-3.7.611z"/><path d="M411.507 284.019s4.284 3.494 8.263 1.998 19.166-3.993 24.004-6.795 8.211-3.948 12.833-5.17c4.621-1.223 4.78-3.737 8.638-2.095s3.992 3.825.421 6.862-22.056 7.928-26.187 6.929l-6.41-2.425"/><path d="M417.676 288.262c-3.879 0-7.185-2.651-7.354-2.791-.803-.654-.923-1.836-.269-2.637s1.833-.925 2.634-.271c.073.054 3.523 2.781 6.423 1.697 1.587-.598 4.636-1.296 8.164-2.107 5.684-1.306 12.756-2.93 15.559-4.556 4.929-2.854 8.474-4.084 13.293-5.359 1.516-.403 2.437-.945 3.328-1.467 1.611-.947 3.271-1.919 6.523-.542.916.391 3.701 1.577 4.097 4.172.283 1.863-.762 3.774-3.193 5.845-4.089 3.474-23.093 8.499-27.844 7.322-4.377-1.057-6.863-2.59-6.965-2.656l-.029-.017c-1.318.312-2.639.615-3.928.913-3.254.747-6.331 1.453-7.686 1.963-.925.35-1.855.491-2.753.491zm20.288-4.882c.588.188 1.243.374 1.953.544 3.572.876 21.443-3.904 24.536-6.533 2-1.702 1.917-2.417 1.914-2.424-.022-.146-.4-.664-1.858-1.284-1.519-.649-1.797-.476-3.152.322-.952.559-2.256 1.326-4.272 1.86-4.604 1.218-7.781 2.322-12.371 4.98-1.565.906-3.979 1.746-6.75 2.535z"/><path d="M357.185 263.233c-.347 0-.698-.098-1.013-.305-.178-.117-1.797-1.243-3.071-4.097-.642-1.438-3.359-3.423-4.575-4.158-.886-.537-1.169-1.689-.632-2.576.535-.884 1.682-1.167 2.576-.632.483.293 4.766 2.947 6.055 5.837.815 1.824 1.738 2.512 1.748 2.52.823.598 1.035 1.76.454 2.595-.368.528-.949.816-1.542.816z"/><path d="M357.517 263.221c-.774 0-1.497-.481-1.768-1.252-.352-.991-3.279-3.899-5.796-5.994-.796-.662-.906-1.843-.242-2.639.659-.803 1.848-.906 2.639-.242 1.409 1.172 6.072 5.186 6.934 7.629.344.977-.168 2.046-1.145 2.39-.205.074-.415.108-.622.108z"/><path d="M352.397 271.673c-.278 0-.559-.061-.828-.193-1.77-.874-8.086-3.154-10.371-3.96-.977-.344-1.489-1.414-1.145-2.39.344-.979 1.421-1.492 2.39-1.145.344.12 8.452 2.981 10.786 4.131.928.459 1.309 1.582.852 2.512-.326.662-.99 1.045-1.684 1.045z"/><path d="M352.126 272.318c-.254 0-.513-.051-.759-.161l-8.689-3.85c-.947-.42-1.375-1.526-.955-2.473.42-.95 1.528-1.377 2.473-.955l8.689 3.85c.947.42 1.375 1.526.955 2.473-.31.701-.996 1.116-1.714 1.116z"/><path d="M359.748 304.722c-.278 0-.559-.061-.825-.193-.93-.459-1.311-1.582-.854-2.51l1.484-3.013c1.343-2.727 2.224-7.925 2.234-7.979.168-1.021 1.123-1.729 2.158-1.538 1.021.171 1.709 1.135 1.541 2.156-.042.237-.981 5.793-2.568 9.016l-1.484 3.013c-.328.665-.992 1.048-1.686 1.048z"/><path d="M377.475 307.811l-.093-.002c-1.035-.051-1.831-.93-1.782-1.963.073-1.531-.1-3.325-.361-3.767-1.172-1.541-.947-5.144-.708-7.151.125-1.028 1.047-1.768 2.085-1.638 1.028.122 1.763 1.055 1.641 2.083-.222 1.858-.2 4.028.044 4.551 1.135 1.487 1.111 4.768 1.045 6.106-.049 1.002-.879 1.781-1.871 1.781z"/><path d="M377.317 305.316c-.945 0-1.755-.71-1.86-1.672l-.952-8.708c-.115-1.028.63-1.953 1.66-2.065 1.025-.137 1.953.63 2.065 1.66l.952 8.708c.115 1.028-.63 1.953-1.66 2.065l-.205.012z"/><path d="M449.775 241.175c-.984 0-1.809-.767-1.87-1.76-.007-.142-.205-3.469-.042-7.698.11-2.922-.691-3.657-4.963-7.075l-.75-.598c-.989-.796-1.462-.889-1.56-.901.032.073-.708 1.16-.415 5.894.266 4.363 3.115 8.364 3.142 8.403.605.84.417 2.012-.42 2.617-.847.603-2.009.417-2.617-.417-.142-.198-3.513-4.902-3.85-10.374-.337-5.481.444-8.408 2.537-9.49 1.56-.808 3.418-.354 5.532 1.343l.742.596c4.363 3.489 6.555 5.239 6.367 10.146-.154 4.043.039 7.292.042 7.324.061 1.035-.725 1.924-1.758 1.987l-.117.003z"/><path d="M445.251 242.288c-.354 0-.71-.1-1.028-.31-.793-.52-7.754-5.239-8.057-10.193-.1-1.653-.417-9.99 3.364-11.836 1.074-.527 2.817-.735 5.037 1.228l1.211 1.064c4.097 3.591 6.567 5.759 5.801 9.89-.19 1.021-1.179 1.702-2.185 1.501-1.018-.188-1.692-1.167-1.501-2.185.347-1.87-.437-2.747-4.587-6.387l-1.223-1.077c-.574-.508-.925-.635-1.011-.642-.569.413-1.426 3.923-1.16 8.213.146 2.437 4.358 5.964 6.372 7.292.867.569 1.106 1.731.535 2.595-.359.549-.957.847-1.568.847z"/><path d="M413.366 239.652c-.471 0-.942-.176-1.309-.532-.21-.203-5.129-5.076-4.065-11.453.706-4.224 2.896-5.144 4.138-5.315 2.278-.31 4.646 1.416 6.06 4.414 2.114 4.468 1.614 10.242 1.592 10.486-.095 1.03-1.023 1.814-2.036 1.694-1.03-.093-1.792-1.003-1.699-2.034.005-.051.425-5.012-1.245-8.545-.825-1.748-1.892-2.327-2.156-2.302-.159.022-.681.588-.952 2.217-.747 4.465 2.942 8.115 2.981 8.152.742.72.757 1.909.034 2.651-.366.376-.854.567-1.343.567z"/><path d="M412.353 236.793c-.354 0-.71-.1-1.03-.31-.186-.122-4.526-3.059-3.315-8.889.569-2.734 2.412-4.443 5.007-4.395 2.483.066 5.293 2.053 5.854 5.723l.696 4.548c.156 1.023-.547 1.98-1.57 2.136-.996.156-1.98-.544-2.136-1.57l-.696-4.548c-.264-1.716-1.472-2.52-2.246-2.539h-.032c-.605 0-1.013.474-1.206 1.406-.701 3.367 1.685 4.98 1.709 4.998.864.569 1.104 1.731.532 2.598-.358.546-.956.842-1.567.842z"/></g><path fill="#575A5B" d="M446.98 427.957l-.154-.007c-.737-.061-74.282-6.77-134.895-64.89l-5.747-5.947c-75.693 6.179-142.469-3.411-193.154-27.749-45.089-21.655-75.209-53.933-84.81-90.891-10.731-41.311 4.431-94.584 40.562-142.504.624-.825 1.801-.99 2.626-.367.826.623.991 1.798.367 2.626-35.446 47.012-50.371 99.088-39.925 139.302 9.319 35.872 38.726 67.285 82.803 88.452 50.282 24.148 116.711 33.599 192.105 27.322.579-.044 1.113.161 1.504.564l6.316 6.536c51.965 49.827 113.511 61.228 128.926 63.372-29.675-52.356-42.539-92.622-42.666-93.032-.293-.928.173-1.926 1.072-2.297 53.584-22.087 140.671-73.391 121.902-168.849-14.708-74.81-76.237-113.036-125.262-131.931-53.321-20.551-103.75-23.338-104.253-23.363-.972-.062-95.146-5.752-161.772 36.603-16.49 10.485-32.916 24.711-47.502 41.14-.687.773-1.871.844-2.648.157-.774-.688-.845-1.873-.157-2.648 14.816-16.686 31.515-31.145 48.296-41.814 67.669-43.021 163.048-37.243 164.002-37.182.481.024 51.511 2.844 105.381 23.607 71.57 27.584 115.691 74.165 127.595 134.707 19.097 97.125-67.783 149.486-122.541 172.369 2.769 8.188 16.306 46.316 43.655 93.904.347.605.33 1.353-.044 1.941-.344.545-.945.869-1.582.869z"/><path fill="#575A5B" d="M446.157 427.967c-8.796 0-41.858-9.98-42.224-10.09-15.115-4.602-67.708-28.025-81.487-43.682-2.468-2.805-4.592-5.173-6.414-7.166-3.372-3.14-6.67-6.44-9.866-9.9-3.547.334-16.692 1.46-35.315 1.736-23.556.513-54.579-.071-80.465-4.897l-3.999-.747c-9.966-1.606-20.011-3.633-29.908-6.172-38.499-9.146-79.47-25.251-108.949-67.18-26.626-37.869-29.703-83.806-9.779-133.015 1.005-2.822 2.045-5.598 3.105-8.326.044-.112.099-.221.164-.323.553-.872 1.122-1.771 1.704-2.694 6.864-14.55 15.698-29.351 26.486-44.276 2.314-3.204 3.27-4.529 4.938-3.397 1.943 1.316 2.224 1.51-28.101 49.437-1.788 3.802-3.442 7.593-4.956 11.356-16.963 47.651-22.478 102.991 42.119 159.16 19.767 17.19 45.909 28.223 72.512 35.266 11.937 2.859 23.826 5.076 35.352 7.224l.459.085c10.479 1.575 20.594 2.656 29.948 3.386 13.971 1.089 27.2 1.489 38.883 1.511 25.862-.144 45.828-1.909 46.375-1.96l.122-.007h.053c.391 0 .769.122 1.086.347.405.286 2.837 2.151 10.713 10.762 46.692 43.43 108.281 56.426 124.465 59.192-.396-1.177-.74-2.673-.977-4.575-.02-.151-.063-.352-.132-.601-2.175-4.17-5.088-9.36-7.512-13.684-3.123-5.566-6.072-10.823-8.005-14.692-5.557-11.111-28.923-56.604-29.158-57.063-.466-.908-.122-2.021.776-2.507.522-.281 51.829-27.981 73.264-41.716 8.589-6.648 15.713-13.174 21.636-19.47 12.747-14.712 24.26-33.833 28.611-50.732.75-3.308 1.204-6.118 1.565-8.351.278-2.494.608-5.062.95-7.71l.076-.583c1.743-19.453-.02-47.068-9.709-74.368-1.047-2.948-2.163-5.836-3.345-8.661-5.012-9.259-11.567-19.146-20.076-29.752-21.97-27.388-50.779-45.229-78.689-57.213-1.409-.598-2.8-1.183-4.185-1.757-28.064-11.515-54.817-17.247-72.307-20.995-2.661-.57-5.417-1.124-8.281-1.648-27.659-3.291-57.717-2.356-100.503.396-11.748 1.698-24.548 3.954-38.564 6.88-35.662 7.441-62.251 24.362-79.841 39.298-16.188 14.747-23.435 27.48-23.517 27.627-.508.903-1.653 1.219-2.551.719-.167-.094-.314-.209-.439-.339-.594.328-1.345.323-1.949-.081-.862-.575-1.095-1.738-.52-2.6.172-.259 8.739-12.854 25.736-27.454 2.622-2.412 5.486-4.886 8.596-7.38 20.46-16.404 55.975-36.688 108.979-40.164l3.683-.239c47.317-6.825 77.7-4.652 100.925-.468 26.414 3.087 50.586 9.968 81.343 22.709 1.934.789 3.877 1.605 5.823 2.449 8.086 3.447 16.643 7.288 25.808 11.553 34.07 15.854 59.548 42.506 74.138 77.396 19.192 36.107 15.896 63.385 13.167 84.553-.269 2.974-.615 5.764-1.03 8.337-.51 4.564-1.663 9.393-3.325 14.335-5.117 16.707-14.402 32.297-27.952 46.873-7.092 8.176-14.546 15.024-21.409 19.47-18.301 14.29-41.323 27.524-69.187 39.819 6.516 13.13 36.211 73.191 40.364 85.601 4.167 8.005 4.241 9.714 2.571 10.833l-.005.002c-.352.237-.803.359-1.233.305-.194.011-.406.018-.631.018zm-44.59-95.066c.979 1.904 2.744 5.344 4.944 9.631-1.65-3.347-3.259-6.597-4.802-9.707l-.142.076z"/></svg>