<svg xmlns="http://www.w3.org/2000/svg" width="379.5" height="150" viewBox="1060.5 0 379.5 150" enable-background="new 1060.5 0 379.5 150"><g fill="#EDEBE9"><path d="M1276.71 1.989c0 .753.163 1.505-.036 2.144-.361 1.163-.446 2.26-.012 3.403.519 1.367-.135 2.184-1.345 2.842-.959-.734-1.489-1.439-1.159-2.75.277-1.102.13-2.307.209-3.464.102-1.483.364-1.729 2.343-2.175z"/><path d="M1280.657 3.939c.344-.484.859-1.272 1.834-.914.917.336 1.416 1.102 1.371 2.151-.036.829.095 1.688-.087 2.478-.104.45-.63 1.017-1.068 1.128-.766.195-1.173-.401-1.315-1.141-.211-1.096-.434-2.19-.735-3.702z"/><path d="M1366.817 7.478c-.442-.235-.986-.338-1.09-.61-.617-1.605-1.136-3.25-.751-5.012 1.774-.583 2.029-.444 2.388 1.08.2.849.525 1.668.853 2.684l-1.4 1.858z"/><path d="M1289.901 1.522c1.47.077 2.034.686 1.968 1.925-.057 1.078.068 2.176-.101 3.231-.068.429-.646.91-1.1 1.084-.205.079-.897-.481-.988-.845-.452-1.823-.667-3.668.221-5.395z"/><path d="M1238.416 5.666c0-.74-.108-1.503.045-2.21.078-.361.586-.74.979-.87.174-.058.747.45.794.754.249 1.609.461 3.233.51 4.857.011.367-.659 1.029-1.05 1.056-.4.028-1.126-.497-1.209-.886-.185-.865-.058-1.796-.058-2.7l-.011-.001z"/><path d="M1232.291 4.163c-.001.913.068 1.835-.039 2.735-.037.313-.593.852-.771.801-.4-.115-.996-.521-1.012-.835-.095-1.822-.082-3.652-.008-5.476.012-.294.593-.847.774-.796.399.113.956.496 1.01.839.141.89.047 1.819.046 2.732z"/><path d="M1333.349 5.459v1.313c-.012.836-.303 1.541-1.234 1.545-.927.004-1.188-.694-1.264-1.529-.089-.978-.374-1.948-.366-2.92.004-.463.405-1.188.781-1.308.376-.12 1.197.245 1.379.615.426.867.585 1.865.704 2.284z"/><path d="M1170.604 1.099c1.617-1.061 2.267-.945 2.774.764.341 1.149.413 2.378.6 3.539-1.792.476-2.21.277-2.553-1.031-.262-1-.505-2.006-.821-3.272z"/><path d="M1200.085 1.308c2.698 1.94 3.083 4.292 1.178 5.995-1.814-1.039-1.159-3.093-1.809-4.597-.12-.277.35-.81.631-1.398z"/><path d="M1189.267 7.789c-.616-1.035-1.236-1.66-1.344-2.363-.145-.947.041-1.967.233-2.927.049-.243.667-.53 1.008-.512.339.018.901.353.947.622.274 1.584.701 3.224-.844 5.18z"/><path d="M1376.526 6.831c-2.332-.741-2.041-2.757-2.487-4.34-.068-.24.326-.775.625-.907.31-.138 1.014-.082 1.114.112.739 1.428 1.628 2.845 1.333 4.57-.032.19-.337.335-.585.565z"/><path d="M1356.397 5.292c-.044.818.005 1.494-.149 2.12-.079.324-.494.745-.8.783-.281.035-.838-.339-.894-.611-.279-1.349-.499-2.72-.582-4.092-.019-.32.578-.956.883-.951.462.008 1.166.351 1.319.732.262.652.176 1.443.223 2.019z"/><path d="M1089.284 5.37c0 .656.09 1.329-.024 1.965-.132.738-.722 1.218-1.435.918-.407-.171-.87-.828-.86-1.256.028-1.212.239-2.429.486-3.622.067-.322.59-.838.776-.789.396.106.901.465 1.013.828.187.607.101 1.299.13 1.955l-.086.001z"/><path d="M1132.817 9.227c-2.201-.035-2.355-.134-2.449-1.565-.043-.661-.033-1.333.028-1.992.069-.754.519-1.345 1.286-1.166.44.102 1.027.678 1.084 1.103.151 1.126.051 2.286.051 3.62z"/><path d="M1247.02 3.018c.869.455 1.314 1.125 1.35 2.155.058 1.631.016 1.959-.961 3.171-1.375-.688-1.567-1.925-1.555-3.272.013-1.256.009-1.256 1.166-2.054z"/><path d="M1339.457 8.892c-2.085-1.998-2.462-3.766-1.254-5.359 2.338 1.565 2.761 3.183 1.254 5.359z"/><path d="M1348.408 6.417c-.058.742.019 1.132-.132 1.384-.233.387-.589.889-.956.948-.322.052-.921-.36-1.065-.705-.375-.896-.658-1.857-.788-2.817-.048-.359.344-.979.691-1.133.339-.151 1.095-.01 1.28.265.484.717.757 1.579.97 2.058z"/><path d="M1154.515 8.378c-.368.432-.713 1.214-1.252 1.384-.878.278-1.283-.445-1.406-1.293-.094-.648-.264-1.285-.399-1.927-.161-.763.099-1.43.855-1.514.439-.049 1.145.323 1.365.712.395.698.514 1.551.837 2.638z"/><path d="M1318.894 3.016c-.043.394.019 1.016-.208 1.505-.169.364-.713.765-1.087.762-.374-.004-1.017-.45-1.064-.772-.15-1.037-.164-2.116-.043-3.157.039-.336.69-.879 1-.84.46.058 1.003.467 1.254.881.226.371.105.953.148 1.621z"/><path d="M1108.455 4.099c.574.847 1.165 1.381 1.31 2.016.176.775.086 1.663-.109 2.446-.083.33-.711.667-1.128.723-.294.039-.886-.345-.938-.619-.274-1.421-.714-2.911.865-4.566z"/><path d="M1143.11 10.723c-.979.233-1.721.252-1.744-.981-.015-.817-.059-1.64.016-2.45.089-.968.661-1.478 1.391-1.323.906.191 1.153.88 1.028 1.674-.15.956-.418 1.894-.691 3.08z"/><path d="M1068.347 4.565v.583c-.005.695-.09 1.468-.887 1.574-.858.114-.956-.659-1.138-1.329-.168-.618-.679-1.16-.77-1.776-.069-.469.155-1.134.493-1.455.223-.212.956-.105 1.326.101.907.504 1.069 1.416.976 2.302z"/><path d="M1180.515-.561c1.012.897 1.501 2.02 1.788 3.21.206.858-.315 1.596-1.039 1.666-.792.076-1.2-.373-1.372-1.104-.149-.634-.356-1.258-.469-1.898-.138-.775-.045-1.485 1.092-1.874z"/><path d="M1159.965 1.176c2.321-.205 2.885 1.175 2.004 4.66-.371-.09-.947-.062-1.079-.291-.744-1.288-1.168-2.682-.925-4.369z"/><path d="M1214.306 4.948c.059-.566-.037-1.223.225-1.669.23-.392.862-.754 1.317-.756.603-.002.974.481.828 1.212-.158.793-.139 1.635-.392 2.39-.147.441-.675.755-1.032 1.126-.287-.357-.67-.676-.832-1.083-.14-.353-.029-.806-.029-1.214l-.085-.006z"/><path d="M1255.455 4.907c1.205.142 1.436.997 1.733 1.731.292.719.3 1.517-.438 1.957-.333.198-1.211.166-1.292-.012-.417-.919-.73-1.906-.899-2.9-.037-.224.648-.571.896-.776z"/><path d="M1120.251 2.46c1.338.489 1.713 1.407 1.585 2.602-.081.751-.496 1.357-1.257 1.224-.44-.077-1.048-.634-1.124-1.057-.168-.93-.424-2.014.796-2.769z"/><path d="M1206.053 2.632c1.037-.387 1.912-.295 2.151.675.256 1.042.561 2.281-.764 2.996-1.558-1.321-1.582-1.384-1.387-3.671z"/><path d="M1387.197 5.663c-1.581.051-1.953-.174-2.245-1.3-.261-1.005-.507-2.015-.787-3.135 1.196-1.223 2.079-1.147 2.711.393.513 1.252.701 2.532.321 4.042z"/><path d="M1413.725 1.287c2.544 2.048 2.885 4.043 1.083 6.179-.4-.534-.913-.969-1.094-1.514-.358-1.077-.606-2.206-.738-3.333-.042-.361.423-.782.749-1.332z"/><path d="M1402.564 7.42c-.395-.621-.998-1.18-1.1-1.819-.152-.954-.018-1.976.141-2.945.045-.277.582-.628.921-.661.338-.033.972.234 1.022.467.205.954.266 1.943.321 2.923.043.752.033 1.525-1.305 2.035z"/><path d="M1393.484-.847c1.625 1.031 1.961 2.245 2.322 3.384.238.752-.006 1.541-.901 1.748-.908.21-1.337-.362-1.511-1.199-.133-.638-.433-1.264-.44-1.897-.006-.576.285-1.154.53-2.036z"/><path d="M1427.823 4.87c.074-.562-.008-1.225.27-1.657.244-.379.907-.712 1.356-.679.589.044.912.543.736 1.274-.189.784-.157 1.625-.376 2.397-.112.397-.561.698-.857 1.043-.347-.381-.79-.715-1.008-1.159-.162-.329-.032-.802-.032-1.211l-.089-.008z"/><path d="M1419.536 2.648c1.09-.403 1.953-.304 2.202.665.27 1.052.47 2.257-.826 3.083-1.396-.947-1.718-2.157-1.376-3.748z"/></g><g fill="#EDEBE9"><path d="M1105.492 15.783c-.442-.235-.986-.338-1.09-.61-.617-1.605-1.136-3.25-.751-5.012 1.774-.583 2.029-.444 2.388 1.08.2.849.525 1.668.853 2.684l-1.4 1.858z"/><path d="M1072.024 13.764l-.001 1.313c-.012.836-.303 1.541-1.234 1.545-.927.004-1.188-.694-1.264-1.529-.089-.978-.374-1.948-.366-2.92.004-.463.405-1.188.781-1.308s1.197.245 1.379.615c.426.867.586 1.865.705 2.284z"/><path d="M1115.2 15.136c-2.332-.741-2.041-2.757-2.487-4.34-.068-.24.326-.775.625-.907.31-.138 1.014-.082 1.114.112.739 1.428 1.628 2.845 1.333 4.57-.032.191-.337.335-.585.565z"/><path d="M1095.072 13.597c-.044.818.005 1.494-.148 2.12-.079.324-.494.745-.8.783-.281.035-.838-.339-.894-.611-.279-1.349-.499-2.72-.582-4.092-.02-.32.578-.956.883-.951.462.008 1.166.351 1.319.732.26.652.175 1.444.222 2.019z"/><path d="M1078.132 17.197c-2.085-1.998-2.462-3.766-1.254-5.359 2.338 1.565 2.761 3.183 1.254 5.359z"/><path d="M1087.083 14.723c-.058.742.019 1.132-.132 1.384-.233.387-.589.889-.956.948-.322.052-.921-.36-1.065-.705-.376-.896-.658-1.857-.788-2.817-.048-.359.344-.979.69-1.133.339-.151 1.095-.01 1.28.265.485.717.758 1.578.971 2.058z"/><path d="M1228.994 10.309c-.034.769.076 1.517-.127 2.167-.365 1.163-.412 2.256.008 3.403.499 1.36-.128 2.197-1.402 2.778-.943-.731-1.426-1.463-1.098-2.759.279-1.101.117-2.309.198-3.466.102-1.456.422-1.744 2.421-2.123z"/><path d="M1410.497 10.294c2.35 1.681 2.901 5.005 1.193 7.331-1.031-.338-1.565-.998-1.631-2.144-.066-1.138-.276-2.268-.432-3.4-.111-.808.059-1.458.87-1.787z"/><path d="M1232.862 12.243c.328-.473.844-1.263 1.817-.919.917.325 1.429 1.088 1.386 2.14-.034.829.023 1.664-.051 2.488-.067.75-.545 1.332-1.307 1.134-.437-.113-.925-.674-1.07-1.134-.334-1.058-.472-2.178-.775-3.709z"/><path d="M1320.42 13.984l-1.386 1.777c-.41-.2-.959-.286-1.068-.553-.68-1.661-1.207-3.369-.744-5.181 1.955-.281 2.008-.232 2.342 1.163.202.851.508 1.676.856 2.794z"/><path d="M1242.089 9.802c1.519.124 2.059.758 1.985 1.989-.065 1.077.064 2.177-.11 3.231-.069.421-.671.895-1.13 1.05-.213.072-.882-.51-.97-.884-.411-1.756-.635-3.538.225-5.386z"/><path d="M1190.572 14.103c0-.659-.116-1.346.038-1.967.118-.476.576-.867.883-1.296.347.385.919.727 1 1.161.266 1.438.434 2.908.462 4.37.008.409-.547 1.097-.935 1.17-.388.073-1.181-.382-1.285-.75-.238-.849-.166-1.784-.22-2.685l.057-.003z"/><path d="M1285.53 14.424c0 .331.034.667-.007.993-.094.75-.521 1.341-1.286 1.166-.439-.101-.978-.653-1.094-1.101-.288-1.104-.455-2.265-.465-3.404-.004-.432.495-1.142.877-1.228.392-.088 1.16.32 1.341.708.409.876.557 1.874.812 2.822l-.178.044z"/><path d="M1184.611 12.465c-.054 1-.036 1.922-.192 2.813-.052.301-.539.719-.839.728-.292.009-.847-.425-.858-.683-.081-1.9-.089-3.807-.022-5.708.009-.268.539-.713.838-.722.293-.008.813.4.86.688.162.975.159 1.977.213 2.884z"/><path d="M1388.599 10.107c1.241 1.31 2.01 2.591 1.964 4.248-.043 1.517-.322 1.718-2.162 1.61-1.012-4.312-1.012-4.312.198-5.858z"/><path d="M1125.871 13.968c-1.581.051-1.953-.174-2.245-1.3-.261-1.005-.507-2.015-.787-3.135 1.196-1.223 2.079-1.147 2.711.393.514 1.252.702 2.532.321 4.042z"/><path d="M1152.4 9.592c2.544 2.048 2.884 4.043 1.083 6.179-.4-.534-.913-.969-1.094-1.514-.358-1.077-.606-2.206-.738-3.333-.042-.361.423-.781.749-1.332z"/><path d="M1141.239 15.725c-.395-.621-.998-1.18-1.1-1.819-.152-.954-.018-1.976.141-2.945.046-.277.582-.628.921-.661.338-.033.972.234 1.022.467.205.954.266 1.943.321 2.923.043.752.033 1.526-1.305 2.035z"/><path d="M1328.66 15.098c-2.301-.71-2.056-2.786-2.422-4.464-.149-.684 1.072-1.14 1.71-.694.738.515 1.676 3.92 1.272 4.758-.089.186-.379.276-.56.4z"/><path d="M1308.604 13.615c-.044.888.046 1.505-.14 2.022-.135.374-.598.739-.992.863-.177.056-.727-.448-.79-.762-.255-1.273-.457-2.568-.519-3.862-.017-.347.518-1.003.823-1.017.46-.021 1.223.292 1.355.649.272.739.215 1.601.263 2.107z"/><path d="M1357.31 9.273c1.58 1.726 1.945 3.178 1.672 4.767-.068.393-.519.913-.888 1.007-.362.093-1.163-.215-1.216-.465-.218-1.026-.304-2.099-.277-3.15.015-.568.356-1.129.709-2.159z"/><path d="M1271.054 11.19c0 .327.012.655-.002.982-.037.833-.371 1.471-1.295 1.45-.785-.018-1.131-.596-1.168-1.323-.037-.735-.036-1.474 0-2.209.036-.727.377-1.306 1.163-1.327.923-.024 1.261.611 1.3 1.444.014.328.002.656.002.983z"/><path d="M1199.508 16.692c-1.77-2.044-1.924-3.388-.656-5.396.979.165 1.509.777 1.685 1.748.254 1.395-.053 2.568-1.029 3.648z"/><path d="M1291.504 17.196c-2.106-2.48-2.345-3.974-.958-5.362 2.37 2.041 2.668 3.478.958 5.362z"/><path d="M1300.612 14.728c-.058.743.018 1.133-.134 1.384-.234.386-.594.886-.961.943-.323.05-.918-.364-1.063-.711-.375-.897-.657-1.857-.786-2.818-.048-.358.349-.977.696-1.13.339-.149 1.093-.004 1.278.272.486.72.758 1.581.97 2.06z"/><path d="M1393.695 12.251c1.339 1.012 1.564 2.371 1.279 3.799-.085.426-.721 1.013-1.121 1.027-.395.014-1.18-.635-1.156-.941.104-1.286-1.488-2.976.998-3.885z"/><path d="M1426.398 15.76l-2.394-3.005c.438-.474.781-1.039 1.283-1.344.824-.5 1.564-.167 1.987.726.589 1.242.367 2.361-.876 3.623z"/><path d="M1132.159 7.458c1.626 1.031 1.961 2.245 2.322 3.384.239.752-.006 1.541-.901 1.748-.909.21-1.337-.362-1.511-1.199-.133-.638-.433-1.264-.44-1.897-.006-.576.285-1.153.53-2.036z"/><path d="M1166.498 13.175c.074-.562-.008-1.225.27-1.657.244-.379.907-.712 1.356-.679.589.044.912.543.736 1.274-.189.784-.157 1.625-.376 2.397-.112.397-.561.698-.857 1.043-.347-.381-.79-.715-1.008-1.159-.162-.329-.032-.802-.032-1.211l-.089-.008z"/><path d="M1209.804 15.827c-.462.467-.816 1.094-1.304 1.227-.354.096-1.013-.367-1.304-.755-.322-.429-.538-1.065-.508-1.594.027-.475.35-1.079.735-1.336.252-.168 1.015.041 1.255.327.449.537.684 1.253 1.126 2.131z"/><path d="M1158.211 10.953c1.09-.403 1.953-.304 2.202.665.27 1.052.47 2.257-.826 3.083-1.396-.947-1.718-2.156-1.376-3.748z"/><path d="M1366.119 15.237c-2.106-1.14-2.093-2.237-.039-4.019l1.496 1.233-1.457 2.786z"/><path d="M1418.622 13.255c-.061.747.023 1.152-.14 1.39-.248.364-.629.737-1.028.852-.18.052-.613-.465-.789-.799-.142-.268-.086-.649-.09-.98-.013-1.25.537-2.171 1.063-1.835.523.333.784 1.073.984 1.372z"/><path d="M1348.682 12.376c1.312-.248 1.788.366 2.163 1.005.407.693.151 1.317-.557 1.646-.743.346-1.372.01-1.573-.712-.163-.588-.033-1.258-.033-1.939z"/></g><g fill="#EDEBE9"><path d="M1246.71 20.294c0 .753.163 1.505-.036 2.144-.361 1.163-.446 2.26-.012 3.403.519 1.367-.135 2.184-1.345 2.842-.959-.734-1.489-1.439-1.159-2.75.277-1.102.13-2.307.209-3.464.102-1.482.364-1.729 2.343-2.175z"/><path d="M1250.657 22.244c.344-.484.859-1.272 1.834-.914.917.336 1.416 1.102 1.371 2.151-.036.829.095 1.688-.087 2.478-.104.45-.63 1.017-1.068 1.128-.766.195-1.173-.401-1.315-1.141-.211-1.096-.434-2.19-.735-3.702z"/><path d="M1336.817 25.783c-.442-.235-.986-.338-1.09-.61-.617-1.605-1.136-3.25-.751-5.012 1.774-.583 2.029-.444 2.388 1.08.2.849.525 1.668.853 2.684l-1.4 1.858z"/><path d="M1259.901 19.828c1.47.077 2.034.686 1.968 1.925-.057 1.078.068 2.176-.101 3.231-.068.429-.646.91-1.1 1.084-.205.079-.897-.481-.988-.845-.452-1.824-.667-3.668.221-5.395z"/><path d="M1208.416 23.971c0-.74-.108-1.503.045-2.21.078-.361.586-.74.979-.87.174-.058.747.45.794.754.249 1.609.461 3.233.51 4.857.011.367-.659 1.029-1.05 1.056-.4.028-1.126-.497-1.209-.886-.185-.865-.058-1.796-.058-2.7l-.011-.001z"/><path d="M1202.291 22.468c-.001.913.068 1.835-.039 2.735-.037.313-.593.852-.771.801-.4-.115-.996-.521-1.012-.835-.095-1.822-.082-3.652-.008-5.476.012-.294.593-.847.774-.796.399.113.956.496 1.01.839.141.891.047 1.819.046 2.732z"/><path d="M1303.349 23.764v1.313c-.012.836-.303 1.541-1.234 1.545-.927.004-1.188-.694-1.264-1.529-.089-.978-.374-1.948-.366-2.92.004-.463.405-1.188.781-1.308s1.197.245 1.379.615c.426.867.585 1.865.704 2.284z"/><path d="M1140.604 19.404c1.617-1.061 2.267-.945 2.774.764.341 1.149.413 2.378.6 3.539-1.792.476-2.21.277-2.553-1.031-.262-1-.505-2.006-.821-3.272z"/><path d="M1170.085 19.613c2.698 1.94 3.083 4.292 1.178 5.995-1.814-1.039-1.159-3.093-1.809-4.597-.12-.277.35-.809.631-1.398z"/><path d="M1159.267 26.095c-.616-1.035-1.236-1.66-1.344-2.363-.145-.947.041-1.967.233-2.927.049-.243.667-.53 1.008-.512.339.018.901.353.947.622.274 1.583.701 3.223-.844 5.18z"/><path d="M1346.526 25.136c-2.332-.741-2.041-2.757-2.487-4.34-.068-.24.326-.775.625-.907.31-.138 1.014-.082 1.114.112.739 1.428 1.628 2.845 1.333 4.57-.032.191-.337.335-.585.565z"/><path d="M1326.397 23.597c-.044.818.005 1.494-.149 2.12-.079.324-.494.745-.8.783-.281.035-.838-.339-.894-.611-.279-1.349-.499-2.72-.582-4.092-.019-.32.578-.956.883-.951.462.008 1.166.351 1.319.732.262.652.176 1.444.223 2.019z"/><path d="M1102.817 27.533c-2.201-.035-2.355-.134-2.449-1.565-.043-.661-.033-1.333.028-1.992.069-.754.519-1.345 1.286-1.166.44.102 1.027.678 1.084 1.103.151 1.125.051 2.286.051 3.62z"/><path d="M1217.02 21.324c.869.455 1.314 1.125 1.35 2.155.058 1.631.016 1.959-.961 3.171-1.375-.688-1.567-1.925-1.555-3.272.013-1.256.009-1.256 1.166-2.054z"/><path d="M1309.457 27.197c-2.085-1.998-2.462-3.766-1.254-5.359 2.338 1.565 2.761 3.183 1.254 5.359z"/><path d="M1318.408 24.723c-.058.742.019 1.132-.132 1.384-.233.387-.589.889-.956.948-.322.052-.921-.36-1.065-.705-.375-.896-.658-1.857-.788-2.817-.048-.359.344-.979.691-1.133.339-.151 1.095-.01 1.28.265.484.717.757 1.578.97 2.058z"/><path d="M1124.515 26.684c-.368.432-.713 1.214-1.252 1.384-.878.278-1.283-.445-1.406-1.293-.094-.648-.264-1.285-.399-1.927-.161-.763.099-1.43.855-1.514.439-.049 1.145.323 1.365.712.395.697.514 1.55.837 2.638z"/><path d="M1288.894 21.321c-.043.394.019 1.016-.208 1.505-.169.364-.713.765-1.087.762-.374-.004-1.017-.45-1.064-.772-.15-1.037-.164-2.116-.043-3.157.039-.336.69-.879 1-.84.46.058 1.003.467 1.254.881.226.372.105.953.148 1.621z"/><path d="M1078.455 22.405c.574.847 1.165 1.381 1.31 2.016.176.775.086 1.663-.109 2.446-.083.33-.711.667-1.128.723-.294.039-.886-.345-.938-.619-.274-1.421-.714-2.912.865-4.566z"/><path d="M1113.11 29.029c-.979.233-1.721.252-1.744-.981-.015-.817-.059-1.64.016-2.45.089-.968.661-1.478 1.391-1.323.906.191 1.153.88 1.028 1.674-.15.955-.418 1.893-.691 3.08z"/><path d="M1150.515 17.744c1.012.897 1.501 2.02 1.788 3.21.206.858-.315 1.596-1.039 1.666-.792.076-1.2-.373-1.372-1.104-.149-.635-.356-1.258-.469-1.898-.138-.775-.045-1.485 1.092-1.874z"/><path d="M1129.965 19.481c2.321-.205 2.885 1.175 2.004 4.66-.371-.09-.947-.062-1.079-.291-.744-1.288-1.168-2.682-.925-4.369z"/><path d="M1184.306 23.253c.059-.566-.037-1.223.225-1.669.23-.392.862-.754 1.317-.756.603-.002.974.481.828 1.212-.158.793-.139 1.635-.392 2.39-.147.441-.675.755-1.032 1.126-.287-.357-.67-.676-.832-1.083-.14-.353-.029-.806-.029-1.214l-.085-.006z"/><path d="M1225.455 23.213c1.205.142 1.436.997 1.733 1.731.292.719.3 1.517-.438 1.957-.333.198-1.211.166-1.292-.012-.417-.919-.73-1.906-.899-2.9-.037-.225.648-.571.896-.776z"/><path d="M1090.251 20.765c1.338.489 1.713 1.407 1.585 2.602-.081.751-.496 1.357-1.257 1.224-.44-.077-1.048-.634-1.124-1.057-.168-.929-.424-2.013.796-2.769z"/><path d="M1176.053 20.938c1.037-.387 1.912-.295 2.151.675.256 1.042.561 2.281-.764 2.996-1.558-1.322-1.582-1.385-1.387-3.671z"/><path d="M1421.898 24.103c0-.659-.116-1.346.038-1.967.118-.476.576-.867.883-1.296.347.385.919.727 1 1.161.266 1.438.434 2.908.463 4.37.008.409-.547 1.097-.935 1.17-.388.073-1.181-.382-1.285-.75-.238-.849-.166-1.784-.22-2.685l.056-.003z"/><path d="M1415.936 22.465c-.055 1-.036 1.922-.192 2.813-.052.301-.54.719-.839.728-.292.009-.847-.425-.858-.683-.081-1.9-.088-3.807-.022-5.708.009-.268.539-.713.838-.722.293-.008.813.4.86.688.162.975.159 1.977.213 2.884z"/><path d="M1357.197 23.968c-1.581.051-1.953-.174-2.245-1.3-.261-1.005-.507-2.015-.787-3.135 1.196-1.223 2.079-1.147 2.711.393.513 1.252.701 2.532.321 4.042z"/><path d="M1383.725 19.592c2.544 2.048 2.885 4.043 1.083 6.179-.4-.534-.913-.969-1.094-1.514-.358-1.077-.606-2.206-.738-3.333-.042-.361.423-.781.749-1.332z"/><path d="M1372.564 25.725c-.395-.621-.998-1.18-1.1-1.819-.152-.954-.018-1.976.141-2.945.045-.277.582-.628.921-.661.338-.033.972.234 1.022.467.205.954.266 1.943.321 2.923.043.752.033 1.526-1.305 2.035z"/><path d="M1430.833 26.692c-1.77-2.044-1.924-3.388-.656-5.396.979.165 1.509.777 1.685 1.748.254 1.395-.053 2.568-1.029 3.648z"/><path d="M1363.484 17.458c1.625 1.031 1.961 2.245 2.322 3.384.238.752-.006 1.541-.901 1.748-.908.21-1.337-.362-1.511-1.199-.133-.638-.433-1.264-.44-1.897-.006-.576.285-1.153.53-2.036z"/><path d="M1397.823 23.175c.074-.562-.008-1.225.27-1.657.244-.379.907-.712 1.356-.679.589.044.912.543.736 1.274-.189.784-.157 1.625-.376 2.397-.112.397-.561.698-.857 1.043-.347-.381-.79-.715-1.008-1.159-.162-.329-.032-.802-.032-1.211l-.089-.008z"/><path d="M1441.13 25.827c-.462.467-.816 1.094-1.304 1.227-.354.096-1.013-.367-1.304-.755-.322-.429-.538-1.065-.507-1.594.027-.475.35-1.079.735-1.336.252-.168 1.015.041 1.255.327.448.537.682 1.253 1.125 2.131z"/><path d="M1389.536 20.953c1.09-.403 1.953-.304 2.202.665.27 1.052.47 2.257-.826 3.083-1.396-.947-1.718-2.156-1.376-3.748z"/></g><g fill="#EDEBE9"><path d="M1135.492 37.478c-.442-.235-.986-.338-1.09-.61-.617-1.605-1.136-3.25-.751-5.012 1.774-.583 2.029-.444 2.388 1.08.2.849.525 1.668.853 2.684l-1.4 1.858z"/><path d="M1102.024 35.459l-.001 1.313c-.012.836-.303 1.541-1.234 1.545-.927.004-1.188-.694-1.264-1.529-.089-.978-.374-1.948-.366-2.92.004-.463.405-1.188.781-1.308s1.197.245 1.379.615c.426.867.586 1.865.705 2.284z"/><path d="M1145.2 36.831c-2.332-.741-2.041-2.757-2.487-4.34-.068-.24.326-.775.625-.907.31-.138 1.014-.082 1.114.112.739 1.428 1.628 2.845 1.333 4.57-.032.19-.337.335-.585.565z"/><path d="M1125.072 35.292c-.044.818.005 1.494-.148 2.12-.079.324-.494.745-.8.783-.281.035-.838-.339-.894-.611-.279-1.349-.499-2.72-.582-4.092-.02-.32.578-.956.883-.951.462.008 1.166.351 1.319.732.26.652.175 1.443.222 2.019z"/><path d="M1108.132 38.892c-2.085-1.998-2.462-3.766-1.254-5.359 2.338 1.565 2.761 3.183 1.254 5.359z"/><path d="M1117.083 36.417c-.058.742.019 1.132-.132 1.384-.233.387-.589.889-.956.948-.322.052-.921-.36-1.065-.705-.376-.896-.658-1.857-.788-2.817-.048-.359.344-.979.69-1.133.339-.151 1.095-.01 1.28.265.485.717.758 1.579.971 2.058z"/><path d="M1087.569 33.016c-.043.394.019 1.016-.208 1.505-.169.364-.713.765-1.087.762-.374-.004-1.018-.45-1.064-.772-.149-1.037-.164-2.116-.043-3.157.039-.336.69-.879 1-.84.46.058 1.003.467 1.254.881.225.371.104.953.148 1.621z"/><path d="M1258.994 32.004c-.034.769.076 1.517-.127 2.167-.365 1.163-.412 2.256.008 3.403.499 1.36-.128 2.197-1.402 2.778-.943-.731-1.426-1.463-1.098-2.759.279-1.101.117-2.309.198-3.466.102-1.456.422-1.744 2.421-2.123z"/><path d="M1262.862 33.938c.328-.473.844-1.263 1.817-.919.917.325 1.429 1.088 1.386 2.14-.034.829.023 1.664-.051 2.488-.067.75-.545 1.332-1.307 1.134-.437-.113-.925-.674-1.07-1.134-.334-1.058-.472-2.178-.775-3.709z"/><path d="M1350.42 35.679l-1.386 1.777c-.41-.2-.959-.286-1.068-.553-.68-1.661-1.207-3.369-.744-5.181 1.955-.281 2.008-.232 2.342 1.163.202.85.508 1.675.856 2.794z"/><path d="M1272.089 31.497c1.519.124 2.059.758 1.985 1.989-.065 1.077.064 2.177-.11 3.231-.069.421-.671.895-1.13 1.05-.213.072-.882-.51-.97-.884-.411-1.756-.635-3.539.225-5.386z"/><path d="M1220.572 35.797c0-.659-.116-1.346.038-1.967.118-.476.576-.867.883-1.296.347.385.919.727 1 1.161.266 1.438.434 2.908.462 4.37.008.409-.547 1.097-.935 1.17-.388.073-1.181-.382-1.285-.75-.238-.849-.166-1.784-.22-2.685l.057-.003z"/><path d="M1315.53 36.119c0 .331.034.667-.007.993-.094.75-.521 1.341-1.286 1.166-.439-.101-.978-.653-1.094-1.101-.288-1.104-.455-2.265-.465-3.404-.004-.432.495-1.142.877-1.228.392-.088 1.16.32 1.341.708.409.876.557 1.874.812 2.822l-.178.044z"/><path d="M1214.611 34.159c-.054 1-.036 1.922-.192 2.813-.052.301-.539.719-.839.728-.292.009-.847-.425-.858-.683-.081-1.9-.089-3.807-.022-5.708.009-.268.539-.713.838-.722.293-.008.813.4.86.688.162.975.159 1.977.213 2.884z"/><path d="M1418.599 31.801c1.241 1.31 2.01 2.591 1.964 4.248-.043 1.517-.322 1.718-2.162 1.61-1.012-4.312-1.012-4.312.198-5.858z"/><path d="M1155.871 35.663c-1.581.051-1.953-.174-2.245-1.3-.261-1.005-.507-2.015-.787-3.135 1.196-1.223 2.079-1.147 2.711.393.514 1.252.702 2.532.321 4.042z"/><path d="M1182.4 31.287c2.544 2.048 2.884 4.043 1.083 6.179-.4-.534-.913-.969-1.094-1.514-.358-1.077-.606-2.206-.738-3.333-.042-.361.423-.782.749-1.332z"/><path d="M1171.239 37.42c-.395-.621-.998-1.18-1.1-1.819-.152-.954-.018-1.976.141-2.945.046-.277.582-.628.921-.661.338-.033.972.234 1.022.467.205.954.266 1.943.321 2.923.043.752.033 1.525-1.305 2.035z"/><path d="M1358.66 36.793c-2.301-.71-2.056-2.786-2.422-4.464-.149-.684 1.072-1.14 1.71-.694.738.515 1.676 3.92 1.272 4.758-.089.186-.379.276-.56.4z"/><path d="M1338.604 35.309c-.044.888.046 1.505-.14 2.022-.135.374-.598.739-.992.863-.177.056-.727-.448-.79-.762-.255-1.273-.457-2.568-.519-3.862-.017-.347.518-1.003.823-1.017.46-.021 1.223.292 1.355.649.272.74.215 1.602.263 2.107z"/><path d="M1387.31 30.968c1.58 1.726 1.945 3.178 1.672 4.767-.068.393-.519.913-.888 1.007-.362.093-1.163-.215-1.216-.465-.218-1.026-.304-2.099-.277-3.15.015-.568.356-1.129.709-2.159z"/><path d="M1301.054 32.885c0 .327.012.655-.002.982-.037.833-.371 1.471-1.295 1.45-.785-.018-1.131-.596-1.168-1.323-.037-.735-.036-1.474 0-2.209.036-.727.377-1.306 1.163-1.327.923-.024 1.261.611 1.3 1.444.014.328.002.656.002.983z"/><path d="M1229.508 38.387c-1.77-2.044-1.924-3.388-.656-5.396.979.165 1.509.777 1.685 1.748.254 1.395-.053 2.567-1.029 3.648z"/><path d="M1321.504 38.891c-2.106-2.48-2.345-3.974-.958-5.362 2.37 2.04 2.668 3.478.958 5.362z"/><path d="M1330.612 36.422c-.058.743.018 1.133-.134 1.384-.234.386-.594.886-.961.943-.323.05-.918-.364-1.063-.711-.375-.897-.657-1.857-.786-2.818-.048-.358.349-.977.696-1.13.339-.149 1.093-.004 1.278.272.486.72.758 1.582.97 2.06z"/><path d="M1423.695 33.945c1.339 1.012 1.564 2.371 1.279 3.799-.085.426-.721 1.013-1.121 1.027-.395.014-1.18-.635-1.156-.941.104-1.285-1.488-2.975.998-3.885z"/><path d="M1162.159 29.153c1.626 1.031 1.961 2.245 2.322 3.384.239.752-.006 1.541-.901 1.748-.909.21-1.337-.362-1.511-1.199-.133-.638-.433-1.264-.44-1.897-.006-.576.285-1.154.53-2.036z"/><path d="M1196.498 34.87c.074-.562-.008-1.225.27-1.657.244-.379.907-.712 1.356-.679.589.044.912.543.736 1.274-.189.784-.157 1.625-.376 2.397-.112.397-.561.698-.857 1.043-.347-.381-.79-.715-1.008-1.159-.162-.329-.032-.802-.032-1.211l-.089-.008z"/><path d="M1239.804 37.522c-.462.467-.816 1.094-1.304 1.227-.354.096-1.013-.367-1.304-.755-.322-.429-.538-1.065-.508-1.594.027-.475.35-1.079.735-1.336.252-.168 1.015.041 1.255.327.449.537.684 1.252 1.126 2.131z"/><path d="M1188.211 32.648c1.09-.403 1.953-.304 2.202.665.27 1.052.47 2.257-.826 3.083-1.396-.947-1.718-2.157-1.376-3.748z"/><path d="M1396.119 36.932c-2.106-1.14-2.093-2.237-.039-4.019l1.496 1.233-1.457 2.786z"/><path d="M1378.682 34.071c1.312-.248 1.788.366 2.163 1.005.407.693.151 1.317-.557 1.646-.743.346-1.372.01-1.573-.712-.163-.588-.033-1.259-.033-1.939z"/></g><g fill="#EDEBE9"><path d="M1276.71 41.989c0 .753.163 1.505-.036 2.144-.361 1.163-.446 2.26-.012 3.403.519 1.367-.135 2.184-1.345 2.842-.959-.734-1.489-1.439-1.159-2.75.277-1.102.13-2.307.209-3.464.102-1.483.364-1.729 2.343-2.175z"/><path d="M1280.657 43.939c.344-.484.859-1.272 1.834-.914.917.336 1.416 1.102 1.371 2.151-.036.829.095 1.688-.087 2.478-.104.45-.63 1.017-1.068 1.128-.766.195-1.173-.401-1.315-1.141-.211-1.096-.434-2.19-.735-3.702z"/><path d="M1366.817 47.478c-.442-.235-.986-.338-1.09-.61-.617-1.605-1.136-3.25-.751-5.012 1.774-.583 2.029-.444 2.388 1.08.2.849.525 1.668.853 2.684l-1.4 1.858z"/><path d="M1289.901 41.522c1.47.077 2.034.686 1.968 1.925-.057 1.078.068 2.176-.101 3.231-.068.429-.646.91-1.1 1.084-.205.079-.897-.481-.988-.845-.452-1.823-.667-3.668.221-5.395z"/><path d="M1238.416 45.666c0-.74-.108-1.503.045-2.21.078-.361.586-.74.979-.87.174-.058.747.45.794.754.249 1.609.461 3.233.51 4.857.011.367-.659 1.029-1.05 1.056-.4.028-1.126-.497-1.209-.886-.185-.865-.058-1.796-.058-2.7l-.011-.001z"/><path d="M1232.291 44.163c-.001.913.068 1.835-.039 2.735-.037.313-.593.852-.771.801-.4-.115-.996-.521-1.012-.835-.095-1.822-.082-3.652-.008-5.476.012-.294.593-.847.774-.796.399.113.956.496 1.01.839.141.89.047 1.819.046 2.732z"/><path d="M1333.349 45.459v1.313c-.012.836-.303 1.541-1.234 1.545-.927.004-1.188-.694-1.264-1.529-.089-.978-.374-1.948-.366-2.92.004-.463.405-1.188.781-1.308s1.197.245 1.379.615c.426.867.585 1.865.704 2.284z"/><path d="M1170.604 41.099c1.617-1.061 2.267-.945 2.774.764.341 1.149.413 2.378.6 3.539-1.792.476-2.21.277-2.553-1.031-.262-1-.505-2.006-.821-3.272z"/><path d="M1200.085 41.308c2.698 1.94 3.083 4.292 1.178 5.995-1.814-1.039-1.159-3.093-1.809-4.597-.12-.277.35-.81.631-1.398z"/><path d="M1189.267 47.789c-.616-1.035-1.236-1.66-1.344-2.363-.145-.947.041-1.967.233-2.927.049-.243.667-.53 1.008-.512.339.018.901.353.947.622.274 1.584.701 3.224-.844 5.18z"/><path d="M1376.526 46.831c-2.332-.741-2.041-2.757-2.487-4.34-.068-.24.326-.775.625-.907.31-.138 1.014-.082 1.114.112.739 1.428 1.628 2.845 1.333 4.57-.032.19-.337.335-.585.565z"/><path d="M1356.397 45.292c-.044.818.005 1.494-.149 2.12-.079.324-.494.745-.8.783-.281.035-.838-.339-.894-.611-.279-1.349-.499-2.72-.582-4.092-.019-.32.578-.956.883-.951.462.008 1.166.351 1.319.732.262.652.176 1.443.223 2.019z"/><path d="M1089.284 45.37c0 .656.09 1.329-.024 1.965-.132.738-.722 1.218-1.435.918-.407-.171-.87-.828-.86-1.256.028-1.212.239-2.429.486-3.622.067-.322.59-.838.776-.789.396.106.901.465 1.013.828.187.607.101 1.299.13 1.955l-.086.001z"/><path d="M1132.817 49.227c-2.201-.035-2.355-.134-2.449-1.565-.043-.661-.033-1.333.028-1.992.069-.754.519-1.345 1.286-1.166.44.102 1.027.678 1.084 1.103.151 1.126.051 2.286.051 3.62z"/><path d="M1247.02 43.018c.869.455 1.314 1.125 1.35 2.155.058 1.631.016 1.959-.961 3.171-1.375-.688-1.567-1.925-1.555-3.272.013-1.256.009-1.256 1.166-2.054z"/><path d="M1339.457 48.892c-2.085-1.998-2.462-3.766-1.254-5.359 2.338 1.565 2.761 3.183 1.254 5.359z"/><path d="M1348.408 46.417c-.058.742.019 1.132-.132 1.384-.233.387-.589.889-.956.948-.322.052-.921-.36-1.065-.705-.375-.896-.658-1.857-.788-2.817-.048-.359.344-.979.691-1.133.339-.151 1.095-.01 1.28.265.484.717.757 1.579.97 2.058z"/><path d="M1154.515 48.378c-.368.432-.713 1.214-1.252 1.384-.878.278-1.283-.445-1.406-1.293-.094-.648-.264-1.285-.399-1.927-.161-.763.099-1.43.855-1.514.439-.049 1.145.323 1.365.712.395.698.514 1.551.837 2.638z"/><path d="M1318.894 43.016c-.043.394.019 1.016-.208 1.505-.169.364-.713.765-1.087.762-.374-.004-1.017-.45-1.064-.772-.15-1.037-.164-2.116-.043-3.157.039-.336.69-.879 1-.84.46.058 1.003.467 1.254.881.226.371.105.953.148 1.621z"/><path d="M1108.455 44.099c.574.847 1.165 1.381 1.31 2.016.176.775.086 1.663-.109 2.446-.083.33-.711.667-1.128.723-.294.039-.886-.345-.938-.619-.274-1.421-.714-2.911.865-4.566z"/><path d="M1143.11 50.723c-.979.233-1.721.252-1.744-.981-.015-.817-.059-1.64.016-2.45.089-.967.661-1.478 1.391-1.323.906.191 1.153.88 1.028 1.674-.15.956-.418 1.894-.691 3.08z"/><path d="M1068.347 44.565v.583c-.005.695-.09 1.468-.887 1.574-.858.114-.956-.659-1.138-1.329-.168-.618-.679-1.16-.77-1.776-.069-.469.155-1.134.493-1.455.223-.212.956-.105 1.326.101.907.504 1.069 1.416.976 2.302z"/><path d="M1180.515 39.439c1.012.897 1.501 2.02 1.788 3.21.206.858-.315 1.596-1.039 1.666-.792.076-1.2-.373-1.372-1.104-.149-.635-.356-1.258-.469-1.898-.138-.775-.045-1.485 1.092-1.874z"/><path d="M1159.965 41.176c2.321-.205 2.885 1.175 2.004 4.66-.371-.09-.947-.062-1.079-.291-.744-1.288-1.168-2.682-.925-4.369z"/><path d="M1214.306 44.948c.059-.566-.037-1.223.225-1.669.23-.392.862-.754 1.317-.756.603-.002.974.481.828 1.212-.158.793-.139 1.635-.392 2.39-.147.441-.675.755-1.032 1.126-.287-.357-.67-.676-.832-1.083-.14-.353-.029-.806-.029-1.214l-.085-.006z"/><path d="M1255.455 44.907c1.205.142 1.436.997 1.733 1.731.292.719.3 1.517-.438 1.957-.333.198-1.211.166-1.292-.012-.417-.919-.73-1.906-.899-2.9-.037-.224.648-.571.896-.776z"/><path d="M1120.251 42.46c1.338.489 1.713 1.407 1.585 2.602-.081.751-.496 1.357-1.257 1.224-.44-.077-1.048-.634-1.124-1.057-.168-.93-.424-2.014.796-2.769z"/><path d="M1206.053 42.632c1.037-.387 1.912-.295 2.151.675.256 1.042.561 2.281-.764 2.996-1.558-1.321-1.582-1.384-1.387-3.671z"/><path d="M1387.197 45.663c-1.581.051-1.953-.174-2.245-1.3-.261-1.005-.507-2.015-.787-3.135 1.196-1.223 2.079-1.147 2.711.393.513 1.252.701 2.532.321 4.042z"/><path d="M1413.725 41.287c2.544 2.048 2.885 4.043 1.083 6.179-.4-.534-.913-.969-1.094-1.514-.358-1.077-.606-2.206-.738-3.333-.042-.361.423-.782.749-1.332z"/><path d="M1402.564 47.42c-.395-.621-.998-1.18-1.1-1.819-.152-.954-.018-1.976.141-2.945.045-.277.582-.628.921-.661.338-.033.972.234 1.022.467.205.954.266 1.943.321 2.923.043.752.033 1.525-1.305 2.035z"/><path d="M1393.484 39.153c1.625 1.031 1.961 2.245 2.322 3.384.238.752-.006 1.541-.901 1.748-.908.21-1.337-.362-1.511-1.199-.133-.638-.433-1.264-.44-1.897-.006-.576.285-1.154.53-2.036z"/><path d="M1427.823 44.87c.074-.562-.008-1.225.27-1.657.244-.379.907-.712 1.356-.679.589.044.912.543.736 1.274-.189.784-.157 1.625-.376 2.397-.112.397-.561.698-.857 1.043-.347-.381-.79-.715-1.008-1.159-.162-.329-.032-.802-.032-1.211l-.089-.008z"/><path d="M1419.536 42.648c1.09-.403 1.953-.304 2.202.665.27 1.052.47 2.257-.826 3.083-1.396-.947-1.718-2.157-1.376-3.748z"/></g><g fill="#EDEBE9"><path d="M1105.492 55.783c-.442-.235-.986-.338-1.09-.61-.617-1.605-1.136-3.25-.751-5.012 1.774-.583 2.029-.444 2.388 1.08.2.849.525 1.668.853 2.684l-1.4 1.858z"/><path d="M1072.024 53.764l-.001 1.313c-.012.836-.303 1.541-1.234 1.545-.927.004-1.188-.694-1.264-1.529-.089-.978-.374-1.948-.366-2.92.004-.463.405-1.188.781-1.308s1.197.245 1.379.615c.426.867.586 1.865.705 2.284z"/><path d="M1115.2 55.136c-2.332-.741-2.041-2.757-2.487-4.34-.068-.24.326-.775.625-.907.31-.138 1.014-.082 1.114.112.739 1.428 1.628 2.845 1.333 4.57-.032.191-.337.335-.585.565z"/><path d="M1095.072 53.597c-.044.818.005 1.494-.148 2.12-.079.324-.494.745-.8.783-.281.035-.838-.339-.894-.611-.279-1.349-.499-2.72-.582-4.092-.02-.32.578-.956.883-.951.462.008 1.166.351 1.319.732.26.652.175 1.444.222 2.019z"/><path d="M1078.132 57.197c-2.085-1.998-2.462-3.766-1.254-5.359 2.338 1.565 2.761 3.183 1.254 5.359z"/><path d="M1087.083 54.723c-.058.742.019 1.132-.132 1.384-.233.387-.589.889-.956.948-.322.052-.921-.36-1.065-.705-.376-.896-.658-1.857-.788-2.817-.048-.359.344-.979.69-1.133.339-.151 1.095-.01 1.28.265.485.717.758 1.578.971 2.058z"/><path d="M1228.994 50.309c-.034.769.076 1.517-.127 2.167-.365 1.163-.412 2.256.008 3.403.499 1.36-.128 2.197-1.402 2.778-.943-.731-1.426-1.463-1.098-2.759.279-1.101.117-2.309.198-3.466.102-1.456.422-1.744 2.421-2.123z"/><path d="M1410.497 50.294c2.35 1.681 2.901 5.005 1.193 7.331-1.031-.338-1.565-.998-1.631-2.144-.066-1.138-.276-2.268-.432-3.4-.111-.808.059-1.458.87-1.787z"/><path d="M1232.862 52.243c.328-.473.844-1.263 1.817-.919.917.325 1.429 1.088 1.386 2.14-.034.829.023 1.664-.051 2.488-.067.75-.545 1.332-1.307 1.134-.437-.113-.925-.674-1.07-1.134-.334-1.058-.472-2.178-.775-3.709z"/><path d="M1320.42 53.984l-1.386 1.777c-.41-.2-.959-.286-1.068-.553-.68-1.661-1.207-3.369-.744-5.181 1.955-.281 2.008-.232 2.342 1.163.202.851.508 1.676.856 2.794z"/><path d="M1242.089 49.802c1.519.124 2.059.758 1.985 1.989-.065 1.077.064 2.177-.11 3.231-.069.421-.671.895-1.13 1.05-.213.072-.882-.51-.97-.884-.411-1.756-.635-3.538.225-5.386z"/><path d="M1190.572 54.103c0-.659-.116-1.346.038-1.967.118-.476.576-.867.883-1.296.347.385.919.727 1 1.161.266 1.438.434 2.908.462 4.37.008.409-.547 1.097-.935 1.17-.388.073-1.181-.382-1.285-.75-.238-.849-.166-1.784-.22-2.685l.057-.003z"/><path d="M1285.53 54.424c0 .331.034.667-.007.993-.094.75-.521 1.341-1.286 1.166-.439-.101-.978-.653-1.094-1.101-.288-1.104-.455-2.265-.465-3.404-.004-.432.495-1.142.877-1.228.392-.088 1.16.32 1.341.708.409.876.557 1.874.812 2.822l-.178.044z"/><path d="M1184.611 52.465c-.054 1-.036 1.922-.192 2.813-.052.301-.539.719-.839.728-.292.009-.847-.425-.858-.683-.081-1.9-.089-3.807-.022-5.708.009-.268.539-.713.838-.722.293-.008.813.4.86.688.162.975.159 1.977.213 2.884z"/><path d="M1388.599 50.107c1.241 1.31 2.01 2.591 1.964 4.248-.043 1.517-.322 1.718-2.162 1.61-1.012-4.312-1.012-4.312.198-5.858z"/><path d="M1125.871 53.968c-1.581.051-1.953-.174-2.245-1.3-.261-1.005-.507-2.015-.787-3.135 1.196-1.223 2.079-1.147 2.711.393.514 1.252.702 2.532.321 4.042z"/><path d="M1152.4 49.592c2.544 2.048 2.884 4.043 1.083 6.179-.4-.534-.913-.969-1.094-1.514-.358-1.077-.606-2.206-.738-3.333-.042-.361.423-.781.749-1.332z"/><path d="M1141.239 55.725c-.395-.621-.998-1.18-1.1-1.819-.152-.954-.018-1.976.141-2.945.046-.277.582-.628.921-.661.338-.033.972.234 1.022.467.205.954.266 1.943.321 2.923.043.752.033 1.526-1.305 2.035z"/><path d="M1328.66 55.098c-2.301-.71-2.056-2.786-2.422-4.464-.149-.684 1.072-1.14 1.71-.694.738.515 1.676 3.92 1.272 4.758-.089.186-.379.276-.56.4z"/><path d="M1308.604 53.615c-.044.888.046 1.505-.14 2.022-.135.374-.598.739-.992.863-.177.056-.727-.448-.79-.762-.255-1.273-.457-2.568-.519-3.862-.017-.347.518-1.003.823-1.017.46-.021 1.223.292 1.355.649.272.739.215 1.601.263 2.107z"/><path d="M1357.31 49.273c1.58 1.726 1.945 3.178 1.672 4.767-.068.393-.519.913-.888 1.007-.362.093-1.163-.215-1.216-.465-.218-1.026-.304-2.099-.277-3.15.015-.568.356-1.129.709-2.159z"/><path d="M1271.054 51.19c0 .327.012.655-.002.982-.037.833-.371 1.471-1.295 1.45-.785-.018-1.131-.596-1.168-1.323-.037-.735-.036-1.474 0-2.209.036-.727.377-1.306 1.163-1.327.923-.024 1.261.611 1.3 1.444.014.328.002.656.002.983z"/><path d="M1199.508 56.692c-1.77-2.044-1.924-3.388-.656-5.396.979.165 1.509.777 1.685 1.748.254 1.395-.053 2.568-1.029 3.648z"/><path d="M1291.504 57.196c-2.106-2.48-2.345-3.974-.958-5.362 2.37 2.041 2.668 3.478.958 5.362z"/><path d="M1300.612 54.728c-.058.743.018 1.133-.134 1.384-.234.386-.594.886-.961.943-.323.05-.918-.364-1.063-.711-.375-.897-.657-1.857-.786-2.818-.048-.358.349-.977.696-1.13.339-.149 1.093-.004 1.278.272.486.72.758 1.581.97 2.06z"/><path d="M1393.695 52.251c1.339 1.012 1.564 2.371 1.279 3.799-.085.426-.721 1.013-1.121 1.027-.395.014-1.18-.635-1.156-.941.104-1.286-1.488-2.976.998-3.885z"/><path d="M1426.398 55.76l-2.394-3.005c.438-.474.781-1.039 1.283-1.344.824-.5 1.564-.167 1.987.726.589 1.242.367 2.361-.876 3.623z"/><path d="M1132.159 47.458c1.626 1.031 1.961 2.245 2.322 3.384.239.752-.006 1.541-.901 1.748-.909.21-1.337-.362-1.511-1.199-.133-.638-.433-1.264-.44-1.897-.006-.576.285-1.153.53-2.036z"/><path d="M1166.498 53.175c.074-.562-.008-1.225.27-1.657.244-.379.907-.712 1.356-.679.589.044.912.543.736 1.274-.189.784-.157 1.625-.376 2.397-.112.397-.561.698-.857 1.043-.347-.381-.79-.715-1.008-1.159-.162-.329-.032-.802-.032-1.211l-.089-.008z"/><path d="M1209.804 55.827c-.462.467-.816 1.094-1.304 1.227-.354.096-1.013-.367-1.304-.755-.322-.429-.538-1.065-.508-1.594.027-.475.35-1.079.735-1.336.252-.168 1.015.041 1.255.327.449.537.684 1.253 1.126 2.131z"/><path d="M1158.211 50.953c1.09-.403 1.953-.304 2.202.665.27 1.052.47 2.257-.826 3.083-1.396-.947-1.718-2.156-1.376-3.748z"/><path d="M1366.119 55.237c-2.106-1.14-2.093-2.237-.039-4.019l1.496 1.233-1.457 2.786z"/><path d="M1418.622 53.255c-.061.747.023 1.152-.14 1.39-.248.364-.629.737-1.028.852-.18.052-.613-.465-.789-.799-.142-.268-.086-.649-.09-.98-.013-1.25.537-2.171 1.063-1.835.523.333.784 1.073.984 1.372z"/><path d="M1348.682 52.376c1.312-.248 1.788.366 2.163 1.005.407.693.151 1.317-.557 1.646-.743.346-1.372.01-1.573-.712-.163-.588-.033-1.258-.033-1.939z"/></g><g fill="#EDEBE9"><path d="M1246.71 60.294c0 .753.163 1.505-.036 2.144-.361 1.163-.446 2.26-.012 3.403.519 1.367-.135 2.184-1.345 2.842-.959-.734-1.489-1.439-1.159-2.75.277-1.102.13-2.307.209-3.464.102-1.482.364-1.729 2.343-2.175z"/><path d="M1250.657 62.244c.344-.484.859-1.272 1.834-.914.917.336 1.416 1.102 1.371 2.151-.036.829.095 1.688-.087 2.478-.104.45-.63 1.017-1.068 1.128-.766.195-1.173-.401-1.315-1.141-.211-1.096-.434-2.19-.735-3.702z"/><path d="M1336.817 65.783c-.442-.235-.986-.338-1.09-.61-.617-1.605-1.136-3.25-.751-5.012 1.774-.583 2.029-.444 2.388 1.08.2.849.525 1.668.853 2.684l-1.4 1.858z"/><path d="M1259.901 59.828c1.47.077 2.034.686 1.968 1.925-.057 1.078.068 2.176-.101 3.231-.068.429-.646.91-1.1 1.084-.205.079-.897-.481-.988-.845-.452-1.824-.667-3.668.221-5.395z"/><path d="M1208.416 63.971c0-.74-.108-1.503.045-2.21.078-.361.586-.74.979-.87.174-.058.747.45.794.754.249 1.609.461 3.233.51 4.857.011.367-.659 1.029-1.05 1.056-.4.028-1.126-.497-1.209-.886-.185-.865-.058-1.796-.058-2.7l-.011-.001z"/><path d="M1202.291 62.468c-.001.913.068 1.835-.039 2.735-.037.313-.593.852-.771.801-.4-.115-.996-.521-1.012-.835-.095-1.822-.082-3.652-.008-5.476.012-.294.593-.847.774-.796.399.113.956.496 1.01.839.141.891.047 1.819.046 2.732z"/><path d="M1303.349 63.764v1.313c-.012.836-.303 1.541-1.234 1.545-.927.004-1.188-.694-1.264-1.529-.089-.978-.374-1.948-.366-2.92.004-.463.405-1.188.781-1.308s1.197.245 1.379.615c.426.867.585 1.865.704 2.284z"/><path d="M1140.604 59.404c1.617-1.061 2.267-.945 2.774.764.341 1.149.413 2.378.6 3.539-1.792.476-2.21.277-2.553-1.031-.262-1-.505-2.006-.821-3.272z"/><path d="M1170.085 59.613c2.698 1.94 3.083 4.292 1.178 5.995-1.814-1.039-1.159-3.093-1.809-4.597-.12-.277.35-.809.631-1.398z"/><path d="M1159.267 66.095c-.616-1.035-1.236-1.66-1.344-2.363-.145-.947.041-1.967.233-2.927.049-.243.667-.53 1.008-.512.339.018.901.353.947.622.274 1.583.701 3.223-.844 5.18z"/><path d="M1346.526 65.136c-2.332-.741-2.041-2.757-2.487-4.34-.068-.24.326-.775.625-.907.31-.138 1.014-.082 1.114.112.739 1.428 1.628 2.845 1.333 4.57-.032.191-.337.335-.585.565z"/><path d="M1326.397 63.597c-.044.818.005 1.494-.149 2.12-.079.324-.494.745-.8.783-.281.035-.838-.339-.894-.611-.279-1.349-.499-2.72-.582-4.092-.019-.32.578-.956.883-.951.462.008 1.166.351 1.319.732.262.652.176 1.444.223 2.019z"/><path d="M1102.817 67.533c-2.201-.035-2.355-.134-2.449-1.565-.043-.661-.033-1.333.028-1.992.069-.754.519-1.345 1.286-1.166.44.102 1.027.678 1.084 1.103.151 1.125.051 2.286.051 3.62z"/><path d="M1217.02 61.324c.869.455 1.314 1.125 1.35 2.155.058 1.631.016 1.959-.961 3.171-1.375-.688-1.567-1.925-1.555-3.272.013-1.256.009-1.256 1.166-2.054z"/><path d="M1309.457 67.197c-2.085-1.998-2.462-3.766-1.254-5.359 2.338 1.565 2.761 3.183 1.254 5.359z"/><path d="M1318.408 64.723c-.058.742.019 1.132-.132 1.384-.233.387-.589.889-.956.948-.322.052-.921-.36-1.065-.705-.375-.896-.658-1.857-.788-2.817-.048-.359.344-.979.691-1.133.339-.151 1.095-.01 1.28.265.484.717.757 1.578.97 2.058z"/><path d="M1124.515 66.684c-.368.432-.713 1.214-1.252 1.384-.878.278-1.283-.445-1.406-1.293-.094-.648-.264-1.285-.399-1.927-.161-.763.099-1.43.855-1.514.439-.049 1.145.323 1.365.712.395.697.514 1.55.837 2.638z"/><path d="M1288.894 61.321c-.043.394.019 1.016-.208 1.505-.169.364-.713.765-1.087.762-.374-.004-1.017-.45-1.064-.772-.15-1.037-.164-2.116-.043-3.157.039-.336.69-.879 1-.84.46.058 1.003.467 1.254.881.226.372.105.953.148 1.621z"/><path d="M1078.455 62.405c.574.847 1.165 1.381 1.31 2.016.176.775.086 1.663-.109 2.446-.083.33-.711.667-1.128.723-.294.039-.886-.345-.938-.619-.274-1.421-.714-2.912.865-4.566z"/><path d="M1113.11 69.029c-.979.233-1.721.252-1.744-.981-.015-.817-.059-1.64.016-2.45.089-.968.661-1.478 1.391-1.323.906.191 1.153.88 1.028 1.674-.15.955-.418 1.893-.691 3.08z"/><path d="M1150.515 57.744c1.012.897 1.501 2.02 1.788 3.21.206.858-.315 1.596-1.039 1.666-.792.076-1.2-.373-1.372-1.104-.149-.634-.356-1.258-.469-1.898-.138-.775-.045-1.485 1.092-1.874z"/><path d="M1129.965 59.481c2.321-.205 2.885 1.175 2.004 4.66-.371-.09-.947-.062-1.079-.291-.744-1.288-1.168-2.682-.925-4.369z"/><path d="M1184.306 63.253c.059-.566-.037-1.223.225-1.669.23-.392.862-.754 1.317-.756.603-.002.974.481.828 1.212-.158.793-.139 1.635-.392 2.39-.147.441-.675.755-1.032 1.126-.287-.357-.67-.676-.832-1.083-.14-.353-.029-.806-.029-1.214l-.085-.006z"/><path d="M1225.455 63.213c1.205.142 1.436.997 1.733 1.731.292.719.3 1.517-.438 1.957-.333.198-1.211.166-1.292-.012-.417-.919-.73-1.906-.899-2.9-.037-.225.648-.571.896-.776z"/><path d="M1090.251 60.765c1.338.489 1.713 1.407 1.585 2.602-.081.751-.496 1.357-1.257 1.224-.44-.077-1.048-.634-1.124-1.057-.168-.929-.424-2.013.796-2.769z"/><path d="M1176.053 60.938c1.037-.387 1.912-.295 2.151.675.256 1.042.561 2.281-.764 2.996-1.558-1.322-1.582-1.385-1.387-3.671z"/><path d="M1421.898 64.103c0-.659-.116-1.346.038-1.967.118-.476.576-.867.883-1.296.347.385.919.727 1 1.161.266 1.438.434 2.908.463 4.37.008.409-.547 1.097-.935 1.17-.388.073-1.181-.382-1.285-.75-.238-.849-.166-1.784-.22-2.685l.056-.003z"/><path d="M1415.936 62.465c-.055 1-.036 1.922-.192 2.813-.052.301-.54.719-.839.728-.292.009-.847-.425-.858-.683-.081-1.9-.088-3.807-.022-5.708.009-.268.539-.713.838-.722.293-.008.813.4.86.688.162.975.159 1.977.213 2.884z"/><path d="M1357.197 63.968c-1.581.051-1.953-.174-2.245-1.3-.261-1.005-.507-2.015-.787-3.135 1.196-1.223 2.079-1.147 2.711.393.513 1.252.701 2.532.321 4.042z"/><path d="M1383.725 59.592c2.544 2.048 2.885 4.043 1.083 6.179-.4-.534-.913-.969-1.094-1.514-.358-1.077-.606-2.206-.738-3.333-.042-.361.423-.781.749-1.332z"/><path d="M1372.564 65.725c-.395-.621-.998-1.18-1.1-1.819-.152-.954-.018-1.976.141-2.945.045-.277.582-.628.921-.661.338-.033.972.234 1.022.467.205.954.266 1.943.321 2.923.043.752.033 1.526-1.305 2.035z"/><path d="M1430.833 66.692c-1.77-2.044-1.924-3.388-.656-5.396.979.165 1.509.777 1.685 1.748.254 1.395-.053 2.568-1.029 3.648z"/><path d="M1363.484 57.458c1.625 1.031 1.961 2.245 2.322 3.384.238.752-.006 1.541-.901 1.748-.908.21-1.337-.362-1.511-1.199-.133-.638-.433-1.264-.44-1.897-.006-.576.285-1.153.53-2.036z"/><path d="M1397.823 63.175c.074-.562-.008-1.225.27-1.657.244-.379.907-.712 1.356-.679.589.044.912.543.736 1.274-.189.784-.157 1.625-.376 2.397-.112.397-.561.698-.857 1.043-.347-.381-.79-.715-1.008-1.159-.162-.329-.032-.802-.032-1.211l-.089-.008z"/><path d="M1441.13 65.827c-.462.467-.816 1.094-1.304 1.227-.354.096-1.013-.367-1.304-.755-.322-.429-.538-1.065-.507-1.594.027-.475.35-1.079.735-1.336.252-.168 1.015.041 1.255.327.448.537.682 1.253 1.125 2.131z"/><path d="M1389.536 60.953c1.09-.403 1.953-.304 2.202.665.27 1.052.47 2.257-.826 3.083-1.396-.947-1.718-2.156-1.376-3.748z"/></g><g fill="#EDEBE9"><path d="M1135.492 77.478c-.442-.235-.986-.338-1.09-.61-.617-1.605-1.136-3.25-.751-5.012 1.774-.583 2.029-.444 2.388 1.08.2.849.525 1.668.853 2.684l-1.4 1.858z"/><path d="M1102.024 75.459l-.001 1.313c-.012.836-.303 1.541-1.234 1.545-.927.004-1.188-.694-1.264-1.529-.089-.978-.374-1.948-.366-2.92.004-.463.405-1.188.781-1.308.376-.119 1.197.245 1.379.615.426.867.586 1.865.705 2.284z"/><path d="M1145.2 76.831c-2.332-.741-2.041-2.757-2.487-4.34-.068-.24.326-.775.625-.907.31-.138 1.014-.082 1.114.112.739 1.428 1.628 2.845 1.333 4.57-.032.19-.337.335-.585.565z"/><path d="M1125.072 75.292c-.044.818.005 1.494-.148 2.12-.079.324-.494.745-.8.783-.281.035-.838-.339-.894-.611-.279-1.349-.499-2.72-.582-4.092-.02-.32.578-.956.883-.951.462.008 1.166.351 1.319.732.26.652.175 1.443.222 2.019z"/><path d="M1108.132 78.892c-2.085-1.998-2.462-3.766-1.254-5.359 2.338 1.565 2.761 3.183 1.254 5.359z"/><path d="M1117.083 76.417c-.058.742.019 1.132-.132 1.384-.233.387-.589.889-.956.948-.322.052-.921-.36-1.065-.705-.376-.896-.658-1.857-.788-2.817-.048-.359.344-.979.69-1.133.339-.151 1.095-.01 1.28.265.485.717.758 1.579.971 2.058z"/><path d="M1087.569 73.016c-.043.394.019 1.016-.208 1.505-.169.364-.713.765-1.087.762-.374-.004-1.018-.45-1.064-.772-.149-1.037-.164-2.116-.043-3.157.039-.336.69-.879 1-.84.46.058 1.003.467 1.254.881.225.371.104.953.148 1.621z"/><path d="M1258.994 72.004c-.034.769.076 1.517-.127 2.167-.365 1.163-.412 2.256.008 3.403.499 1.36-.128 2.197-1.402 2.778-.943-.731-1.426-1.463-1.098-2.759.279-1.101.117-2.309.198-3.466.102-1.456.422-1.744 2.421-2.123z"/><path d="M1262.862 73.938c.328-.473.844-1.263 1.817-.919.917.325 1.429 1.088 1.386 2.14-.034.829.023 1.664-.051 2.488-.067.75-.545 1.332-1.307 1.134-.437-.113-.925-.674-1.07-1.134-.334-1.058-.472-2.178-.775-3.709z"/><path d="M1350.42 75.679l-1.386 1.777c-.41-.2-.959-.286-1.068-.553-.68-1.661-1.207-3.369-.744-5.181 1.955-.281 2.008-.232 2.342 1.163.202.85.508 1.675.856 2.794z"/><path d="M1272.089 71.497c1.519.124 2.059.758 1.985 1.989-.065 1.077.064 2.177-.11 3.231-.069.421-.671.895-1.13 1.05-.213.072-.882-.51-.97-.884-.411-1.756-.635-3.539.225-5.386z"/><path d="M1220.572 75.797c0-.659-.116-1.346.038-1.967.118-.476.576-.867.883-1.296.347.385.919.727 1 1.161.266 1.438.434 2.908.462 4.37.008.409-.547 1.097-.935 1.17-.388.073-1.181-.382-1.285-.75-.238-.849-.166-1.784-.22-2.685l.057-.003z"/><path d="M1315.53 76.119c0 .331.034.667-.007.993-.094.75-.521 1.341-1.286 1.166-.439-.101-.978-.653-1.094-1.101-.288-1.104-.455-2.265-.465-3.404-.004-.432.495-1.142.877-1.228.392-.088 1.16.32 1.341.708.409.876.557 1.874.812 2.822l-.178.044z"/><path d="M1214.611 74.159c-.054 1-.036 1.922-.192 2.813-.052.301-.539.719-.839.728-.292.009-.847-.425-.858-.683-.081-1.9-.089-3.807-.022-5.708.009-.268.539-.713.838-.722.293-.008.813.4.86.688.162.975.159 1.977.213 2.884z"/><path d="M1418.599 71.801c1.241 1.31 2.01 2.591 1.964 4.248-.043 1.517-.322 1.718-2.162 1.61-1.012-4.312-1.012-4.312.198-5.858z"/><path d="M1155.871 75.663c-1.581.051-1.953-.174-2.245-1.3-.261-1.005-.507-2.015-.787-3.135 1.196-1.223 2.079-1.147 2.711.393.514 1.252.702 2.532.321 4.042z"/><path d="M1182.4 71.287c2.544 2.048 2.884 4.043 1.083 6.179-.4-.534-.913-.969-1.094-1.514-.358-1.077-.606-2.206-.738-3.333-.042-.361.423-.782.749-1.332z"/><path d="M1171.239 77.42c-.395-.621-.998-1.18-1.1-1.819-.152-.954-.018-1.976.141-2.945.046-.277.582-.628.921-.661.338-.033.972.234 1.022.467.205.954.266 1.943.321 2.923.043.752.033 1.525-1.305 2.035z"/><path d="M1358.66 76.793c-2.301-.71-2.056-2.786-2.422-4.464-.149-.684 1.072-1.14 1.71-.694.738.515 1.676 3.92 1.272 4.758-.089.186-.379.276-.56.4z"/><path d="M1338.604 75.309c-.044.888.046 1.505-.14 2.022-.135.374-.598.739-.992.863-.177.056-.727-.448-.79-.762-.255-1.273-.457-2.568-.519-3.862-.017-.347.518-1.003.823-1.017.46-.021 1.223.292 1.355.649.272.74.215 1.602.263 2.107z"/><path d="M1387.31 70.968c1.58 1.725 1.945 3.178 1.672 4.767-.068.393-.519.913-.888 1.007-.362.093-1.163-.215-1.216-.465-.218-1.026-.304-2.099-.277-3.15.015-.568.356-1.129.709-2.159z"/><path d="M1301.054 72.885c0 .327.012.655-.002.982-.037.833-.371 1.471-1.295 1.45-.785-.018-1.131-.596-1.168-1.323-.037-.735-.036-1.474 0-2.209.036-.727.377-1.306 1.163-1.327.923-.024 1.261.611 1.3 1.444.014.328.002.656.002.983z"/><path d="M1229.508 78.387c-1.77-2.044-1.924-3.388-.656-5.396.979.165 1.509.777 1.685 1.748.254 1.395-.053 2.567-1.029 3.648z"/><path d="M1321.504 78.891c-2.106-2.48-2.345-3.974-.958-5.362 2.37 2.04 2.668 3.478.958 5.362z"/><path d="M1330.612 76.422c-.058.743.018 1.133-.134 1.384-.234.386-.594.886-.961.943-.323.05-.918-.364-1.063-.711-.375-.897-.657-1.857-.786-2.818-.048-.358.349-.977.696-1.13.339-.149 1.093-.004 1.278.272.486.72.758 1.582.97 2.06z"/><path d="M1423.695 73.945c1.339 1.012 1.564 2.371 1.279 3.799-.085.426-.721 1.013-1.121 1.027-.395.014-1.18-.635-1.156-.941.104-1.285-1.488-2.975.998-3.885z"/><path d="M1162.159 69.153c1.626 1.031 1.961 2.245 2.322 3.384.239.752-.006 1.541-.901 1.748-.909.21-1.337-.362-1.511-1.199-.133-.638-.433-1.264-.44-1.897-.006-.576.285-1.154.53-2.036z"/><path d="M1196.498 74.87c.074-.562-.008-1.225.27-1.657.244-.379.907-.712 1.356-.679.589.044.912.543.736 1.274-.189.784-.157 1.625-.376 2.397-.112.397-.561.698-.857 1.043-.347-.381-.79-.715-1.008-1.159-.162-.329-.032-.802-.032-1.211l-.089-.008z"/><path d="M1239.804 77.522c-.462.467-.816 1.094-1.304 1.227-.354.096-1.013-.367-1.304-.755-.322-.429-.538-1.065-.508-1.594.027-.475.35-1.079.735-1.336.252-.168 1.015.041 1.255.327.449.537.684 1.252 1.126 2.131z"/><path d="M1188.211 72.648c1.09-.403 1.953-.304 2.202.665.27 1.052.47 2.257-.826 3.083-1.396-.947-1.718-2.157-1.376-3.748z"/><path d="M1396.119 76.932c-2.106-1.14-2.093-2.237-.039-4.019l1.496 1.233-1.457 2.786z"/><path d="M1378.682 74.071c1.312-.248 1.788.366 2.163 1.005.407.693.151 1.317-.557 1.646-.743.346-1.372.01-1.573-.712-.163-.588-.033-1.259-.033-1.939z"/></g><g fill="#EDEBE9"><path d="M1276.71 81.989c0 .753.163 1.505-.036 2.144-.361 1.163-.446 2.26-.012 3.403.519 1.367-.135 2.184-1.345 2.842-.959-.734-1.489-1.439-1.159-2.75.277-1.102.13-2.307.209-3.464.102-1.483.364-1.729 2.343-2.175z"/><path d="M1280.657 83.939c.344-.484.859-1.272 1.834-.914.917.336 1.416 1.102 1.371 2.151-.036.829.095 1.688-.087 2.478-.104.45-.63 1.017-1.068 1.128-.766.195-1.173-.401-1.315-1.141-.211-1.096-.434-2.19-.735-3.702z"/><path d="M1366.817 87.478c-.442-.235-.986-.338-1.09-.61-.617-1.605-1.136-3.25-.751-5.012 1.774-.583 2.029-.444 2.388 1.08.2.849.525 1.668.853 2.684l-1.4 1.858z"/><path d="M1289.901 81.522c1.47.077 2.034.686 1.968 1.925-.057 1.078.068 2.176-.101 3.231-.068.429-.646.91-1.1 1.084-.205.079-.897-.481-.988-.845-.452-1.823-.667-3.668.221-5.395z"/><path d="M1238.416 85.666c0-.74-.108-1.503.045-2.21.078-.361.586-.74.979-.87.174-.058.747.45.794.754.249 1.609.461 3.233.51 4.857.011.367-.659 1.029-1.05 1.056-.4.028-1.126-.497-1.209-.886-.185-.865-.058-1.796-.058-2.7l-.011-.001z"/><path d="M1232.291 84.163c-.001.913.068 1.835-.039 2.735-.037.313-.593.852-.771.801-.4-.115-.996-.521-1.012-.835-.095-1.822-.082-3.652-.008-5.476.012-.294.593-.847.774-.796.399.113.956.496 1.01.839.141.89.047 1.819.046 2.732z"/><path d="M1333.349 85.459v1.313c-.012.836-.303 1.541-1.234 1.545-.927.004-1.188-.694-1.264-1.529-.089-.978-.374-1.948-.366-2.92.004-.463.405-1.188.781-1.308.376-.119 1.197.245 1.379.615.426.867.585 1.865.704 2.284z"/><path d="M1170.604 81.099c1.617-1.061 2.267-.945 2.774.764.341 1.149.413 2.378.6 3.539-1.792.476-2.21.277-2.553-1.031-.262-1-.505-2.006-.821-3.272z"/><path d="M1200.085 81.308c2.698 1.94 3.083 4.292 1.178 5.995-1.814-1.039-1.159-3.093-1.809-4.597-.12-.277.35-.81.631-1.398z"/><path d="M1189.267 87.789c-.616-1.035-1.236-1.66-1.344-2.363-.145-.947.041-1.967.233-2.927.049-.243.667-.53 1.008-.512.339.018.901.353.947.622.274 1.584.701 3.224-.844 5.18z"/><path d="M1376.526 86.831c-2.332-.741-2.041-2.757-2.487-4.34-.068-.24.326-.775.625-.907.31-.138 1.014-.082 1.114.112.739 1.428 1.628 2.845 1.333 4.57-.032.19-.337.335-.585.565z"/><path d="M1356.397 85.292c-.044.818.005 1.494-.149 2.12-.079.324-.494.745-.8.783-.281.035-.838-.339-.894-.611-.279-1.349-.499-2.72-.582-4.092-.019-.32.578-.956.883-.951.462.008 1.166.351 1.319.732.262.652.176 1.443.223 2.019z"/><path d="M1089.284 85.37c0 .656.09 1.329-.024 1.965-.132.738-.722 1.218-1.435.918-.407-.171-.87-.828-.86-1.256.028-1.212.239-2.429.486-3.622.067-.322.59-.838.776-.789.396.106.901.465 1.013.828.187.607.101 1.299.13 1.955l-.086.001z"/><path d="M1132.817 89.227c-2.201-.035-2.355-.134-2.449-1.565-.043-.661-.033-1.333.028-1.992.069-.754.519-1.345 1.286-1.166.44.102 1.027.678 1.084 1.103.151 1.126.051 2.286.051 3.62z"/><path d="M1247.02 83.018c.869.455 1.314 1.125 1.35 2.155.058 1.631.016 1.959-.961 3.171-1.375-.688-1.567-1.925-1.555-3.272.013-1.256.009-1.256 1.166-2.054z"/><path d="M1339.457 88.892c-2.085-1.998-2.462-3.766-1.254-5.359 2.338 1.565 2.761 3.183 1.254 5.359z"/><path d="M1348.408 86.417c-.058.742.019 1.132-.132 1.384-.233.387-.589.889-.956.948-.322.052-.921-.36-1.065-.705-.375-.896-.658-1.857-.788-2.817-.048-.359.344-.979.691-1.133.339-.151 1.095-.01 1.28.265.484.717.757 1.579.97 2.058z"/><path d="M1154.515 88.379c-.368.432-.713 1.214-1.252 1.384-.878.278-1.283-.445-1.406-1.293-.094-.648-.264-1.285-.399-1.927-.161-.763.099-1.43.855-1.514.439-.049 1.145.323 1.365.712.395.697.514 1.55.837 2.638z"/><path d="M1318.894 83.016c-.043.394.019 1.016-.208 1.505-.169.364-.713.765-1.087.762-.374-.004-1.017-.45-1.064-.772-.15-1.037-.164-2.116-.043-3.157.039-.336.69-.879 1-.84.46.058 1.003.467 1.254.881.226.371.105.953.148 1.621z"/><path d="M1108.455 84.099c.574.847 1.165 1.381 1.31 2.016.176.775.086 1.663-.109 2.446-.083.33-.711.667-1.128.723-.294.039-.886-.345-.938-.619-.274-1.421-.714-2.911.865-4.566z"/><path d="M1143.11 90.723c-.979.233-1.721.252-1.744-.981-.015-.817-.059-1.64.016-2.45.089-.968.661-1.478 1.391-1.323.906.191 1.153.88 1.028 1.674-.15.956-.418 1.894-.691 3.08z"/><path d="M1068.347 84.565v.583c-.005.695-.09 1.468-.887 1.574-.858.114-.956-.659-1.138-1.329-.168-.618-.679-1.16-.77-1.776-.069-.469.155-1.134.493-1.455.223-.212.956-.105 1.326.101.907.504 1.069 1.416.976 2.302z"/><path d="M1180.515 79.439c1.012.897 1.501 2.02 1.788 3.21.206.858-.315 1.596-1.039 1.666-.792.076-1.2-.373-1.372-1.104-.149-.634-.356-1.258-.469-1.898-.138-.775-.045-1.485 1.092-1.874z"/><path d="M1159.965 81.176c2.321-.205 2.885 1.175 2.004 4.66-.371-.09-.947-.062-1.079-.291-.744-1.288-1.168-2.682-.925-4.369z"/><path d="M1214.306 84.948c.059-.566-.037-1.223.225-1.669.23-.392.862-.754 1.317-.756.603-.002.974.481.828 1.212-.158.793-.139 1.635-.392 2.39-.147.441-.675.755-1.032 1.126-.287-.357-.67-.676-.832-1.083-.14-.353-.029-.806-.029-1.214l-.085-.006z"/><path d="M1255.455 84.907c1.205.143 1.436.997 1.733 1.731.292.719.3 1.517-.438 1.957-.333.198-1.211.166-1.292-.012-.417-.919-.73-1.906-.899-2.9-.037-.224.648-.571.896-.776z"/><path d="M1120.251 82.46c1.338.489 1.713 1.407 1.585 2.602-.081.751-.496 1.357-1.257 1.224-.44-.077-1.048-.634-1.124-1.057-.168-.93-.424-2.014.796-2.769z"/><path d="M1206.053 82.632c1.037-.387 1.912-.295 2.151.675.256 1.042.561 2.281-.764 2.996-1.558-1.321-1.582-1.384-1.387-3.671z"/><path d="M1387.197 85.663c-1.581.051-1.953-.174-2.245-1.3-.261-1.005-.507-2.015-.787-3.135 1.196-1.223 2.079-1.147 2.711.393.513 1.252.701 2.532.321 4.042z"/><path d="M1413.725 81.287c2.544 2.048 2.885 4.043 1.083 6.179-.4-.534-.913-.969-1.094-1.514-.358-1.077-.606-2.206-.738-3.333-.042-.361.423-.782.749-1.332z"/><path d="M1402.564 87.42c-.395-.621-.998-1.18-1.1-1.819-.152-.954-.018-1.976.141-2.945.045-.277.582-.628.921-.661.338-.033.972.234 1.022.467.205.954.266 1.943.321 2.923.043.752.033 1.525-1.305 2.035z"/><path d="M1393.484 79.153c1.625 1.031 1.961 2.245 2.322 3.384.238.752-.006 1.541-.901 1.748-.908.21-1.337-.362-1.511-1.199-.133-.638-.433-1.264-.44-1.897-.006-.576.285-1.154.53-2.036z"/><path d="M1427.823 84.87c.074-.562-.008-1.225.27-1.657.244-.379.907-.712 1.356-.679.589.044.912.543.736 1.274-.189.784-.157 1.625-.376 2.397-.112.397-.561.698-.857 1.043-.347-.381-.79-.715-1.008-1.159-.162-.329-.032-.802-.032-1.211l-.089-.008z"/><path d="M1419.536 82.648c1.09-.403 1.953-.304 2.202.665.27 1.052.47 2.257-.826 3.083-1.396-.947-1.718-2.157-1.376-3.748z"/></g><g fill="#EDEBE9"><path d="M1105.492 95.783c-.442-.235-.986-.338-1.09-.61-.617-1.605-1.136-3.25-.751-5.012 1.774-.583 2.029-.444 2.388 1.08.2.849.525 1.668.853 2.684l-1.4 1.858z"/><path d="M1072.024 93.764l-.001 1.313c-.012.836-.303 1.541-1.234 1.545-.927.004-1.188-.694-1.264-1.529-.089-.978-.374-1.948-.366-2.92.004-.463.405-1.188.781-1.308.376-.119 1.197.245 1.379.615.426.867.586 1.865.705 2.284z"/><path d="M1115.2 95.136c-2.332-.741-2.041-2.757-2.487-4.34-.068-.24.326-.775.625-.907.31-.138 1.014-.082 1.114.112.739 1.428 1.628 2.845 1.333 4.57-.032.191-.337.335-.585.565z"/><path d="M1095.072 93.597c-.044.818.005 1.494-.148 2.12-.079.324-.494.745-.8.783-.281.035-.838-.339-.894-.611-.279-1.349-.499-2.72-.582-4.092-.02-.32.578-.956.883-.951.462.008 1.166.351 1.319.732.26.652.175 1.444.222 2.019z"/><path d="M1078.132 97.197c-2.085-1.998-2.462-3.766-1.254-5.359 2.338 1.565 2.761 3.183 1.254 5.359z"/><path d="M1087.083 94.723c-.058.742.019 1.132-.132 1.384-.233.387-.589.889-.956.948-.322.052-.921-.36-1.065-.705-.376-.896-.658-1.857-.788-2.817-.048-.359.344-.979.69-1.133.339-.151 1.095-.01 1.28.265.485.717.758 1.578.971 2.058z"/><path d="M1228.994 90.309c-.034.769.076 1.517-.127 2.167-.365 1.163-.412 2.256.008 3.403.499 1.36-.128 2.197-1.402 2.778-.943-.731-1.426-1.463-1.098-2.759.279-1.101.117-2.309.198-3.466.102-1.456.422-1.744 2.421-2.123z"/><path d="M1410.497 90.294c2.35 1.681 2.901 5.005 1.193 7.331-1.031-.338-1.565-.998-1.631-2.144-.066-1.138-.276-2.268-.432-3.4-.111-.808.059-1.458.87-1.787z"/><path d="M1232.862 92.243c.328-.473.844-1.263 1.817-.919.917.325 1.429 1.088 1.386 2.14-.034.829.023 1.664-.051 2.488-.067.75-.545 1.332-1.307 1.134-.437-.113-.925-.674-1.07-1.134-.334-1.058-.472-2.178-.775-3.709z"/><path d="M1320.42 93.984l-1.386 1.777c-.41-.2-.959-.286-1.068-.553-.68-1.661-1.207-3.369-.744-5.181 1.955-.281 2.008-.232 2.342 1.163.202.851.508 1.676.856 2.794z"/><path d="M1242.089 89.802c1.519.124 2.059.758 1.985 1.989-.065 1.077.064 2.177-.11 3.231-.069.421-.671.895-1.13 1.05-.213.072-.882-.51-.97-.884-.411-1.756-.635-3.538.225-5.386z"/><path d="M1190.572 94.103c0-.659-.116-1.346.038-1.967.118-.476.576-.867.883-1.296.347.385.919.727 1 1.161.266 1.438.434 2.908.462 4.37.008.409-.547 1.097-.935 1.17-.388.073-1.181-.382-1.285-.75-.238-.849-.166-1.784-.22-2.685l.057-.003z"/><path d="M1285.53 94.424c0 .331.034.667-.007.993-.094.75-.521 1.341-1.286 1.166-.439-.101-.978-.653-1.094-1.101-.288-1.104-.455-2.265-.465-3.404-.004-.432.495-1.142.877-1.228.392-.088 1.16.32 1.341.708.409.876.557 1.874.812 2.822l-.178.044z"/><path d="M1184.611 92.465c-.054 1-.036 1.922-.192 2.813-.052.301-.539.719-.839.728-.292.009-.847-.425-.858-.683-.081-1.9-.089-3.807-.022-5.708.009-.268.539-.713.838-.722.293-.008.813.4.86.688.162.975.159 1.977.213 2.884z"/><path d="M1388.599 90.107c1.241 1.31 2.01 2.591 1.964 4.248-.043 1.517-.322 1.718-2.162 1.61-1.012-4.312-1.012-4.312.198-5.858z"/><path d="M1125.871 93.968c-1.581.051-1.953-.174-2.245-1.3-.261-1.005-.507-2.015-.787-3.135 1.196-1.223 2.079-1.147 2.711.393.514 1.252.702 2.532.321 4.042z"/><path d="M1152.4 89.592c2.544 2.048 2.884 4.043 1.083 6.179-.4-.534-.913-.969-1.094-1.514-.358-1.077-.606-2.206-.738-3.333-.042-.361.423-.781.749-1.332z"/><path d="M1141.239 95.725c-.395-.621-.998-1.18-1.1-1.819-.152-.954-.018-1.976.141-2.945.046-.277.582-.628.921-.661.338-.033.972.234 1.022.467.205.954.266 1.943.321 2.923.043.752.033 1.526-1.305 2.035z"/><path d="M1328.66 95.098c-2.301-.71-2.056-2.786-2.422-4.464-.149-.684 1.072-1.14 1.71-.694.738.515 1.676 3.92 1.272 4.758-.089.186-.379.276-.56.4z"/><path d="M1308.604 93.615c-.044.888.046 1.505-.14 2.022-.135.374-.598.739-.992.863-.177.056-.727-.448-.79-.762-.255-1.273-.457-2.568-.519-3.862-.017-.347.518-1.003.823-1.017.46-.021 1.223.292 1.355.649.272.739.215 1.601.263 2.107z"/><path d="M1357.31 89.273c1.58 1.725 1.945 3.178 1.672 4.767-.068.393-.519.913-.888 1.007-.362.093-1.163-.215-1.216-.465-.218-1.026-.304-2.099-.277-3.15.015-.568.356-1.129.709-2.159z"/><path d="M1271.054 91.19c0 .327.012.655-.002.982-.037.833-.371 1.471-1.295 1.45-.785-.018-1.131-.596-1.168-1.323-.037-.735-.036-1.474 0-2.209.036-.727.377-1.306 1.163-1.327.923-.024 1.261.611 1.3 1.444.014.328.002.656.002.983z"/><path d="M1199.508 96.692c-1.77-2.044-1.924-3.388-.656-5.396.979.165 1.509.777 1.685 1.748.254 1.395-.053 2.568-1.029 3.648z"/><path d="M1291.504 97.196c-2.106-2.48-2.345-3.974-.958-5.362 2.37 2.041 2.668 3.478.958 5.362z"/><path d="M1300.612 94.728c-.058.743.018 1.133-.134 1.384-.234.386-.594.886-.961.943-.323.05-.918-.364-1.063-.711-.375-.897-.657-1.857-.786-2.818-.048-.358.349-.977.696-1.13.339-.149 1.093-.004 1.278.272.486.72.758 1.581.97 2.06z"/><path d="M1393.695 92.251c1.339 1.012 1.564 2.371 1.279 3.799-.085.426-.721 1.013-1.121 1.027-.395.014-1.18-.635-1.156-.941.104-1.286-1.488-2.976.998-3.885z"/><path d="M1426.398 95.76l-2.394-3.005c.438-.474.781-1.039 1.283-1.344.824-.5 1.564-.167 1.987.726.589 1.242.367 2.361-.876 3.623z"/><path d="M1132.159 87.458c1.626 1.031 1.961 2.245 2.322 3.384.239.752-.006 1.541-.901 1.748-.909.21-1.337-.362-1.511-1.199-.133-.638-.433-1.264-.44-1.897-.006-.576.285-1.153.53-2.036z"/><path d="M1166.498 93.175c.074-.562-.008-1.225.27-1.657.244-.379.907-.712 1.356-.679.589.044.912.543.736 1.274-.189.784-.157 1.625-.376 2.397-.112.397-.561.698-.857 1.043-.347-.381-.79-.715-1.008-1.159-.162-.329-.032-.802-.032-1.211l-.089-.008z"/><path d="M1209.804 95.827c-.462.467-.816 1.094-1.304 1.227-.354.096-1.013-.367-1.304-.755-.322-.429-.538-1.065-.508-1.594.027-.475.35-1.079.735-1.336.252-.168 1.015.041 1.255.327.449.537.684 1.253 1.126 2.131z"/><path d="M1158.211 90.953c1.09-.403 1.953-.304 2.202.665.27 1.052.47 2.257-.826 3.083-1.396-.947-1.718-2.156-1.376-3.748z"/><path d="M1366.119 95.237c-2.106-1.14-2.093-2.237-.039-4.019l1.496 1.233-1.457 2.786z"/><path d="M1418.622 93.255c-.061.747.023 1.152-.14 1.39-.248.364-.629.737-1.028.852-.18.052-.613-.465-.789-.799-.142-.268-.086-.649-.09-.98-.013-1.25.537-2.171 1.063-1.835.523.333.784 1.073.984 1.372z"/><path d="M1348.682 92.376c1.312-.248 1.788.366 2.163 1.005.407.693.151 1.317-.557 1.646-.743.346-1.372.01-1.573-.712-.163-.588-.033-1.258-.033-1.939z"/></g><g fill="#EDEBE9"><path d="M1246.71 100.294c0 .753.163 1.505-.036 2.144-.361 1.163-.446 2.26-.012 3.403.519 1.367-.135 2.184-1.345 2.842-.959-.734-1.489-1.439-1.159-2.75.277-1.102.13-2.307.209-3.464.102-1.482.364-1.729 2.343-2.175z"/><path d="M1250.657 102.244c.344-.484.859-1.272 1.834-.914.917.336 1.416 1.102 1.371 2.151-.036.829.095 1.688-.087 2.478-.104.45-.63 1.017-1.068 1.128-.766.195-1.173-.401-1.315-1.141-.211-1.096-.434-2.19-.735-3.702z"/><path d="M1336.817 105.783c-.442-.235-.986-.338-1.09-.61-.617-1.605-1.136-3.25-.751-5.012 1.774-.583 2.029-.444 2.388 1.08.2.849.525 1.668.853 2.684l-1.4 1.858z"/><path d="M1259.901 99.828c1.47.077 2.034.686 1.968 1.925-.057 1.078.068 2.176-.101 3.231-.068.429-.646.91-1.1 1.084-.205.079-.897-.481-.988-.845-.452-1.824-.667-3.668.221-5.395z"/><path d="M1208.416 103.971c0-.74-.108-1.503.045-2.21.078-.361.586-.74.979-.87.174-.058.747.45.794.754.249 1.609.461 3.233.51 4.857.011.367-.659 1.029-1.05 1.056-.4.028-1.126-.497-1.209-.886-.185-.865-.058-1.796-.058-2.7l-.011-.001z"/><path d="M1202.291 102.468c-.001.913.068 1.835-.039 2.735-.037.313-.593.852-.771.801-.4-.115-.996-.521-1.012-.835-.095-1.822-.082-3.652-.008-5.476.012-.294.593-.847.774-.796.399.113.956.496 1.01.839.141.891.047 1.819.046 2.732z"/><path d="M1303.349 103.764v1.313c-.012.836-.303 1.541-1.234 1.545-.927.004-1.188-.694-1.264-1.529-.089-.978-.374-1.948-.366-2.92.004-.463.405-1.188.781-1.308.376-.119 1.197.245 1.379.615.426.867.585 1.865.704 2.284z"/><path d="M1140.604 99.404c1.617-1.061 2.267-.945 2.774.764.341 1.149.413 2.378.6 3.539-1.792.476-2.21.277-2.553-1.031-.262-1-.505-2.006-.821-3.272z"/><path d="M1170.085 99.613c2.698 1.94 3.083 4.292 1.178 5.995-1.814-1.039-1.159-3.093-1.809-4.597-.12-.277.35-.809.631-1.398z"/><path d="M1159.267 106.095c-.616-1.035-1.236-1.66-1.344-2.363-.145-.947.041-1.967.233-2.927.049-.243.667-.53 1.008-.512.339.018.901.353.947.622.274 1.583.701 3.223-.844 5.18z"/><path d="M1346.526 105.136c-2.332-.741-2.041-2.757-2.487-4.34-.068-.24.326-.775.625-.907.31-.138 1.014-.082 1.114.112.739 1.428 1.628 2.845 1.333 4.57-.032.191-.337.335-.585.565z"/><path d="M1326.397 103.597c-.044.818.005 1.494-.149 2.12-.079.324-.494.745-.8.783-.281.035-.838-.339-.894-.611-.279-1.349-.499-2.72-.582-4.092-.019-.32.578-.956.883-.951.462.008 1.166.351 1.319.732.262.652.176 1.444.223 2.019z"/><path d="M1102.817 107.533c-2.201-.035-2.355-.134-2.449-1.565-.043-.661-.033-1.333.028-1.992.069-.754.519-1.345 1.286-1.166.44.102 1.027.678 1.084 1.103.151 1.125.051 2.286.051 3.62z"/><path d="M1217.02 101.324c.869.455 1.314 1.125 1.35 2.155.058 1.631.016 1.959-.961 3.171-1.375-.688-1.567-1.925-1.555-3.272.013-1.256.009-1.256 1.166-2.054z"/><path d="M1309.457 107.197c-2.085-1.998-2.462-3.766-1.254-5.359 2.338 1.565 2.761 3.183 1.254 5.359z"/><path d="M1318.408 104.723c-.058.742.019 1.132-.132 1.384-.233.387-.589.889-.956.948-.322.052-.921-.36-1.065-.705-.375-.896-.658-1.857-.788-2.817-.048-.359.344-.979.691-1.133.339-.151 1.095-.01 1.28.265.484.717.757 1.578.97 2.058z"/><path d="M1124.515 106.684c-.368.432-.713 1.214-1.252 1.384-.878.278-1.283-.445-1.406-1.293-.094-.648-.264-1.285-.399-1.927-.161-.763.099-1.43.855-1.514.439-.049 1.145.323 1.365.712.395.697.514 1.55.837 2.638z"/><path d="M1288.894 101.321c-.043.394.019 1.016-.208 1.505-.169.364-.713.765-1.087.762-.374-.004-1.017-.45-1.064-.772-.15-1.037-.164-2.116-.043-3.157.039-.336.69-.879 1-.84.46.058 1.003.467 1.254.881.226.372.105.953.148 1.621z"/><path d="M1078.455 102.405c.574.847 1.165 1.381 1.31 2.016.176.775.086 1.663-.109 2.446-.083.33-.711.667-1.128.723-.294.039-.886-.345-.938-.619-.274-1.421-.714-2.912.865-4.566z"/><path d="M1113.11 109.029c-.979.233-1.721.252-1.744-.981-.015-.817-.059-1.64.016-2.45.089-.968.661-1.478 1.391-1.323.906.191 1.153.88 1.028 1.674-.15.955-.418 1.893-.691 3.08z"/><path d="M1150.515 97.744c1.012.897 1.501 2.02 1.788 3.21.206.858-.315 1.596-1.039 1.666-.792.076-1.2-.373-1.372-1.104-.149-.634-.356-1.258-.469-1.898-.138-.775-.045-1.485 1.092-1.874z"/><path d="M1129.965 99.481c2.321-.205 2.885 1.175 2.004 4.66-.371-.09-.947-.062-1.079-.291-.744-1.288-1.168-2.682-.925-4.369z"/><path d="M1184.306 103.253c.059-.566-.037-1.223.225-1.669.23-.392.862-.754 1.317-.756.603-.002.974.481.828 1.212-.158.793-.139 1.635-.392 2.39-.147.441-.675.755-1.032 1.126-.287-.357-.67-.676-.832-1.083-.14-.353-.029-.806-.029-1.214l-.085-.006z"/><path d="M1225.455 103.213c1.205.143 1.436.997 1.733 1.731.292.719.3 1.517-.438 1.957-.333.198-1.211.166-1.292-.012-.417-.919-.73-1.906-.899-2.9-.037-.225.648-.571.896-.776z"/><path d="M1090.251 100.765c1.338.489 1.713 1.407 1.585 2.602-.081.751-.496 1.357-1.257 1.224-.44-.077-1.048-.634-1.124-1.057-.168-.929-.424-2.013.796-2.769z"/><path d="M1176.053 100.938c1.037-.387 1.912-.295 2.151.675.256 1.042.561 2.281-.764 2.996-1.558-1.322-1.582-1.385-1.387-3.671z"/><path d="M1421.898 104.103c0-.659-.116-1.346.038-1.967.118-.476.576-.867.883-1.296.347.385.919.727 1 1.161.266 1.438.434 2.908.463 4.37.008.409-.547 1.097-.935 1.17-.388.073-1.181-.382-1.285-.75-.238-.849-.166-1.784-.22-2.685l.056-.003z"/><path d="M1415.936 102.465c-.055 1-.036 1.922-.192 2.813-.052.301-.54.719-.839.728-.292.009-.847-.425-.858-.683-.081-1.9-.088-3.807-.022-5.708.009-.268.539-.713.838-.722.293-.008.813.4.86.688.162.975.159 1.977.213 2.884z"/><path d="M1357.197 103.968c-1.581.051-1.953-.174-2.245-1.3-.261-1.005-.507-2.015-.787-3.135 1.196-1.223 2.079-1.147 2.711.393.513 1.252.701 2.532.321 4.042z"/><path d="M1383.725 99.592c2.544 2.048 2.885 4.043 1.083 6.179-.4-.534-.913-.969-1.094-1.514-.358-1.077-.606-2.206-.738-3.333-.042-.361.423-.781.749-1.332z"/><path d="M1372.564 105.725c-.395-.621-.998-1.18-1.1-1.819-.152-.954-.018-1.976.141-2.945.045-.277.582-.628.921-.661.338-.033.972.234 1.022.467.205.954.266 1.943.321 2.923.043.752.033 1.526-1.305 2.035z"/><path d="M1430.833 106.692c-1.77-2.044-1.924-3.388-.656-5.396.979.165 1.509.777 1.685 1.748.254 1.395-.053 2.568-1.029 3.648z"/><path d="M1363.484 97.458c1.625 1.031 1.961 2.245 2.322 3.384.238.752-.006 1.541-.901 1.748-.908.21-1.337-.362-1.511-1.199-.133-.638-.433-1.264-.44-1.897-.006-.576.285-1.153.53-2.036z"/><path d="M1397.823 103.175c.074-.562-.008-1.225.27-1.657.244-.379.907-.712 1.356-.679.589.044.912.543.736 1.274-.189.784-.157 1.625-.376 2.397-.112.397-.561.698-.857 1.043-.347-.381-.79-.715-1.008-1.159-.162-.329-.032-.802-.032-1.211l-.089-.008z"/><path d="M1441.13 105.827c-.462.467-.816 1.094-1.304 1.227-.354.096-1.013-.367-1.304-.755-.322-.429-.538-1.065-.507-1.594.027-.475.35-1.079.735-1.336.252-.168 1.015.041 1.255.327.448.537.682 1.253 1.125 2.131z"/><path d="M1389.536 100.953c1.09-.403 1.953-.304 2.202.665.27 1.052.47 2.257-.826 3.083-1.396-.947-1.718-2.156-1.376-3.748z"/></g><g fill="#EDEBE9"><path d="M1135.492 117.478c-.442-.235-.986-.338-1.09-.61-.617-1.605-1.136-3.25-.751-5.012 1.774-.583 2.029-.444 2.388 1.08.2.849.525 1.668.853 2.684l-1.4 1.858z"/><path d="M1102.024 115.459l-.001 1.313c-.012.836-.303 1.541-1.234 1.545-.927.004-1.188-.694-1.264-1.529-.089-.978-.374-1.948-.366-2.92.004-.463.405-1.188.781-1.308.376-.119 1.197.245 1.379.615.426.867.586 1.865.705 2.284z"/><path d="M1145.2 116.831c-2.332-.741-2.041-2.757-2.487-4.34-.068-.24.326-.775.625-.907.31-.138 1.014-.082 1.114.112.739 1.428 1.628 2.845 1.333 4.57-.032.19-.337.335-.585.565z"/><path d="M1125.072 115.292c-.044.818.005 1.494-.148 2.12-.079.324-.494.745-.8.783-.281.035-.838-.339-.894-.611-.279-1.349-.499-2.72-.582-4.092-.02-.32.578-.956.883-.951.462.008 1.166.351 1.319.732.26.652.175 1.443.222 2.019z"/><path d="M1108.132 118.892c-2.085-1.998-2.462-3.766-1.254-5.359 2.338 1.565 2.761 3.183 1.254 5.359z"/><path d="M1117.083 116.417c-.058.742.019 1.132-.132 1.384-.233.387-.589.889-.956.948-.322.052-.921-.36-1.065-.705-.376-.896-.658-1.857-.788-2.817-.048-.359.344-.979.69-1.133.339-.151 1.095-.01 1.28.265.485.717.758 1.579.971 2.058z"/><path d="M1087.569 113.016c-.043.394.019 1.016-.208 1.505-.169.364-.713.765-1.087.762-.374-.004-1.018-.45-1.064-.772-.149-1.037-.164-2.116-.043-3.157.039-.336.69-.879 1-.84.46.058 1.003.467 1.254.881.225.371.104.953.148 1.621z"/><path d="M1258.994 112.004c-.034.769.076 1.517-.127 2.167-.365 1.163-.412 2.256.008 3.403.499 1.36-.128 2.197-1.402 2.778-.943-.731-1.426-1.463-1.098-2.759.279-1.101.117-2.309.198-3.466.102-1.456.422-1.744 2.421-2.123z"/><path d="M1262.862 113.938c.328-.473.844-1.263 1.817-.919.917.325 1.429 1.088 1.386 2.14-.034.829.023 1.664-.051 2.488-.067.75-.545 1.332-1.307 1.134-.437-.113-.925-.674-1.07-1.134-.334-1.058-.472-2.178-.775-3.709z"/><path d="M1350.42 115.679l-1.386 1.777c-.41-.2-.959-.286-1.068-.553-.68-1.661-1.207-3.369-.744-5.181 1.955-.281 2.008-.232 2.342 1.163.202.85.508 1.675.856 2.794z"/><path d="M1272.089 111.497c1.519.124 2.059.758 1.985 1.989-.065 1.077.064 2.177-.11 3.231-.069.421-.671.895-1.13 1.05-.213.072-.882-.51-.97-.884-.411-1.756-.635-3.539.225-5.386z"/><path d="M1220.572 115.797c0-.659-.116-1.346.038-1.967.118-.476.576-.867.883-1.296.347.385.919.727 1 1.161.266 1.438.434 2.908.462 4.37.008.409-.547 1.097-.935 1.17-.388.073-1.181-.382-1.285-.75-.238-.849-.166-1.784-.22-2.685l.057-.003z"/><path d="M1315.53 116.119c0 .331.034.667-.007.993-.094.75-.521 1.341-1.286 1.166-.439-.101-.978-.653-1.094-1.101-.288-1.104-.455-2.265-.465-3.404-.004-.432.495-1.142.877-1.228.392-.088 1.16.32 1.341.708.409.876.557 1.874.812 2.822l-.178.044z"/><path d="M1214.611 114.159c-.054 1-.036 1.922-.192 2.813-.052.301-.539.719-.839.728-.292.009-.847-.425-.858-.683-.081-1.9-.089-3.807-.022-5.708.009-.268.539-.713.838-.722.293-.008.813.4.86.688.162.975.159 1.977.213 2.884z"/><path d="M1418.599 111.801c1.241 1.31 2.01 2.591 1.964 4.248-.043 1.517-.322 1.718-2.162 1.61-1.012-4.312-1.012-4.312.198-5.858z"/><path d="M1155.871 115.663c-1.581.051-1.953-.174-2.245-1.3-.261-1.005-.507-2.015-.787-3.135 1.196-1.223 2.079-1.147 2.711.393.514 1.252.702 2.532.321 4.042z"/><path d="M1182.4 111.287c2.544 2.048 2.884 4.043 1.083 6.179-.4-.534-.913-.969-1.094-1.514-.358-1.077-.606-2.206-.738-3.333-.042-.361.423-.782.749-1.332z"/><path d="M1171.239 117.42c-.395-.621-.998-1.18-1.1-1.819-.152-.954-.018-1.976.141-2.945.046-.277.582-.628.921-.661.338-.033.972.234 1.022.467.205.954.266 1.943.321 2.923.043.752.033 1.525-1.305 2.035z"/><path d="M1358.66 116.793c-2.301-.71-2.056-2.786-2.422-4.464-.149-.684 1.072-1.14 1.71-.694.738.515 1.676 3.92 1.272 4.758-.089.186-.379.276-.56.4z"/><path d="M1338.604 115.309c-.044.888.046 1.505-.14 2.022-.135.374-.598.739-.992.863-.177.056-.727-.448-.79-.762-.255-1.273-.457-2.568-.519-3.862-.017-.347.518-1.003.823-1.017.46-.021 1.223.292 1.355.649.272.74.215 1.602.263 2.107z"/><path d="M1387.31 110.968c1.58 1.725 1.945 3.178 1.672 4.767-.068.393-.519.913-.888 1.007-.362.093-1.163-.215-1.216-.465-.218-1.026-.304-2.099-.277-3.15.015-.568.356-1.129.709-2.159z"/><path d="M1301.054 112.885c0 .327.012.655-.002.982-.037.833-.371 1.471-1.295 1.45-.785-.018-1.131-.596-1.168-1.323-.037-.735-.036-1.474 0-2.209.036-.727.377-1.306 1.163-1.327.923-.024 1.261.611 1.3 1.444.014.328.002.656.002.983z"/><path d="M1229.508 118.387c-1.77-2.044-1.924-3.388-.656-5.396.979.165 1.509.777 1.685 1.748.254 1.395-.053 2.567-1.029 3.648z"/><path d="M1321.504 118.891c-2.106-2.48-2.345-3.974-.958-5.362 2.37 2.04 2.668 3.478.958 5.362z"/><path d="M1330.612 116.422c-.058.743.018 1.133-.134 1.384-.234.386-.594.886-.961.943-.323.05-.918-.364-1.063-.711-.375-.897-.657-1.857-.786-2.818-.048-.358.349-.977.696-1.13.339-.149 1.093-.004 1.278.272.486.72.758 1.582.97 2.06z"/><path d="M1423.695 113.945c1.339 1.012 1.564 2.371 1.279 3.799-.085.426-.721 1.013-1.121 1.027-.395.014-1.18-.635-1.156-.941.104-1.285-1.488-2.975.998-3.885z"/><path d="M1162.159 109.153c1.626 1.031 1.961 2.245 2.322 3.384.239.752-.006 1.541-.901 1.748-.909.21-1.337-.362-1.511-1.199-.133-.638-.433-1.264-.44-1.897-.006-.576.285-1.154.53-2.036z"/><path d="M1196.498 114.87c.074-.562-.008-1.225.27-1.657.244-.379.907-.712 1.356-.679.589.044.912.543.736 1.274-.189.784-.157 1.625-.376 2.397-.112.397-.561.698-.857 1.043-.347-.381-.79-.715-1.008-1.159-.162-.329-.032-.802-.032-1.211l-.089-.008z"/><path d="M1239.804 117.522c-.462.467-.816 1.094-1.304 1.227-.354.096-1.013-.367-1.304-.755-.322-.429-.538-1.065-.508-1.594.027-.475.35-1.079.735-1.336.252-.168 1.015.041 1.255.327.449.537.684 1.252 1.126 2.131z"/><path d="M1188.211 112.648c1.09-.403 1.953-.304 2.202.665.27 1.052.47 2.257-.826 3.083-1.396-.947-1.718-2.157-1.376-3.748z"/><path d="M1396.119 116.932c-2.106-1.14-2.093-2.237-.039-4.019l1.496 1.233-1.457 2.786z"/><path d="M1378.682 114.071c1.312-.248 1.788.366 2.163 1.005.407.693.151 1.317-.557 1.646-.743.346-1.372.01-1.573-.712-.163-.588-.033-1.259-.033-1.939z"/></g><g fill="#EDEBE9"><path d="M1276.71 121.989c0 .753.163 1.505-.036 2.144-.361 1.163-.446 2.26-.012 3.403.519 1.367-.135 2.184-1.345 2.842-.959-.734-1.489-1.439-1.159-2.75.277-1.102.13-2.307.209-3.464.102-1.483.364-1.729 2.343-2.175z"/><path d="M1280.657 123.939c.344-.484.859-1.272 1.834-.914.917.336 1.416 1.102 1.371 2.151-.036.829.095 1.688-.087 2.478-.104.45-.63 1.017-1.068 1.128-.766.195-1.173-.401-1.315-1.142-.211-1.095-.434-2.189-.735-3.701z"/><path d="M1366.817 127.478c-.442-.235-.986-.338-1.09-.61-.617-1.605-1.136-3.25-.751-5.012 1.774-.583 2.029-.444 2.388 1.08.2.849.525 1.668.853 2.684l-1.4 1.858z"/><path d="M1289.901 121.522c1.47.077 2.034.686 1.968 1.925-.057 1.078.068 2.176-.101 3.231-.068.429-.646.91-1.1 1.084-.205.079-.897-.481-.988-.845-.452-1.823-.667-3.668.221-5.395z"/><path d="M1238.416 125.666c0-.74-.108-1.503.045-2.21.078-.361.586-.74.979-.87.174-.058.747.45.794.754.249 1.609.461 3.233.51 4.857.011.367-.659 1.029-1.05 1.056-.4.028-1.126-.497-1.209-.886-.185-.865-.058-1.796-.058-2.7l-.011-.001z"/><path d="M1232.291 124.163c-.001.913.068 1.835-.039 2.735-.037.313-.593.852-.771.801-.4-.115-.996-.521-1.012-.835-.095-1.822-.082-3.652-.008-5.476.012-.294.593-.847.774-.796.399.113.956.496 1.01.839.141.89.047 1.819.046 2.732z"/><path d="M1333.349 125.459v1.313c-.012.836-.303 1.541-1.234 1.545-.927.004-1.188-.694-1.264-1.529-.089-.978-.374-1.948-.366-2.92.004-.463.405-1.188.781-1.308.376-.119 1.197.245 1.379.615.426.867.585 1.865.704 2.284z"/><path d="M1170.604 121.099c1.617-1.061 2.267-.945 2.774.764.341 1.149.413 2.378.6 3.539-1.792.476-2.21.277-2.553-1.031-.262-1-.505-2.006-.821-3.272z"/><path d="M1200.085 121.308c2.698 1.94 3.083 4.292 1.178 5.995-1.814-1.039-1.159-3.093-1.809-4.597-.12-.277.35-.81.631-1.398z"/><path d="M1189.267 127.789c-.616-1.035-1.236-1.66-1.344-2.363-.145-.947.041-1.967.233-2.927.049-.243.667-.53 1.008-.512.339.018.901.353.947.622.274 1.584.701 3.224-.844 5.18z"/><path d="M1376.526 126.831c-2.332-.741-2.041-2.757-2.487-4.34-.068-.24.326-.775.625-.907.31-.138 1.014-.082 1.114.112.739 1.428 1.628 2.845 1.333 4.57-.032.19-.337.335-.585.565z"/><path d="M1356.397 125.292c-.044.818.005 1.494-.149 2.12-.079.324-.494.745-.8.783-.281.035-.838-.339-.894-.611-.279-1.349-.499-2.72-.582-4.092-.019-.32.578-.956.883-.951.462.008 1.166.351 1.319.732.262.652.176 1.443.223 2.019z"/><path d="M1089.284 125.37c0 .656.09 1.329-.024 1.965-.132.738-.722 1.218-1.435.918-.407-.171-.87-.828-.86-1.256.028-1.212.239-2.429.486-3.622.067-.322.59-.838.776-.789.396.106.901.465 1.013.828.187.607.101 1.299.13 1.955l-.086.001z"/><path d="M1132.817 129.227c-2.201-.035-2.355-.134-2.449-1.565-.043-.661-.033-1.333.028-1.992.069-.754.519-1.345 1.286-1.166.44.102 1.027.678 1.084 1.103.151 1.126.051 2.286.051 3.62z"/><path d="M1247.02 123.018c.869.455 1.314 1.125 1.35 2.155.058 1.631.016 1.959-.961 3.171-1.375-.688-1.567-1.925-1.555-3.272.013-1.256.009-1.256 1.166-2.054z"/><path d="M1339.457 128.892c-2.085-1.998-2.462-3.766-1.254-5.359 2.338 1.565 2.761 3.183 1.254 5.359z"/><path d="M1348.408 126.417c-.058.742.019 1.132-.132 1.384-.233.387-.589.889-.956.948-.322.052-.921-.36-1.065-.705-.375-.896-.658-1.857-.788-2.817-.048-.359.344-.979.691-1.133.339-.151 1.095-.01 1.28.265.484.717.757 1.579.97 2.058z"/><path d="M1154.515 128.378c-.368.432-.713 1.214-1.252 1.384-.878.278-1.283-.445-1.406-1.293-.094-.648-.264-1.285-.399-1.927-.161-.763.099-1.43.855-1.514.439-.049 1.145.323 1.365.712.395.698.514 1.551.837 2.638z"/><path d="M1318.894 123.016c-.043.394.019 1.016-.208 1.505-.169.364-.713.765-1.087.762-.374-.004-1.017-.45-1.064-.772-.15-1.037-.164-2.116-.043-3.157.039-.336.69-.879 1-.84.46.058 1.003.467 1.254.881.226.371.105.953.148 1.621z"/><path d="M1108.455 124.099c.574.847 1.165 1.381 1.31 2.016.176.775.086 1.663-.109 2.446-.083.33-.711.667-1.128.723-.294.039-.886-.345-.938-.619-.274-1.421-.714-2.911.865-4.566z"/><path d="M1143.11 130.723c-.979.233-1.721.252-1.744-.981-.015-.817-.059-1.64.016-2.45.089-.968.661-1.478 1.391-1.323.906.191 1.153.88 1.028 1.674-.15.956-.418 1.894-.691 3.08z"/><path d="M1068.347 124.565v.583c-.005.695-.09 1.468-.887 1.574-.858.114-.956-.659-1.138-1.329-.168-.618-.679-1.16-.77-1.776-.069-.469.155-1.134.493-1.455.223-.212.956-.105 1.326.101.907.504 1.069 1.416.976 2.302z"/><path d="M1180.515 119.439c1.012.897 1.501 2.02 1.788 3.21.206.858-.315 1.596-1.039 1.666-.792.076-1.2-.373-1.372-1.104-.149-.634-.356-1.258-.469-1.898-.138-.775-.045-1.485 1.092-1.874z"/><path d="M1159.965 121.176c2.321-.205 2.885 1.175 2.004 4.66-.371-.09-.947-.062-1.079-.291-.744-1.288-1.168-2.682-.925-4.369z"/><path d="M1214.306 124.948c.059-.566-.037-1.223.225-1.669.23-.392.862-.754 1.317-.756.603-.002.974.481.828 1.212-.158.793-.139 1.635-.392 2.39-.147.441-.675.755-1.032 1.126-.287-.357-.67-.676-.832-1.083-.14-.353-.029-.806-.029-1.214l-.085-.006z"/><path d="M1255.455 124.907c1.205.143 1.436.997 1.733 1.731.292.719.3 1.517-.438 1.957-.333.198-1.211.166-1.292-.012-.417-.919-.73-1.906-.899-2.9-.037-.224.648-.571.896-.776z"/><path d="M1120.251 122.46c1.338.489 1.713 1.407 1.585 2.602-.081.751-.496 1.357-1.257 1.224-.44-.077-1.048-.634-1.124-1.057-.168-.93-.424-2.014.796-2.769z"/><path d="M1206.053 122.632c1.037-.387 1.912-.295 2.151.675.256 1.042.561 2.281-.764 2.996-1.558-1.321-1.582-1.384-1.387-3.671z"/><path d="M1387.197 125.663c-1.581.051-1.953-.174-2.245-1.3-.261-1.005-.507-2.015-.787-3.135 1.196-1.223 2.079-1.147 2.711.393.513 1.252.701 2.532.321 4.042z"/><path d="M1413.725 121.287c2.544 2.048 2.885 4.043 1.083 6.179-.4-.534-.913-.969-1.094-1.514-.358-1.077-.606-2.206-.738-3.333-.042-.361.423-.782.749-1.332z"/><path d="M1402.564 127.42c-.395-.621-.998-1.18-1.1-1.819-.152-.954-.018-1.976.141-2.945.045-.277.582-.628.921-.661.338-.033.972.234 1.022.467.205.954.266 1.943.321 2.923.043.752.033 1.525-1.305 2.035z"/><path d="M1393.484 119.153c1.625 1.031 1.961 2.245 2.322 3.384.238.752-.006 1.541-.901 1.748-.908.21-1.337-.362-1.511-1.199-.133-.638-.433-1.264-.44-1.897-.006-.576.285-1.154.53-2.036z"/><path d="M1427.823 124.87c.074-.562-.008-1.225.27-1.657.244-.379.907-.712 1.356-.679.589.044.912.543.736 1.274-.189.784-.157 1.625-.376 2.397-.112.397-.561.698-.857 1.043-.347-.381-.79-.715-1.008-1.159-.162-.329-.032-.802-.032-1.211l-.089-.008z"/><path d="M1419.536 122.648c1.09-.403 1.953-.304 2.202.665.27 1.052.47 2.257-.826 3.083-1.396-.947-1.718-2.157-1.376-3.748z"/></g><g fill="#EDEBE9"><path d="M1105.492 135.783c-.442-.235-.986-.338-1.09-.61-.617-1.605-1.136-3.25-.751-5.012 1.774-.583 2.029-.444 2.388 1.08.2.849.525 1.668.853 2.684l-1.4 1.858z"/><path d="M1072.024 133.764l-.001 1.313c-.012.836-.303 1.541-1.234 1.545-.927.004-1.188-.694-1.264-1.529-.089-.978-.374-1.948-.366-2.92.004-.463.405-1.188.781-1.308.376-.119 1.197.245 1.379.615.426.867.586 1.865.705 2.284z"/><path d="M1115.2 135.136c-2.332-.741-2.041-2.757-2.487-4.34-.068-.24.326-.775.625-.907.31-.138 1.014-.082 1.114.112.739 1.428 1.628 2.845 1.333 4.57-.032.191-.337.335-.585.565z"/><path d="M1095.072 133.597c-.044.818.005 1.494-.148 2.12-.079.324-.494.745-.8.783-.281.035-.838-.339-.894-.611-.279-1.349-.499-2.72-.582-4.092-.02-.32.578-.956.883-.951.462.008 1.166.351 1.319.732.26.652.175 1.444.222 2.019z"/><path d="M1078.132 137.197c-2.085-1.998-2.462-3.766-1.254-5.359 2.338 1.565 2.761 3.183 1.254 5.359z"/><path d="M1087.083 134.723c-.058.742.019 1.132-.132 1.384-.233.387-.589.889-.956.948-.322.052-.921-.36-1.065-.705-.376-.896-.658-1.857-.788-2.817-.048-.359.344-.979.69-1.133.339-.151 1.095-.01 1.28.265.485.717.758 1.578.971 2.058z"/><path d="M1228.994 130.309c-.034.769.076 1.517-.127 2.167-.365 1.163-.412 2.256.008 3.403.499 1.36-.128 2.197-1.402 2.778-.943-.731-1.426-1.463-1.098-2.759.279-1.101.117-2.309.198-3.466.102-1.456.422-1.744 2.421-2.123z"/><path d="M1410.497 130.294c2.35 1.681 2.901 5.005 1.193 7.331-1.031-.338-1.565-.998-1.631-2.144-.066-1.138-.276-2.268-.432-3.4-.111-.808.059-1.458.87-1.787z"/><path d="M1232.862 132.243c.328-.473.844-1.263 1.817-.919.917.325 1.429 1.088 1.386 2.14-.034.829.023 1.664-.051 2.488-.067.75-.545 1.332-1.307 1.134-.437-.113-.925-.674-1.07-1.134-.334-1.058-.472-2.178-.775-3.709z"/><path d="M1320.42 133.984l-1.386 1.777c-.41-.2-.959-.286-1.068-.553-.68-1.661-1.207-3.369-.744-5.181 1.955-.281 2.008-.232 2.342 1.163.202.851.508 1.676.856 2.794z"/><path d="M1242.089 129.802c1.519.124 2.059.758 1.985 1.989-.065 1.077.064 2.177-.11 3.231-.069.421-.671.895-1.13 1.05-.213.072-.882-.51-.97-.884-.411-1.756-.635-3.538.225-5.386z"/><path d="M1190.572 134.103c0-.659-.116-1.346.038-1.967.118-.476.576-.867.883-1.296.347.385.919.727 1 1.161.266 1.438.434 2.908.462 4.37.008.409-.547 1.097-.935 1.17-.388.073-1.181-.382-1.285-.75-.238-.849-.166-1.784-.22-2.685l.057-.003z"/><path d="M1285.53 134.424c0 .331.034.667-.007.993-.094.75-.521 1.341-1.286 1.166-.439-.101-.978-.653-1.094-1.101-.288-1.104-.455-2.265-.465-3.404-.004-.432.495-1.142.877-1.228.392-.088 1.16.32 1.341.708.409.876.557 1.874.812 2.822l-.178.044z"/><path d="M1184.611 132.465c-.054 1-.036 1.922-.192 2.813-.052.301-.539.719-.839.728-.292.009-.847-.425-.858-.683-.081-1.9-.089-3.807-.022-5.708.009-.268.539-.713.838-.722.293-.008.813.4.86.688.162.975.159 1.977.213 2.884z"/><path d="M1388.599 130.107c1.241 1.31 2.01 2.591 1.964 4.248-.043 1.517-.322 1.718-2.162 1.61-1.012-4.312-1.012-4.312.198-5.858z"/><path d="M1125.871 133.968c-1.581.051-1.953-.174-2.245-1.3-.261-1.005-.507-2.015-.787-3.135 1.196-1.223 2.079-1.147 2.711.393.514 1.252.702 2.532.321 4.042z"/><path d="M1152.4 129.592c2.544 2.048 2.884 4.043 1.083 6.179-.4-.534-.913-.969-1.094-1.514-.358-1.077-.606-2.206-.738-3.333-.042-.361.423-.781.749-1.332z"/><path d="M1141.239 135.725c-.395-.621-.998-1.18-1.1-1.819-.152-.954-.018-1.976.141-2.945.046-.277.582-.628.921-.661.338-.033.972.234 1.022.467.205.954.266 1.943.321 2.923.043.752.033 1.525-1.305 2.035z"/><path d="M1328.66 135.098c-2.301-.71-2.056-2.786-2.422-4.464-.149-.684 1.072-1.14 1.71-.694.738.515 1.676 3.92 1.272 4.758-.089.186-.379.276-.56.4z"/><path d="M1308.604 133.615c-.044.888.046 1.505-.14 2.022-.135.374-.598.739-.992.863-.177.056-.727-.448-.79-.762-.255-1.273-.457-2.568-.519-3.862-.017-.347.518-1.003.823-1.017.46-.021 1.223.292 1.355.649.272.739.215 1.601.263 2.107z"/><path d="M1357.31 129.273c1.58 1.726 1.945 3.178 1.672 4.767-.068.393-.519.913-.888 1.007-.362.093-1.163-.215-1.216-.465-.218-1.026-.304-2.099-.277-3.15.015-.568.356-1.129.709-2.159z"/><path d="M1271.054 131.19c0 .327.012.655-.002.982-.037.833-.371 1.471-1.295 1.45-.785-.018-1.131-.596-1.168-1.323-.037-.735-.036-1.474 0-2.209.036-.727.377-1.306 1.163-1.327.923-.024 1.261.611 1.3 1.444.014.328.002.656.002.983z"/><path d="M1199.508 136.692c-1.77-2.044-1.924-3.388-.656-5.396.979.165 1.509.777 1.685 1.748.254 1.395-.053 2.568-1.029 3.648z"/><path d="M1291.504 137.196c-2.106-2.48-2.345-3.974-.958-5.362 2.37 2.041 2.668 3.478.958 5.362z"/><path d="M1300.612 134.728c-.058.743.018 1.133-.134 1.384-.234.386-.594.886-.961.943-.323.05-.918-.364-1.063-.711-.375-.897-.657-1.857-.786-2.818-.048-.358.349-.977.696-1.13.339-.149 1.093-.004 1.278.272.486.72.758 1.581.97 2.06z"/><path d="M1393.695 132.251c1.339 1.012 1.564 2.371 1.279 3.799-.085.426-.721 1.013-1.121 1.027-.395.014-1.18-.635-1.156-.941.104-1.286-1.488-2.976.998-3.885z"/><path d="M1426.398 135.76l-2.394-3.005c.438-.474.781-1.039 1.283-1.344.824-.5 1.564-.167 1.987.726.589 1.242.367 2.361-.876 3.623z"/><path d="M1132.159 127.458c1.626 1.031 1.961 2.245 2.322 3.384.239.752-.006 1.541-.901 1.748-.909.21-1.337-.362-1.511-1.199-.133-.638-.433-1.264-.44-1.897-.006-.576.285-1.153.53-2.036z"/><path d="M1166.498 133.175c.074-.562-.008-1.225.27-1.657.244-.379.907-.712 1.356-.679.589.044.912.543.736 1.274-.189.784-.157 1.625-.376 2.397-.112.397-.561.698-.857 1.043-.347-.381-.79-.715-1.008-1.159-.162-.329-.032-.802-.032-1.211l-.089-.008z"/><path d="M1209.804 135.827c-.462.467-.816 1.094-1.304 1.227-.354.096-1.013-.367-1.304-.755-.322-.429-.538-1.065-.508-1.594.027-.475.35-1.079.735-1.336.252-.168 1.015.041 1.255.327.449.537.684 1.253 1.126 2.131z"/><path d="M1158.211 130.953c1.09-.403 1.953-.304 2.202.665.27 1.052.47 2.257-.826 3.083-1.396-.947-1.718-2.156-1.376-3.748z"/><path d="M1366.119 135.237c-2.106-1.14-2.093-2.237-.039-4.019l1.496 1.233-1.457 2.786z"/><path d="M1418.622 133.255c-.061.747.023 1.152-.14 1.39-.248.364-.629.737-1.028.852-.18.052-.613-.465-.789-.799-.142-.268-.086-.649-.09-.98-.013-1.25.537-2.171 1.063-1.835.523.333.784 1.073.984 1.372z"/><path d="M1348.682 132.376c1.312-.248 1.788.366 2.163 1.005.407.693.151 1.317-.557 1.646-.743.346-1.372.01-1.573-.712-.163-.588-.033-1.258-.033-1.939z"/></g><g fill="#EDEBE9"><path d="M1246.71 140.294c0 .754.163 1.505-.036 2.144-.361 1.163-.446 2.26-.012 3.403.519 1.367-.135 2.184-1.345 2.842-.959-.734-1.489-1.439-1.159-2.75.277-1.102.13-2.307.209-3.464.102-1.482.364-1.729 2.343-2.175z"/><path d="M1250.657 142.244c.344-.484.859-1.272 1.834-.914.917.336 1.416 1.102 1.371 2.151-.036.829.095 1.688-.087 2.478-.104.45-.63 1.017-1.068 1.128-.766.195-1.173-.401-1.315-1.141-.211-1.096-.434-2.19-.735-3.702z"/><path d="M1336.817 145.783c-.442-.235-.986-.338-1.09-.61-.617-1.605-1.136-3.25-.751-5.012 1.774-.583 2.029-.444 2.388 1.08.2.849.525 1.668.853 2.684l-1.4 1.858z"/><path d="M1259.901 139.828c1.47.077 2.034.686 1.968 1.925-.057 1.078.068 2.176-.101 3.231-.068.429-.646.91-1.1 1.084-.205.079-.897-.48-.988-.845-.452-1.824-.667-3.668.221-5.395z"/><path d="M1208.416 143.971c0-.74-.108-1.503.045-2.21.078-.361.586-.74.979-.87.174-.058.747.45.794.754.249 1.609.461 3.233.51 4.857.011.367-.659 1.029-1.05 1.056-.4.028-1.126-.497-1.209-.886-.185-.865-.058-1.796-.058-2.7l-.011-.001z"/><path d="M1202.291 142.468c-.001.913.068 1.835-.039 2.735-.037.313-.593.852-.771.801-.4-.115-.996-.521-1.012-.835-.095-1.822-.082-3.652-.008-5.476.012-.294.593-.847.774-.796.399.113.956.496 1.01.839.141.891.047 1.819.046 2.732z"/><path d="M1303.349 143.764v1.313c-.012.836-.303 1.541-1.234 1.545-.927.004-1.188-.694-1.264-1.529-.089-.978-.374-1.948-.366-2.92.004-.463.405-1.188.781-1.308.376-.119 1.197.245 1.379.615.426.867.585 1.865.704 2.284z"/><path d="M1140.604 139.404c1.617-1.061 2.267-.945 2.774.764.341 1.149.413 2.378.6 3.539-1.792.476-2.21.277-2.553-1.031-.262-1-.505-2.006-.821-3.272z"/><path d="M1170.085 139.613c2.698 1.94 3.083 4.292 1.178 5.995-1.814-1.039-1.159-3.093-1.809-4.597-.12-.277.35-.809.631-1.398z"/><path d="M1159.267 146.095c-.616-1.035-1.236-1.66-1.344-2.363-.145-.947.041-1.967.233-2.927.049-.243.667-.53 1.008-.512.339.018.901.353.947.622.274 1.583.701 3.223-.844 5.18z"/><path d="M1346.526 145.136c-2.332-.741-2.041-2.757-2.487-4.34-.068-.24.326-.775.625-.907.31-.138 1.014-.082 1.114.112.739 1.428 1.628 2.845 1.333 4.57-.032.191-.337.335-.585.565z"/><path d="M1326.397 143.597c-.044.818.005 1.494-.149 2.12-.079.324-.494.745-.8.783-.281.035-.838-.339-.894-.611-.279-1.349-.499-2.72-.582-4.092-.019-.32.578-.956.883-.951.462.008 1.166.351 1.319.732.262.652.176 1.444.223 2.019z"/><path d="M1102.817 147.533c-2.201-.035-2.355-.134-2.449-1.565-.043-.661-.033-1.333.028-1.992.069-.754.519-1.345 1.286-1.166.44.102 1.027.678 1.084 1.103.151 1.125.051 2.286.051 3.62z"/><path d="M1217.02 141.324c.869.455 1.314 1.125 1.35 2.155.058 1.631.016 1.959-.961 3.171-1.375-.688-1.567-1.925-1.555-3.272.013-1.256.009-1.256 1.166-2.054z"/><path d="M1309.457 147.197c-2.085-1.998-2.462-3.766-1.254-5.359 2.338 1.565 2.761 3.183 1.254 5.359z"/><path d="M1318.408 144.723c-.058.742.019 1.132-.132 1.384-.233.387-.589.889-.956.948-.322.052-.921-.36-1.065-.705-.375-.896-.658-1.857-.788-2.817-.048-.359.344-.979.691-1.133.339-.151 1.095-.01 1.28.265.484.717.757 1.578.97 2.058z"/><path d="M1124.515 146.684c-.368.432-.713 1.214-1.252 1.384-.878.278-1.283-.445-1.406-1.293-.094-.648-.264-1.285-.399-1.927-.161-.763.099-1.43.855-1.514.439-.049 1.145.323 1.365.712.395.697.514 1.55.837 2.638z"/><path d="M1288.894 141.321c-.043.394.019 1.016-.208 1.505-.169.364-.713.765-1.087.762-.374-.004-1.017-.45-1.064-.772-.15-1.037-.164-2.116-.043-3.157.039-.336.69-.879 1-.84.46.058 1.003.467 1.254.881.226.372.105.953.148 1.621z"/><path d="M1078.455 142.405c.574.847 1.165 1.381 1.31 2.016.176.775.086 1.663-.109 2.446-.083.33-.711.667-1.128.723-.294.039-.886-.345-.938-.619-.274-1.421-.714-2.912.865-4.566z"/><path d="M1113.11 149.029c-.979.233-1.721.252-1.744-.981-.015-.817-.059-1.64.016-2.45.089-.967.661-1.478 1.391-1.323.906.191 1.153.88 1.028 1.674-.15.955-.418 1.893-.691 3.08z"/><path d="M1150.515 137.744c1.012.897 1.501 2.02 1.788 3.21.206.858-.315 1.596-1.039 1.666-.792.076-1.2-.373-1.372-1.104-.149-.635-.356-1.258-.469-1.898-.138-.775-.045-1.485 1.092-1.874z"/><path d="M1129.965 139.481c2.321-.205 2.885 1.175 2.004 4.66-.371-.09-.947-.062-1.079-.291-.744-1.288-1.168-2.682-.925-4.369z"/><path d="M1184.306 143.253c.059-.566-.037-1.223.225-1.669.23-.392.862-.754 1.317-.756.603-.002.974.481.828 1.212-.158.793-.139 1.635-.392 2.39-.147.441-.675.755-1.032 1.126-.287-.357-.67-.676-.832-1.083-.14-.353-.029-.806-.029-1.214l-.085-.006z"/><path d="M1225.455 143.213c1.205.143 1.436.997 1.733 1.731.292.719.3 1.517-.438 1.957-.333.198-1.211.166-1.292-.012-.417-.919-.73-1.906-.899-2.9-.037-.225.648-.571.896-.776z"/><path d="M1090.251 140.765c1.338.489 1.713 1.407 1.585 2.602-.081.751-.496 1.357-1.257 1.224-.44-.077-1.048-.634-1.124-1.057-.168-.929-.424-2.013.796-2.769z"/><path d="M1176.053 140.938c1.037-.387 1.912-.295 2.151.675.256 1.042.561 2.281-.764 2.996-1.558-1.322-1.582-1.385-1.387-3.671z"/><path d="M1421.898 144.103c0-.659-.116-1.346.038-1.967.118-.476.576-.867.883-1.296.347.385.919.727 1 1.161.266 1.438.434 2.908.463 4.37.008.409-.547 1.097-.935 1.17-.388.073-1.181-.382-1.285-.75-.238-.849-.166-1.784-.22-2.685l.056-.003z"/><path d="M1415.936 142.465c-.055 1-.036 1.922-.192 2.813-.052.301-.54.719-.839.728-.292.009-.847-.425-.858-.683-.081-1.9-.088-3.807-.022-5.708.009-.268.539-.713.838-.722.293-.008.813.4.86.688.162.975.159 1.977.213 2.884z"/><path d="M1357.197 143.968c-1.581.051-1.953-.174-2.245-1.3-.261-1.005-.507-2.015-.787-3.135 1.196-1.223 2.079-1.147 2.711.393.513 1.252.701 2.532.321 4.042z"/><path d="M1383.725 139.592c2.544 2.048 2.885 4.043 1.083 6.179-.4-.534-.913-.969-1.094-1.514-.358-1.077-.606-2.206-.738-3.333-.042-.361.423-.781.749-1.332z"/><path d="M1372.564 145.725c-.395-.621-.998-1.18-1.1-1.819-.152-.954-.018-1.976.141-2.945.045-.277.582-.628.921-.661.338-.033.972.234 1.022.467.205.954.266 1.943.321 2.923.043.752.033 1.525-1.305 2.035z"/><path d="M1430.833 146.692c-1.77-2.044-1.924-3.388-.656-5.396.979.165 1.509.777 1.685 1.748.254 1.395-.053 2.568-1.029 3.648z"/><path d="M1363.484 137.458c1.625 1.031 1.961 2.245 2.322 3.384.238.752-.006 1.541-.901 1.748-.908.21-1.337-.362-1.511-1.199-.133-.638-.433-1.264-.44-1.897-.006-.576.285-1.153.53-2.036z"/><path d="M1397.823 143.175c.074-.562-.008-1.225.27-1.657.244-.379.907-.712 1.356-.679.589.044.912.543.736 1.274-.189.784-.157 1.625-.376 2.397-.112.397-.561.698-.857 1.043-.347-.381-.79-.715-1.008-1.159-.162-.329-.032-.802-.032-1.211l-.089-.008z"/><path d="M1441.13 145.827c-.462.467-.816 1.094-1.304 1.227-.354.096-1.013-.367-1.304-.755-.322-.429-.538-1.065-.507-1.594.027-.475.35-1.079.735-1.336.252-.168 1.015.041 1.255.327.448.537.682 1.253 1.125 2.131z"/><path d="M1389.536 140.953c1.09-.403 1.953-.304 2.202.665.27 1.052.47 2.257-.826 3.083-1.396-.947-1.718-2.156-1.376-3.748z"/></g><style xmlns="" type="text/css" id="undefined"/></svg>