<svg xmlns="http://www.w3.org/2000/svg" width="1440" height="440"><rect y="250" fill="#E6E3D6" width="160" height="190"/><rect x="20" y="270" fill="#E1DED3" width="120" height="150"/><rect x="160" y="250" fill="#E1DED3" width="230" height="190"/><rect x="20" y="270" fill="#DDDACE" width="120" height="10"/><rect x="47.5" y="270" fill="#DDDACE" width="5" height="150"/><rect x="77.5" y="270" fill="#DDDACE" width="5" height="150"/><rect x="107.5" y="270" fill="#DDDACE" width="5" height="150"/><rect x="180" y="270" fill="#DDDACE" width="190" height="150"/><rect x="100" y="150" fill="#E6E3D6" width="160" height="290"/><rect x="120" y="170" fill="#E1DED3" width="120" height="250"/><rect x="260" y="150" fill="#E1DED3" width="140" height="290"/><rect x="280" y="170" fill="#DDDACE" width="100" height="250"/><rect x="207.5" y="170" fill="#DDDACE" width="5" height="250"/><rect x="177.5" y="170" fill="#DDDACE" width="5" height="250"/><rect x="147.5" y="170" fill="#DDDACE" width="5" height="250"/><rect x="120" y="170" fill="#DDDACE" width="120" height="10"/><rect x="340" y="290" fill="#E6E3D6" width="140" height="150"/><rect x="360" y="310" fill="#E1DED3" width="100" height="110"/><rect x="480" y="290" fill="#E1DED3" width="90" height="150"/><rect x="500" y="310" fill="#DDDACE" width="50" height="110"/><rect x="360" y="310" fill="#DDDACE" width="100" height="10"/><rect x="437.5" y="310" fill="#DDDACE" width="5" height="110"/><rect x="417.5" y="310" fill="#DDDACE" width="5" height="110"/><rect x="377.5" y="310" fill="#DDDACE" width="5" height="110"/><rect x="397.5" y="310" fill="#DDDACE" width="5" height="110"/><rect x="430" y="200" fill="#E6E3D6" width="190" height="240"/><rect x="450" y="220" fill="#E1DED3" width="150" height="200"/><rect x="620" y="200" fill="#E1DED3" width="140" height="240"/><rect x="450" y="220" fill="#DDDACE" width="150" height="10"/><rect x="477.5" y="220" fill="#DDDACE" width="5" height="200"/><rect x="507.5" y="220" fill="#DDDACE" width="5" height="200"/><rect x="537.5" y="220" fill="#DDDACE" width="5" height="200"/><rect x="567.5" y="220" fill="#DDDACE" width="5" height="200"/><rect x="640" y="220" fill="#DDDACE" width="100" height="200"/><rect x="970" y="200" fill="#E6E3D6" width="190" height="240"/><rect x="990" y="220" fill="#E1DED3" width="150" height="200"/><rect x="1160" y="200" fill="#E1DED3" width="140" height="240"/><rect x="990" y="220" fill="#DDDACE" width="150" height="10"/><rect x="1017.5" y="220" fill="#DDDACE" width="5" height="200"/><rect x="1047.5" y="220" fill="#DDDACE" width="5" height="200"/><rect x="1077.5" y="220" fill="#DDDACE" width="5" height="200"/><rect x="1107.5" y="220" fill="#DDDACE" width="5" height="200"/><rect x="1180" y="220" fill="#DDDACE" width="100" height="200"/><rect x="650" y="250" fill="#E6E3D6" width="160" height="190"/><rect x="670" y="270" fill="#E1DED3" width="120" height="150"/><rect x="810" y="250" fill="#E1DED3" width="230" height="190"/><rect x="670" y="270" fill="#DDDACE" width="120" height="10"/><rect x="697.5" y="270" fill="#DDDACE" width="5" height="150"/><rect x="727.5" y="270" fill="#DDDACE" width="5" height="150"/><rect x="757.5" y="270" fill="#DDDACE" width="5" height="150"/><rect x="830" y="270" fill="#DDDACE" width="190" height="150"/><rect x="480" fill="#E6E3D6" width="160" height="200"/><rect x="500" y="20" fill="#E1DED3" width="120" height="160"/><rect x="640" fill="#E1DED3" width="160" height="200"/><rect x="660" y="20" fill="#DDDACE" width="120" height="160"/><rect x="500" y="20" fill="#DDDACE" width="120" height="10"/><rect x="587.5" y="20" fill="#DDDACE" width="5" height="160"/><rect x="557.5" y="20" fill="#DDDACE" width="5" height="160"/><rect x="527.5" y="20" fill="#DDDACE" width="5" height="160"/><rect x="710" y="100" fill="#E6E3D6" width="140" height="150"/><rect x="730" y="120" fill="#E1DED3" width="100" height="110"/><rect x="850" y="100" fill="#E1DED3" width="90" height="150"/><rect x="870" y="120" fill="#DDDACE" width="50" height="110"/><rect x="730" y="120" fill="#DDDACE" width="100" height="10"/><rect x="807.5" y="120" fill="#DDDACE" width="5" height="110"/><rect x="787.5" y="120" fill="#DDDACE" width="5" height="110"/><rect x="747.5" y="120" fill="#DDDACE" width="5" height="110"/><rect x="767.5" y="120" fill="#DDDACE" width="5" height="110"/><rect x="1220" y="290" fill="#E6E3D6" width="140" height="150"/><rect x="1240" y="310" fill="#E1DED3" width="100" height="110"/><rect x="1360" y="290" fill="#E1DED3" width="80" height="150"/><rect x="1380" y="310" fill="#DDDACE" width="50" height="110"/><rect x="1240" y="310" fill="#DDDACE" width="100" height="10"/><rect x="1317.5" y="310" fill="#DDDACE" width="5" height="110"/><rect x="1297.5" y="310" fill="#DDDACE" width="5" height="110"/><rect x="1257.5" y="310" fill="#DDDACE" width="5" height="110"/><rect x="1277.5" y="310" fill="#DDDACE" width="5" height="110"/><style xmlns="" type="text/css" id="undefined"/></svg>