<svg xmlns="http://www.w3.org/2000/svg" xmlns:xlink="http://www.w3.org/1999/xlink" width="434" height="442"><circle fill="#F8F8F9" cx="217" cy="221" r="216"/><circle fill="#174AA1" cx="217" cy="221" r="198"/><path fill="#3F82C3" d="M414.366 205.125l-.147-1.659c-29.029-3.886-56.802-3.799-74.912-3.046 3.641-13.12 4.737-28.217 4.737-45.052 0-24.146-9.071-43.462-23.798-58.16 2.425-7.827 5.613-24.665-1.931-46.345-2.571-1.534-5.177-3.014-7.822-4.433-7.929.444-23.532 3.944-48.026 20.338-14.762-3.69-30.473-5.512-46.208-5.512-17.312 0-34.805 2.204-51.12 6.68-19.912-13.585-34.117-18.782-43.253-20.627-5.6 3.073-11.035 6.409-16.289 9.991-6.016 22.651-.529 38.973 1.305 43.46-13.171 14.214-21.213 32.36-21.213 54.608 0 16.795 1.912 31.862 6.583 44.958-18.113-.659-44.727-.578-72.49 3.138-.049.552-.103 1.103-.147 1.657 28.134-3.798 55.12-3.834 73.247-3.147 1.029 2.71 2.176 5.341 3.461 7.882-18.29.589-47.352 2.632-77.317 9.15l-.021 1.663c30.415-6.648 59.944-8.659 78.178-9.217 13.129 24.471 39.012 40.278 85.06 45.24 38.287 4.161 69.641.081 69.641.081 49.108-4.869 72.673-20.726 83.533-45.363 18.099.497 48.375 2.433 79.58 9.256l-.021-1.659c-30.827-6.704-60.699-8.673-78.87-9.203 1.029-2.489 1.927-5.077 2.725-7.74 18.098-.773 46.194-.9 75.535 3.061z"/><circle fill="#509FD1" cx="217" cy="221" r="189"/><circle fill="#509FD1" cx="217" cy="221" r="189"/><linearGradient id="a" gradientUnits="userSpaceOnUse" x1="217" y1="59" x2="217" y2="383"><stop offset="0" stop-color="#3F82C3"/><stop offset="1" stop-color="#174AA1"/></linearGradient><circle fill="url(#a)" cx="217" cy="221" r="162"/><image overflow="visible" width="1651" height="1348" xlink:href="EA76E6F70F104602.png" transform="matrix(.24 0 0 .24 19 22)"/><linearGradient id="b" gradientUnits="userSpaceOnUse" x1="217" y1="410" x2="217" y2="32"><stop offset="0" stop-color="#3F82C3"/><stop offset="1" stop-color="#5DA7D5"/></linearGradient><path fill="url(#b)" d="M217 32c-104.382 0-189 84.618-189 189s84.618 189 189 189 189-84.618 189-189-84.618-189-189-189zm0 351c-89.47 0-162-72.53-162-162s72.53-162 162-162 162 72.53 162 162-72.53 162-162 162z"/><path fill="#5DA7D5" d="M217 387c89.47 0 162-72.53 162-162 0-.669-.017-1.333-.025-2-1.073 88.547-73.174 160-161.975 160s-160.902-71.453-161.975-160c-.008.667-.025 1.331-.025 2 0 89.47 72.53 162 162 162z"/><path fill="#7AC2EA" d="M217 35c103.88 0 188.173 83.81 188.981 187.5.008-.5.019-.999.019-1.5 0-104.382-84.618-189-189-189s-189 84.618-189 189c0 .502.011 1.001.019 1.5.808-103.69 85.101-187.5 188.981-187.5z"/><path fill="#3F82C3" d="M377.886 202.006c-.063-.543-.118-1.088-.186-1.629-14.867-.593-28.171-.382-38.393.043 3.641-13.12 4.737-28.217 4.737-45.052 0-24.146-9.071-43.462-23.798-58.16l.251-.836c-16.457-13.681-35.667-24.159-56.676-30.492-.453.298-.895.58-1.354.888-14.762-3.69-30.473-5.512-46.208-5.512-17.312 0-34.805 2.204-51.12 6.68l-.449-.3c-24.411 8.324-46.193 22.316-63.792 40.401-9.559 12.973-15.208 28.71-15.208 47.331 0 16.795 1.912 31.862 6.583 44.958-9.864-.359-22.252-.498-35.971.05-.069.542-.123 1.089-.187 1.633 14.085-.569 26.775-.413 36.767-.034 1.029 2.71 2.176 5.341 3.461 7.882-10.69.345-25.065 1.187-41.144 3.127-.027.545-.041 1.094-.062 1.641 16.529-2.004 31.264-2.842 42.046-3.172 13.129 24.471 39.012 40.278 85.06 45.24 38.287 4.161 69.641.081 69.641.081 49.108-4.869 72.673-20.726 83.533-45.363 10.89.299 26.192 1.121 43.448 3.212-.021-.546-.036-1.095-.062-1.64-16.872-2.036-31.864-2.863-42.697-3.179 1.029-2.489 1.927-5.077 2.725-7.74 10.311-.44 23.87-.672 39.055-.058z"/><g fill="#5DA7D5"><path d="M28.768 204.013c9.447-1.025 18.661-1.653 27.346-2.004.064-.544.118-1.09.187-1.633-8.694.347-17.923.97-27.386 1.988-.054.548-.098 1.099-.147 1.649z"/><path d="M263.82 65.88c21.009 6.333 40.219 16.811 56.676 30.492 1.871-6.406 3.954-17.92 1.225-32.72-8.079-5.388-16.597-10.167-25.488-14.278-8.176 2.674-18.92 7.619-32.413 16.506z"/><path d="M164.689 67.636c-12.281-8.336-22.374-13.471-30.434-16.598-10.972 5.352-21.348 11.733-31.004 19.021-1.622 15.932 2.182 27.109 3.651 30.701-2.147 2.317-4.143 4.75-6.004 7.277 17.598-18.085 39.38-32.077 63.791-40.401z"/><path d="M55.136 214.624c.021-.547.036-1.095.062-1.641-8.659 1.044-17.808 2.405-27.15 4.182-.011.551-.015 1.104-.021 1.656 9.324-1.781 18.462-3.149 27.109-4.197z"/><path d="M377.7 200.377c.069.541.123 1.087.186 1.629 8.684.351 17.901.984 27.346 2.008l-.146-1.648c-9.464-1.017-18.692-1.642-27.386-1.989z"/><path d="M405.952 217.168c-9.341-1.776-18.493-3.141-27.15-4.186.027.545.041 1.093.062 1.64 8.648 1.048 17.786 2.417 27.109 4.199l-.021-1.653z"/></g><path d="M433.499 206.74l.321-1.591c-35.705-7.14-72.346-7.213-94.514-6.291 3.641-13.12 4.737-28.217 4.737-45.052 0-24.146-9.071-43.462-23.798-58.16 2.574-8.306 6.011-26.755-3.433-50.373 0 0-16.661-5.29-54.346 19.933-14.762-3.69-30.473-5.512-46.208-5.512-17.312 0-34.805 2.204-51.12 6.68-38.893-26.536-56.065-21.101-56.065-21.101-11.206 28.023-4.278 48.772-2.172 53.925-13.171 14.214-21.213 32.36-21.213 54.608 0 16.795 1.912 31.862 6.583 44.958-22.355-.814-57.66-.501-92.091 6.385l.317 1.591c34.639-6.927 70.166-7.169 92.384-6.328 1.029 2.71 2.176 5.341 3.461 7.882-21.973.708-59.492 3.508-95.448 13.652l.443 1.558c36.24-10.218 74.085-12.948 95.845-13.614 13.129 24.471 39.012 40.278 85.06 45.24 38.287 4.161 69.641.081 69.641.081 49.108-4.869 72.673-20.726 83.533-45.363 21.51.591 60.219 3.211 97.247 13.657l.44-1.558c-36.816-10.385-75.27-13.071-96.998-13.705 1.029-2.489 1.927-5.077 2.725-7.74 22.016-.94 58.821-.931 94.669 6.238z"/><path fill="#F4CBB2" d="M296.01 152.667c10.577 9.583 16.764 21.155 16.764 33.622 0 58.211-43.394 59.788-96.917 59.788-53.532 0-96.922-8.061-96.922-59.788 0-12.384 6.1-23.884 16.547-33.427 17.425-15.906 46.916-7.484 80.375-7.484 33.32 0 62.703-8.507 80.153 7.289zm0 0"/><path fill="#fff" d="M183.626 189.256c0 16.033-9.03 29.03-20.164 29.03-11.14 0-20.17-12.997-20.17-29.03 0-16.032 9.03-29.023 20.17-29.023 11.135 0 20.164 12.991 20.164 29.023zm0 0"/><path fill="#AD5C51" d="M177.157 189.62c0 10.688-6.026 19.349-13.445 19.349-7.428 0-13.444-8.661-13.444-19.349 0-10.691 6.017-19.357 13.444-19.357 7.419 0 13.445 8.665 13.445 19.357zm0 0"/><path fill="#fff" d="M291.816 189.256c0 16.033-9.029 29.03-20.169 29.03-11.136 0-20.165-12.997-20.165-29.03 0-16.032 9.029-29.023 20.165-29.023 11.14 0 20.169 12.991 20.169 29.023zm0 0"/><path fill="#AD5C51" d="M285.342 189.62c0 10.688-6.021 19.349-13.445 19.349-7.423 0-13.444-8.661-13.444-19.349 0-10.691 6.021-19.357 13.444-19.357 7.424 0 13.445 8.665 13.445 19.357zm0 0"/><path fill="#AD5C51" d="M221.183 215.037c0 2.786-2.257 5.044-5.043 5.044s-5.043-2.258-5.043-5.044c0-2.786 2.257-5.043 5.043-5.043s5.043 2.256 5.043 5.043zm0 0"/><path fill="#AD5C51" d="M204.391 227.787c-.298-.845.147-1.77.987-2.068.845-.298 1.771.147 2.068.987 1.299 3.664 4.775 6.125 8.652 6.125 3.877 0 7.353-2.461 8.652-6.125.298-.846 1.223-1.285 2.068-.987.846.298 1.285 1.223.988 2.068-1.752 4.955-6.461 8.283-11.708 8.283s-9.951-3.328-11.707-8.283zm0 0"/><linearGradient id="c" gradientUnits="userSpaceOnUse" x1="217" y1="410" x2="217" y2="266"><stop offset="0" stop-color="#3F82C3"/><stop offset="1" stop-color="#5DA7D5"/></linearGradient><path fill="url(#c)" d="M217 266c-60.699 0-117.888 15.024-168.054 41.553 31.4 60.844 94.866 102.447 168.054 102.447s136.654-41.603 168.054-102.447c-50.166-26.529-107.355-41.553-168.054-41.553z"/><linearGradient id="d" gradientUnits="userSpaceOnUse" x1="217" y1="410" x2="217" y2="295.832"><stop offset="0" stop-color="#3F82C3"/><stop offset="1" stop-color="#5DA7D5"/></linearGradient><path fill="url(#d)" d="M222.534 409.913c1.202-.035 2.401-.08 3.598-.137l.795-.035c1.421-.074 2.838-.165 4.25-.269l1.059-.085c1.134-.09 2.265-.191 3.393-.301l1.081-.106c1.398-.145 2.793-.303 4.182-.478l.746-.1c1.175-.153 2.346-.317 3.514-.492l1.169-.177c1.323-.206 2.642-.422 3.955-.655l.215-.036c1.368-.245 2.729-.509 4.087-.783l1.174-.242c1.098-.229 2.193-.467 3.284-.715l.88-.198c1.326-.308 2.646-.631 3.961-.967l1.072-.281c1.029-.269 2.056-.547 3.078-.833l1.13-.317c1.293-.37 2.581-.752 3.863-1.149l.798-.254c1.055-.332 2.106-.673 3.152-1.023l1.225-.414c1.119-.383 2.234-.774 3.343-1.177l.539-.192c1.241-.455 2.473-.927 3.701-1.407l1.229-.487c.938-.374 1.872-.756 2.802-1.145l1.046-.436c1.191-.506 2.376-1.025 3.554-1.555l1.149-.525c.875-.401 1.747-.808 2.616-1.221l1.231-.589c1.149-.558 2.293-1.124 3.429-1.704l.954-.497c.878-.455 1.753-.916 2.623-1.384l1.307-.709c.886-.485 1.766-.979 2.643-1.478l1.039-.591c1.026-.592 2.044-1.196 3.057-1.807l1.314-.802c.748-.46 1.493-.925 2.234-1.395l1.211-.768c1.028-.662 2.048-1.334 3.062-2.016l1.261-.86c.688-.471 1.374-.945 2.056-1.425l1.335-.944c.914-.655 1.823-1.317 2.725-1.987l1.33-1.004c.671-.508 1.34-1.019 2.004-1.536.459-.358.917-.717 1.373-1.079.649-.515 1.293-1.035 1.935-1.558.532-.433 1.062-.868 1.589-1.307.755-.629 1.506-1.263 2.251-1.903.455-.391.906-.786 1.357-1.181.559-.49 1.114-.983 1.667-1.479.437-.392.875-.782 1.308-1.178.853-.779 1.698-1.567 2.537-2.361.439-.417.873-.839 1.309-1.26.509-.492 1.015-.986 1.519-1.483.452-.446.903-.893 1.35-1.344.592-.597 1.177-1.2 1.761-1.804.618-.64 1.232-1.285 1.841-1.934.487-.518.972-1.037 1.453-1.561.446-.486.89-.974 1.331-1.465.459-.51.914-1.025 1.367-1.541.626-.711 1.247-1.427 1.862-2.148.514-.602 1.027-1.205 1.534-1.814.433-.52.861-1.045 1.288-1.57.401-.493.799-.988 1.196-1.485.42-.527.841-1.052 1.256-1.583.683-.875 1.358-1.755 2.026-2.642.409-.544.811-1.093 1.214-1.641.368-.5.735-1.002 1.098-1.506.407-.565.814-1.131 1.215-1.701.389-.553.772-1.11 1.155-1.667.623-.905 1.239-1.816 1.846-2.733.346-.523.693-1.045 1.034-1.571.386-.595.768-1.193 1.148-1.792.328-.518.651-1.039.974-1.56.571-.922 1.135-1.85 1.691-2.783.361-.606.722-1.211 1.077-1.821.356-.613.706-1.23 1.055-1.848.296-.524.59-1.049.881-1.576.343-.619.686-1.238 1.022-1.862.515-.956 1.022-1.916 1.52-2.882l.026-.049c-7.944-4.201-16.065-8.111-24.347-11.721-27.03 51.8-81.235 87.168-143.708 87.168s-116.678-35.368-143.707-87.168c-8.282 3.61-16.403 7.52-24.347 11.721l.026.049c.499.966 1.006 1.926 1.52 2.882.336.624.679 1.242 1.022 1.862.292.527.585 1.053.881 1.576.349.617.699 1.235 1.055 1.848.354.61.716 1.215 1.077 1.821.556.933 1.119 1.861 1.691 2.783.323.521.646 1.042.974 1.56.38.6.762 1.197 1.148 1.792.341.526.688 1.049 1.034 1.571.608.917 1.223 1.828 1.846 2.733.383.557.766 1.114 1.155 1.667.401.57.808 1.136 1.215 1.701.363.504.73 1.006 1.098 1.506.403.548.805 1.097 1.214 1.641.667.887 1.343 1.767 2.026 2.642.415.531.836 1.057 1.256 1.583.396.497.794.992 1.196 1.485.427.525.855 1.049 1.288 1.57.507.609 1.02 1.212 1.534 1.814.615.721 1.236 1.437 1.862 2.148.454.516.908 1.03 1.367 1.541.441.491.885.979 1.331 1.465.481.524.966 1.043 1.453 1.561.609.649 1.223 1.294 1.841 1.934.584.604 1.17 1.207 1.761 1.804.447.451.898.898 1.35 1.344.503.497 1.01.991 1.519 1.483.435.421.869.843 1.309 1.26.838.795 1.684 1.582 2.537 2.361.433.396.871.786 1.308 1.178.553.496 1.108.989 1.667 1.479.451.395.902.79 1.357 1.181.745.64 1.496 1.274 2.251 1.903.527.439 1.058.873 1.589 1.307.642.523 1.286 1.044 1.935 1.558.456.362.914.721 1.373 1.079.664.517 1.333 1.028 2.004 1.536l1.33 1.004c.902.671 1.81 1.332 2.725 1.987.443.317.889.631 1.335.944.682.48 1.367.954 2.056 1.425l1.261.86c1.014.681 2.035 1.354 3.062 2.016l1.213.769c.74.469 1.483.933 2.23 1.392l1.316.803c1.013.611 2.031 1.215 3.057 1.807l1.039.591c.877.499 1.758.992 2.643 1.478l1.307.709c.87.468 1.744.929 2.623 1.384l.954.497c1.136.58 2.28 1.146 3.429 1.704l1.231.589c.868.414 1.74.821 2.616 1.221l1.149.525c1.179.53 2.363 1.049 3.554 1.555l1.046.436c.93.389 1.864.771 2.802 1.145l1.229.487c1.228.48 2.461.952 3.701 1.407l.539.192c1.109.403 2.224.795 3.343 1.177l1.225.414c1.047.35 2.098.691 3.152 1.023l.798.254c1.282.397 2.57.779 3.863 1.149l1.13.317c1.023.286 2.049.564 3.078.833l1.072.281c1.315.336 2.635.659 3.961.967l.88.198c1.091.248 2.185.486 3.284.715l1.174.242c1.358.274 2.719.538 4.087.783l.215.036c1.313.233 2.633.449 3.955.655l1.169.177c1.168.174 2.339.339 3.514.492l.746.1c1.389.175 2.783.333 4.182.478l1.081.106c1.128.11 2.259.211 3.393.301l1.059.085c1.413.105 2.829.196 4.25.269l.795.035c1.196.057 2.396.102 3.598.137l1.188.032c1.445.033 2.893.055 4.346.055s2.901-.022 4.346-.055l1.187-.031z"/><path fill="#7AC2EA" d="M217 269c60.254 0 117.256 13.916 167.977 38.699l.077-.146c-50.166-26.529-107.355-41.553-168.054-41.553s-117.888 15.024-168.054 41.553l.077.146c50.721-24.783 107.723-38.699 167.977-38.699z"/><g opacity=".5" fill="#174AA1"><path d="M133.479 351.08c2.071 0 4.143-.325 6.215-.976v6.396c-.939.41-2.15.753-3.631 1.029-1.482.277-3.018.416-4.607.416-8.046 0-12.068-4.239-12.068-12.719v-21.535h-5.456v-3.758l5.854-3.107 2.891-8.455h5.239v8.889h11.382v6.432h-11.382v21.391c0 2.048.512 3.559 1.535 4.535 1.023.974 2.365 1.462 4.028 1.462z"/><path d="M167.949 316.537c1.71 0 3.119.121 4.228.361l-.831 7.913c-1.205-.289-2.457-.434-3.758-.434-3.396 0-6.148 1.108-8.257 3.324-2.107 2.217-3.161 5.095-3.161 8.636v20.885h-8.491v-39.962h6.648l1.12 7.046h.434c1.324-2.385 3.054-4.275 5.185-5.673 2.132-1.397 4.426-2.096 6.883-2.096z"/><path d="M173.514 317.26h9.25l8.13 22.655c1.229 3.229 2.047 6.264 2.457 9.105h.289c.217-1.324.614-2.933 1.192-4.823.578-1.892 3.637-10.87 9.178-26.938h9.178l-17.091 45.274c-3.108 8.312-8.287 12.467-15.537 12.467-1.879 0-3.71-.205-5.492-.614v-6.721c1.276.289 2.733.434 4.372.434 4.095 0 6.974-2.373 8.636-7.118l1.481-3.758-16.043-39.963z"/><path d="M239.89 327.558h20.957v27.389c-3.396 1.108-6.595 1.885-9.593 2.331-3 .445-6.065.668-9.196.668-7.974 0-14.062-2.343-18.265-7.027-4.204-4.686-6.306-11.412-6.306-20.181 0-8.527 2.438-15.176 7.317-19.945 4.877-4.77 11.64-7.154 20.288-7.154 5.42 0 10.646 1.084 15.682 3.252l-3.722 8.961c-3.854-1.927-7.865-2.891-12.032-2.891-4.842 0-8.721 1.626-11.635 4.878-2.915 3.252-4.372 7.624-4.372 13.116 0 5.733 1.174 10.111 3.523 13.134 2.348 3.023 5.763 4.535 10.243 4.535 2.336 0 4.709-.24 7.118-.723v-11.021h-10.007v-9.322z"/><path d="M272.084 306.384c0-3.589 1.999-5.384 5.998-5.384 3.998 0 5.998 1.795 5.998 5.384 0 1.711-.5 3.041-1.499 3.993-1 .951-2.5 1.427-4.499 1.427-3.999 0-5.998-1.807-5.998-5.42zm11.49 50.839h-11.021v-40.396h11.021v40.396z"/><path d="M312.155 349.165c1.927 0 4.239-.421 6.938-1.265v8.202c-2.746 1.229-6.119 1.843-10.117 1.843-4.408 0-7.618-1.114-9.63-3.342-2.011-2.229-3.017-5.57-3.017-10.027v-19.476h-5.275v-4.661l6.07-3.686 3.18-8.527h7.046v8.6h11.31v8.274h-11.31v19.476c0 1.566.439 2.723 1.318 3.469.88.747 2.042 1.12 3.487 1.12z"/></g><g fill="#7AC2EA"><path d="M133.479 353.097c2.071 0 4.143-.325 6.215-.976v6.396c-.939.41-2.15.753-3.631 1.029-1.482.277-3.018.416-4.607.416-8.046 0-12.068-4.239-12.068-12.719v-21.535h-5.456v-3.758l5.854-3.107 2.891-8.455h5.239v8.889h11.382v6.432h-11.382v21.391c0 2.048.512 3.559 1.535 4.535 1.023.973 2.365 1.462 4.028 1.462z"/><path d="M167.949 318.554c1.71 0 3.119.121 4.228.361l-.831 7.913c-1.205-.289-2.457-.434-3.758-.434-3.396 0-6.148 1.108-8.257 3.324-2.107 2.217-3.161 5.095-3.161 8.636v20.885h-8.491v-39.963h6.648l1.12 7.046h.434c1.324-2.385 3.054-4.275 5.185-5.673 2.132-1.396 4.426-2.095 6.883-2.095z"/><path d="M173.514 319.276h9.25l8.13 22.655c1.229 3.229 2.047 6.264 2.457 9.105h.289c.217-1.324.614-2.933 1.192-4.823.578-1.892 3.637-10.87 9.178-26.938h9.178l-17.091 45.274c-3.107 8.311-8.287 12.466-15.537 12.466-1.879 0-3.71-.205-5.492-.614v-6.721c1.276.289 2.733.434 4.372.434 4.095 0 6.974-2.373 8.636-7.118l1.481-3.758-16.043-39.962z"/><path d="M239.89 329.574h20.957v27.389c-3.396 1.108-6.595 1.885-9.593 2.331-3 .445-6.065.668-9.196.668-7.974 0-14.062-2.343-18.265-7.027-4.204-4.686-6.306-11.412-6.306-20.181 0-8.527 2.438-15.176 7.317-19.945 4.877-4.77 11.64-7.154 20.288-7.154 5.42 0 10.646 1.084 15.682 3.252l-3.722 8.961c-3.854-1.927-7.865-2.891-12.032-2.891-4.842 0-8.721 1.626-11.635 4.878-2.915 3.252-4.372 7.624-4.372 13.116 0 5.733 1.174 10.111 3.523 13.134 2.348 3.023 5.763 4.535 10.243 4.535 2.336 0 4.709-.24 7.118-.723v-11.021h-10.007v-9.322z"/><path d="M272.084 308.4c0-3.589 1.999-5.384 5.998-5.384 3.998 0 5.998 1.795 5.998 5.384 0 1.711-.5 3.041-1.499 3.993-1 .951-2.5 1.427-4.499 1.427-3.999 0-5.998-1.806-5.998-5.42zm11.49 50.839h-11.021v-40.396h11.021v40.396z"/><path d="M312.155 351.182c1.927 0 4.239-.421 6.938-1.265v8.202c-2.746 1.229-6.119 1.843-10.117 1.843-4.408 0-7.618-1.114-9.63-3.342-2.011-2.229-3.017-5.57-3.017-10.027v-19.476h-5.275v-4.661l6.07-3.686 3.18-8.527h7.046v8.6h11.31v8.274h-11.31v19.476c0 1.566.439 2.723 1.318 3.469.88.747 2.042 1.12 3.487 1.12z"/></g><path fill="#F8F8F9" d="M133.479 352.097c2.071 0 4.143-.325 6.215-.976v6.396c-.939.41-2.15.753-3.631 1.029-1.482.277-3.018.416-4.607.416-8.046 0-12.068-4.239-12.068-12.719v-21.535h-5.456v-3.758l5.854-3.107 2.891-8.455h5.239v8.889h11.382v6.432h-11.382v21.391c0 2.048.512 3.559 1.535 4.535 1.023.973 2.365 1.462 4.028 1.462z"/><path fill="#F8F8F9" d="M167.949 317.554c1.71 0 3.119.121 4.228.361l-.831 7.913c-1.205-.289-2.457-.434-3.758-.434-3.396 0-6.148 1.108-8.257 3.324-2.107 2.217-3.161 5.095-3.161 8.636v20.885h-8.491v-39.963h6.648l1.12 7.046h.434c1.324-2.385 3.054-4.275 5.185-5.673 2.132-1.396 4.426-2.095 6.883-2.095z"/><path fill="#F8F8F9" d="M173.514 318.276h9.25l8.13 22.655c1.229 3.229 2.047 6.264 2.457 9.105h.289c.217-1.324.614-2.933 1.192-4.823.578-1.892 3.637-10.87 9.178-26.938h9.178l-17.091 45.274c-3.107 8.311-8.287 12.466-15.537 12.466-1.879 0-3.71-.205-5.492-.614v-6.721c1.276.289 2.733.434 4.372.434 4.095 0 6.974-2.373 8.636-7.118l1.481-3.758-16.043-39.962z"/><path d="M239.89 328.574h20.957v27.389c-3.396 1.108-6.595 1.885-9.593 2.331-3 .445-6.065.668-9.196.668-7.974 0-14.062-2.343-18.265-7.027-4.204-4.686-6.306-11.412-6.306-20.181 0-8.527 2.438-15.176 7.317-19.945 4.877-4.77 11.64-7.154 20.288-7.154 5.42 0 10.646 1.084 15.682 3.252l-3.722 8.961c-3.854-1.927-7.865-2.891-12.032-2.891-4.842 0-8.721 1.626-11.635 4.878-2.915 3.252-4.372 7.624-4.372 13.116 0 5.733 1.174 10.111 3.523 13.134 2.348 3.023 5.763 4.535 10.243 4.535 2.336 0 4.709-.24 7.118-.723v-11.021h-10.007v-9.322z"/><path d="M272.084 307.4c0-3.589 1.999-5.384 5.998-5.384 3.998 0 5.998 1.795 5.998 5.384 0 1.711-.5 3.041-1.499 3.993-1 .951-2.5 1.427-4.499 1.427-3.999 0-5.998-1.806-5.998-5.42zm11.49 50.839h-11.021v-40.396h11.021v40.396z"/><path d="M312.155 350.182c1.927 0 4.239-.421 6.938-1.265v8.202c-2.746 1.229-6.119 1.843-10.117 1.843-4.408 0-7.618-1.114-9.63-3.342-2.011-2.229-3.017-5.57-3.017-10.027v-19.476h-5.275v-4.661l6.07-3.686 3.18-8.527h7.046v8.6h11.31v8.274h-11.31v19.476c0 1.566.439 2.723 1.318 3.469.88.747 2.042 1.12 3.487 1.12z"/></svg>