<svg xmlns="http://www.w3.org/2000/svg" width="64" height="96"><polygon points="30.461,78 33.606,78 37.806,72 32,72 26.26,72" fill="none"/><polygon points="34,84 35.074,84 33.282,82 30.784,82 28.993,84" fill="none"/><polygon fill="#D8D5CA" points="33.606,78 36,78 36,78.068 40.247,72 37.806,72"/><polygon fill="#D8D5CA" points="35.074,84 37.759,84 35.968,82 33.282,82"/><polygon fill="#D8D5CA" points="26.26,72 23.819,72 28.019,78 30.461,78"/><path fill="#F49830" d="M.39 31.823l-.046-.299.046.299z"/><path fill="#F49830" d="M.539 32.701l-.049-.279.049.279z"/><path fill="#F49830" d="M1.001 34.941l-.054-.231.054.231z"/><path fill="#F49830" d="M.271 31.022l-.038-.274.038.274z"/><path fill="#F49830" d="M.092 29.51l-.008-.088.008.088z"/><path fill="#F49830" d="M.008 28.299l-.004-.094.004.094z"/><path fill="#F49830" d="M.002 28.092l-.001-.042.001.042z"/><path fill="#F49830" d="M.116 25.703c.055-.589.125-1.174.221-1.751-.095.578-.166 1.162-.221 1.751z"/><path fill="#F49830" d="M0 28c0-.627.031-1.247.078-1.864-.046.617-.078 1.237-.078 1.864z"/><path fill="#F49830" d="M.023 28.603l-.007-.135.007.135z"/><path fill="#F49830" d="M.346 23.896c.109-.647.246-1.286.405-1.918-.159.631-.297 1.27-.405 1.918z"/><path fill="#F49830" d="M.05 29.003l-.011-.158.011.158z"/><path fill="#F49830" d="M.175 30.282l-.025-.209.025.209z"/><path fill="#F49830" d="M1.295 36.154l-.081-.321.081.321z"/><polygon fill="#F49830" points="12,32 16,28 8,28"/><path fill="#F49830" d="M32 42h-28.872c2.641 7.143 7.515 16.346 16.517 26h12.355v-26z"/><polygon fill="#F49830" points="28,32 32,28 24,28"/><path fill="#F49830" d="M1.722 37.722c.209.729.437 1.484.7 2.278h1.578l-2.278-2.278z"/><polygon fill="#F49830" points="28,40 32,40 32,36"/><path fill="#F49830" d="M32 20v-20c-15.257 0-28.012 9.346-31.216 21.851.16-.625.342-1.243.549-1.851h30.667z"/><polygon fill="#F49830" points="8,28 0,28 4,32"/><polygon fill="#F49830" points="20,32 24,28 16,28"/><path fill="#F49830" d="M3.034 41.751c-.202-.555-.394-1.099-.57-1.628.176.528.368 1.072.57 1.628z"/><path fill="#F49830" d="M21.521 69.961c-.379-.385-.739-.768-1.105-1.152.367.383.726.766 1.105 1.152z"/><path fill="#F49830" d="M1.625 37.386l-.093-.338.093.338z"/><polygon fill="#F49830" points="4,40 12,40 8,36"/><polygon fill="#F49830" points="20,40 28,40 24,36"/><polygon fill="#F49830" points="12,40 20,40 16,36"/><polygon fill="#D67427" points="48,28 40,28 44,32"/><polygon fill="#D67427" points="56,28 48,28 52,32"/><polygon fill="#D67427" points="36,40 44,40 40,36"/><polygon fill="#D67427" points="40,28 32,28 36,32"/><polygon fill="#D67427" points="32,40 36,40 32,36"/><path fill="#D67427" d="M62.786 35.833l-.081.321.081-.321z"/><path fill="#D67427" d="M62.469 37.048l-.093.338.093-.338z"/><path fill="#D67427" d="M61.536 40.123c-.176.529-.368 1.073-.57 1.628.202-.556.394-1.1.57-1.628z"/><path fill="#D67427" d="M63.053 34.71l-.054.231.054-.231z"/><path fill="#D67427" d="M62.667 20c-3.935-11.565-16.172-20-30.667-20v20h30.667z"/><polygon fill="#D67427" points="44,40 52,40 48,36"/><path fill="#D67427" d="M60 40h1.578c.263-.794.491-1.548.7-2.278l-2.278 2.278z"/><polygon fill="#D67427" points="60,32 64,28 56,28"/><polygon fill="#D67427" points="52,40 60,40 56,36"/><path fill="#D67427" d="M32 68h12.355c9.002-9.654 13.876-18.857 16.517-26h-28.872v26z"/><path fill="#D67427" d="M63.922 26.136c.047.617.078 1.237.078 1.864 0-.627-.032-1.247-.078-1.864z"/><path fill="#D67427" d="M63.663 23.955c.096.577.166 1.16.221 1.748-.055-.588-.126-1.171-.221-1.748z"/><path fill="#D67427" d="M63.995 28.205l-.004.094.004-.094z"/><path fill="#D67427" d="M63.999 28.051l-.001.042.001-.042z"/><path fill="#D67427" d="M43.584 68.808c-.366.384-.726.767-1.105 1.152.379-.385.738-.768 1.105-1.152z"/><path fill="#D67427" d="M63.509 32.422l-.049.279.049-.279z"/><path fill="#D67427" d="M62.668 20.002c.207.607.388 1.224.548 1.847-.16-.624-.342-1.24-.548-1.847z"/><path fill="#D67427" d="M63.25 21.979c.159.631.295 1.27.404 1.916-.108-.647-.246-1.285-.404-1.916z"/><path fill="#D67427" d="M63.767 30.747l-.038.274.038-.274z"/><path fill="#D67427" d="M63.656 31.524l-.046.299.046-.299z"/><path fill="#D67427" d="M63.849 30.073l-.025.209.025-.209z"/><path fill="#D67427" d="M63.984 28.468l-.007.135.007-.135z"/><path fill="#D67427" d="M63.961 28.845l-.011.158.011-.158z"/><path fill="#D67427" d="M63.915 29.423l-.008.088.008-.088z"/><path fill="#F2C444" d="M16 28h16v-8h-30.667c-.207.608-.388 1.226-.549 1.851l-.033.127c-.159.632-.295 1.271-.405 1.918l-.008.056c-.096.578-.166 1.163-.221 1.751l-.038.433c-.048.617-.079 1.237-.079 1.864h16z"/><path fill="#D7A628" d="M32 28h32c0-.627-.031-1.247-.078-1.864l-.038-.434c-.055-.587-.125-1.171-.221-1.748l-.009-.06c-.109-.646-.246-1.285-.404-1.916l-.034-.13c-.16-.623-.341-1.24-.548-1.847v-.002h-30.668v8.001z"/><path fill="#F2C444" d="M8 36l4 4 4-4 4 4 4-4 4 4 4-4v-8l-4 4-4-4-4 4-4-4-4 4-4-4-4 4-4-4 .001.051.001.042.003.113.004.094.008.169.007.135.016.242.011.158.035.42.008.088.058.562.025.209.058.465.038.274.073.502.046.299.1.599.049.279c.111.617.246 1.288.408 2.009l.054.231.213.892.081.321.236.894.093.338.091.329.007.007 2.276 2.278 4-4z"/><path fill="#D7A628" d="M56 28l-4 4-4-4-4 4-4-4-4 4-4-4v8l4 4 4-4 4 4 4-4 4 4 4-4 4 4 2.278-2.278.007-.007.091-.329.093-.338.236-.894.081-.321.213-.892.054-.231c.162-.721.297-1.392.408-2.009l.049-.279.1-.599.046-.299.073-.502.038-.274.058-.465.025-.209.058-.562.008-.088.035-.42.011-.158.016-.242.007-.135.008-.169.004-.094.003-.113.001-.042-.001-.051-4 4-4-4z"/><path fill="#F2C444" d="M32 40h-29.579l.043.123c.176.529.368 1.073.57 1.628l.088.249h28.878v-2z"/><path fill="#D7A628" d="M52 40h-20v2h28.878l.087-.249c.202-.555.394-1.099.57-1.628l.043-.123h-9.578z"/><path fill="#D67427" d="M32 72v-4h-12.358l.775.808c.366.384.726.767 1.105 1.152.668.678 1.356 1.358 2.067 2.039h8.411z"/><path fill="#BA5F24" d="M32 72h8.411999999999999c.711-.681 1.399-1.361 2.067-2.039.379-.385.739-.768 1.105-1.152l.775-.808h-12.359v3.999z"/><polygon fill="#D8D5CA" points="34,84 28.993,84 30.784,82 28.099,82 26.307,84 26,84 26,86 34,86"/><rect x="26" y="88" fill="#D8D5CA" width="8" height="8"/><polygon fill="#ACABA3" points="33.606,78 30.461,78 28.019,78 28,78 28,82 28.099,82 30.784,82 33.282,82 35.968,82 36,82 36,78.068 36,78"/><polygon fill="#ACABA3" points="34,84 34,86 26,86 26,88 34,88 34,96 38,96 38,88 38,86 38,84 37.759,84 35.074,84"/><style xmlns="" type="text/css" id="undefined"/></svg>