<svg xmlns="http://www.w3.org/2000/svg" width="1350" height="400"><path opacity=".06" fill="#231F20" d="M1330 210v-50h-5v-5h5v-10h-10v-5l-15-15-15 15v5h-10v10h5v5h-5v50h-20v-170h-5v-10h-5l-10-10-10 10h-5v10h-5v40h-60v-40h-5v-10h-5l-10-10-10 10h-5v10h-5v210h-40v-40h-10v-10h-25l-20-20h-100l-20 20h-25v10h-10v40h-140v-30h-40v-10h-110v30h-70v-30h-50v-90h-10v-10h-10c0-18.638-12.748-34.299-30-38.74v-11.26h-7.5v-30h-5v30h-7.5v11.26c-17.252 4.44-30 20.101-30 38.74h-10v10h-10v60h-150v-140h-10v-20h-20l-20-20-20 20h-20v20h-10v60h-70v40h-20v260h1350v-190h-20z"/><style xmlns="" type="text/css" id="undefined"/></svg>