<svg xmlns="http://www.w3.org/2000/svg" width="20" height="16.254"><path fill="#5B5C5E" d="M20 1.924c-.736.326-1.527.547-2.357.646.847-.508 1.498-1.312 1.804-2.27-.793.47-1.671.812-2.606.996-.748-.798-1.814-1.296-2.994-1.296-2.266 0-4.103 1.837-4.103 4.103 0 .322.036.635.106.935-3.41-.171-6.434-1.804-8.458-4.287-.353.606-.555 1.311-.555 2.063 0 1.424.724 2.679 1.825 3.415-.672-.021-1.305-.206-1.858-.513v.052c0 1.988 1.414 3.647 3.292 4.023-.346.094-.708.144-1.082.144-.264 0-.521-.026-.772-.074.522 1.63 2.038 2.816 3.833 2.85-1.404 1.1-3.174 1.756-5.096 1.756-.331 0-.658-.019-.979-.057 1.816 1.164 3.973 1.843 6.29 1.843 7.547 0 11.675-6.252 11.675-11.675l-.012-.531c.801-.577 1.497-1.3 2.047-2.123z"/><style xmlns="" type="text/css" id="undefined"/></svg>